<svg xmlns="http://www.w3.org/2000/svg" width="34.607" height="34.607" viewBox="0 0 34.607 34.607"><defs><style>.a{isolation:isolate;}.b{fill:#0ccc52;}.c{fill:#fff;}</style></defs><g class="a" transform="translate(0 0)"><path class="b" d="M43.255,26.627A16.628,16.628,0,1,1,26.627,10,16.628,16.628,0,0,1,43.255,26.627Zm0,0" transform="translate(-9.324 -9.324)"/><path class="c" d="M129.17,139.848l-8.055,8.055-3.526-3.526-3.824,3.824,3.526,3.526,3.824,3.823,11.878-11.878Zm0,0" transform="translate(-106.076 -130.396)"/><path d="M111.791,146.9a.676.676,0,0,1-.478-.2l-7.349-7.349a.676.676,0,0,1,0-.956l3.823-3.823a.676.676,0,0,1,.956,0l3.048,3.048,7.577-7.577a.676.676,0,0,1,.956,0l3.823,3.824a.676.676,0,0,1,0,.956L112.269,146.7a.676.676,0,0,1-.478.2Zm-6.393-8.025,6.393,6.393,10.922-10.922-2.868-2.868-7.577,7.577a.676.676,0,0,1-.956,0l-3.048-3.048Zm0,0" transform="translate(-96.752 -121.071)"/><path d="M17.3,34.607q-.662,0-1.326-.051a17.3,17.3,0,1,1,15.394-7.167.676.676,0,1,1-1.1-.789A15.952,15.952,0,1,0,26.6,30.269a.676.676,0,1,1,.789,1.1,17.3,17.3,0,0,1-10.09,3.24Zm0,0"/><path d="M420.629,421.3a.676.676,0,1,1,.478-.2A.681.681,0,0,1,420.629,421.3Zm0,0" transform="translate(-391.568 -391.568)"/></g></svg>