<svg xmlns="http://www.w3.org/2000/svg" xmlns:xlink="http://www.w3.org/1999/xlink" width="214.75" height="145.524" viewBox="0 0 214.75 145.524"><defs><style>.a,.h{fill:#ef2e41;}.a{opacity:0.19;}.b,.g{opacity:0.1;}.c{fill:#f60;}.d{fill:url(#a);}.e{fill:#fbbebe;}.f{fill:#464353;}.i{opacity:0.05;}.j{fill:#3f3d56;}.k{opacity:0.2;}.l{fill:#fff;}.m{fill:none;stroke:#ef2e41;stroke-width:8px;}.n{fill:#747474;font-size:10px;font-family:SegoeUI-Semibold, Segoe UI;font-weight:600;}</style><linearGradient id="a" x1="0.5" y1="1" x2="0.5" gradientUnits="objectBoundingBox"><stop offset="0" stop-color="gray" stop-opacity="0.251"/><stop offset="0.54" stop-color="gray" stop-opacity="0.122"/><stop offset="1" stop-color="gray" stop-opacity="0.102"/></linearGradient></defs><g transform="translate(-38.637 -10.253)"><path class="a" d="M223.846,119.585c-13.767-.479-26.879-4.922-39.4-9.785s-24.922-10.251-38.36-12.816c-8.643-1.657-18.526-1.891-25.49,2.742-6.7,4.467-8.866,12.157-10.032,19.3-.874,5.375-1.391,11.03,1.01,16.06,1.666,3.493,4.625,6.428,6.671,9.775,7.118,11.64,2.087,25.994-5.629,37.36-3.616,5.331-7.815,10.423-10.608,16.094s-4.084,12.178-1.642,17.969c2.423,5.743,8.194,10.049,14.444,13.08,12.7,6.156,27.654,7.92,42.251,8.917,32.3,2.21,64.765,1.253,97.145.3,11.985-.355,24.02-.715,35.809-2.568,6.548-1.03,13.308-2.663,18.06-6.594,6.033-5.005,7.528-13.482,3.486-19.758-6.782-10.528-25.526-13.144-30.272-24.442-2.61-6.218.07-13.146,3.861-18.913,8.134-12.374,21.768-23.227,22.487-37.371.493-9.713-6.06-19.441-16.194-24.037-10.623-4.818-25.352-4.212-33.184,3.763C250.181,116.847,236,120.006,223.846,119.585Z" transform="translate(-60.437 -83.85)"/><g class="b" transform="translate(41.003 90.037)"><path class="c" d="M109.761,417.365s-15.9-6.688-17.99,5.371a2.936,2.936,0,0,0,.425,3.433s.325-.834,1.861.028a7.906,7.906,0,0,0,1.736.706,3.905,3.905,0,0,0,2.472-.132h0s5.231-.283,9.63-7.126c0,0,1.887-1.166,1.98-1.6l-3.153.213a5.233,5.233,0,0,1-1.064,3.693s1.157-3.582.6-3.682c-.113-.021-1.666.183-1.666.183s.4,4.014-1.7,6.09c0,0,1.953-4.082,1.1-6.018l-2.327.449s.638,4.223-1.663,6.677c0,0,1.893-4.34,1.161-6.543l-2.227.749s.536,4.129-1.389,6.169c0,0,1.68-5.235.889-5.956a11.593,11.593,0,0,0-2.431,1.276s.317,2.978-.906,4.052c0,0,.751-3.616.379-3.765a12.179,12.179,0,0,0-3.038,3.265,8.823,8.823,0,0,1,2.746-3.616,4.9,4.9,0,0,0-2.765.389s.8-1.534,3.329-.806A10.959,10.959,0,0,1,98,419.583a10.745,10.745,0,0,0-4.114-.932s1.851-1.064,4.7.713l2.223-.8s-3.084-1.581-4.629-1.574c0,0,2.055-.8,5.205,1.417l2.276-.464a18.1,18.1,0,0,0-4.274-1.927s2.063-.328,4.931,1.819l1.555-.13s-1.883-1.11-2.453-1.381-.545-.445-.545-.445a7.422,7.422,0,0,1,3.65,1.757A17.978,17.978,0,0,0,109.761,417.365Z" transform="translate(-91.393 -415.515)"/></g><g class="b" transform="translate(42.338 68.273)"><path class="c" d="M117.82,335.931s-5.639-13.033-13.748-7.056a2.415,2.415,0,0,0-1.7,2.276s.668-.311,1.091,1.079a6.4,6.4,0,0,0,.638,1.406,3.191,3.191,0,0,0,1.542,1.329h0s3.27,2.812,9.785,1.253a6.384,6.384,0,0,0,2.091.177l-1.991-1.674a4.288,4.288,0,0,1-2.742,1.583s2.729-1.468,2.457-1.844c-.055-.077-1.1-.838-1.1-.838s-2.046,2.612-4.467,2.653c0,0,3.486-1.315,4.084-2.946l-1.638-1.064s-2.029,2.87-4.793,3.019c0,0,3.6-1.5,4.418-3.227L110,331.232s-2.034,2.765-4.333,2.87c0,0,3.982-2.153,3.92-3.031a9.237,9.237,0,0,0-2.178-.621s-1.5,1.946-2.846,1.891c0,0,2.508-1.721,2.372-2.021a9.962,9.962,0,0,0-3.665.213,7.259,7.259,0,0,1,3.691-.583,4,4,0,0,0-1.861-1.34s1.353-.453,2.438,1.415a9.285,9.285,0,0,1,2.063.519,8.737,8.737,0,0,0-1.914-2.9s1.7.425,2.382,3.1l1.778.789a12.4,12.4,0,0,0-1.855-3.572s1.674.7,2.287,3.808l1.617,1.019a14.92,14.92,0,0,0-1.44-3.58s1.412.983,1.891,3.891l1,.808s-.487-1.732-.672-2.217-.07-.574-.07-.574a6.094,6.094,0,0,1,1.168,3.123A14.41,14.41,0,0,0,117.82,335.931Z" transform="translate(-102.37 -327.306)"/></g><path class="d" d="M693.659,392.614a8.085,8.085,0,0,0-.851-2.221,7.714,7.714,0,0,0-1.4-1.525c-1.542-1.4-3.438-2.825-5.482-2.47a7.233,7.233,0,0,0-1.821.664c-.3.138-.6.277-.9.394a4.51,4.51,0,0,1-2.729.238c-.468-.126-.9-.351-1.366-.491a4.412,4.412,0,0,0-.672-.145,12.375,12.375,0,0,0,1.3-.683c2.3-1.419,4.127-3.971,3.869-6.673a10.887,10.887,0,0,0-.711-2.65q-.408-1.13-.819-2.261A9.631,9.631,0,0,0,680.713,372a7.1,7.1,0,0,0-2.8-1.98,27.149,27.149,0,0,0-7.192-1.668l-.17-.023V341.9a1.7,1.7,0,0,0-1.7-1.712h-3.219l-.425-2.6a24.328,24.328,0,0,0-1.963-7.213,5.416,5.416,0,0,0-3.529-3.131,3.519,3.519,0,0,1-.919-.213c-.468-.23-.723-.74-1.085-1.119-.927-.972-2.436-.987-3.68-1.489a19.247,19.247,0,0,1-3-1.891,3.921,3.921,0,0,0-3.353-.67,2.3,2.3,0,0,1-.023.24l-.71-.319a7.786,7.786,0,0,1-2.163-1.3,6.2,6.2,0,0,1-1.54-2.782c-.034-.111-.066-.213-.1-.33a9.9,9.9,0,0,0,2.646-5.056c.057.185.117.372.174.559a2.955,2.955,0,0,0,.213.551,1.459,1.459,0,0,0,.1.168,1.085,1.085,0,0,0,.26.27.725.725,0,0,0,.342.134.64.64,0,0,0,.179,0,.983.983,0,0,0,.715-.611,1.274,1.274,0,0,0,.074-.26,1.353,1.353,0,0,0,.015-.162v-.383a.621.621,0,0,0-.021-.125c-.009-.04,0-.023,0-.034-.011-.055-.023-.108-.034-.164a.21.21,0,0,1,0-.036l-.032-.134-.019-.081v-.021h0c-.021-.083-.04-.168-.06-.253a7.327,7.327,0,0,1-.117-2.248,24.356,24.356,0,0,1,.608-3.267l.045-.194.051-.225c.034-.153.066-.306.1-.459h0c.028-.13.053-.262.077-.394s.04-.232.057-.349v-.043a10.111,10.111,0,0,0,.1-2.4h0a5.043,5.043,0,0,0-1.2-3.006c-.534-.594-1.236-1.032-1.732-1.655-.466-.585-.728-1.3-1.208-1.876-1.33-1.587-4.739-2.81-6.833-3.023-2.4-.243-6.271.37-8.2,1.787a7.929,7.929,0,0,0-1.7,1.993,9.8,9.8,0,0,1-3.421,3.4,4.142,4.142,0,0,0-1.557.983,2.678,2.678,0,0,0-.425,1.1,21.746,21.746,0,0,0-.438,4.212,5.193,5.193,0,0,0,.234,1.829c.03.081.066.164.1.242h0c.034.07.072.14.113.213l.026.045a8.847,8.847,0,0,1,.683,1.159,1.681,1.681,0,0,1,.1.353,2.613,2.613,0,0,1-.06.934h0a.6.6,0,0,1-.028.136l-.019.1a.175.175,0,0,1-.017.091q-.025.138-.045.274c0,.064-.013.13-.015.2a1.6,1.6,0,0,0,.147.766.969.969,0,0,0,.1.162.851.851,0,0,0,.287.245,3.221,3.221,0,0,0,.787.187,2.383,2.383,0,0,1,1.617,1.534,5.41,5.41,0,0,1,.189.513,9.062,9.062,0,0,1,.3,1.334c.362-.019.572-.338.7-.687a3.255,3.255,0,0,0,.1-.351c.049-.223.1-.447.149-.67a9.89,9.89,0,0,0,3.884,4.28c.06.174.117.351.17.53a3.6,3.6,0,0,1-.07,2.816,2.986,2.986,0,0,1-1.572,1.223,1.04,1.04,0,0,0-.351-.3,1.62,1.62,0,0,0-1.7.481c-.851.77-1.544,1.874-2.665,2.127a3.1,3.1,0,0,0-1.189.321,2.748,2.748,0,0,0-.551.725,2.538,2.538,0,0,1-2.178,1.085c-.389-.019-.851-.108-1.117.177-.2.213-.213.551-.425.753-.287.281-.753.143-1.153.126a2.127,2.127,0,0,0-1.542.668,3.629,3.629,0,0,0-.927-2.319,12.266,12.266,0,0,0-2.053-1.359c-1.7-1.157-2.553-3.191-3.44-5.054s-2.057-3.829-3.993-4.508c-.445-.157-1.064-.17-1.264.262a.943.943,0,0,0-.032.564,6.52,6.52,0,0,0,1.5,2.585,6.451,6.451,0,0,1,1.64,4.669c-.291,1.989-2.063,3.533-2.276,5.531a25.758,25.758,0,0,0,.128,2.65,7.632,7.632,0,0,0,.032,1.651,11.194,11.194,0,0,0,.449,1.2,7.039,7.039,0,0,1,.294,1.98q.225,4.229.449,8.46a23.088,23.088,0,0,1-.81,6.25,19.613,19.613,0,0,0-1.332,3.829,13.059,13.059,0,0,0,.213,7c.4,1.219,1.019,2.361,1.349,3.6a.329.329,0,0,0,.019.079c.032.264.068.528.117.789a7.583,7.583,0,0,0,.236.893,6.366,6.366,0,0,0,.468,1.461,4.088,4.088,0,0,0,1.276,1.489c-.306.6-.8,1.083-1.132,1.67a5.123,5.123,0,0,0-.389,3.418,11.309,11.309,0,0,0,3.191,5.831,1.847,1.847,0,0,0-.213,0,3.336,3.336,0,0,0-1.455.521,9.872,9.872,0,0,0-4.578,10.019,4.294,4.294,0,0,0,.881,2.087,3.31,3.31,0,0,0,1.551.951,5.381,5.381,0,0,0,1.142.213c2.619.213,5.154-1,7.779-1.1a20.953,20.953,0,0,1,2.606.121q1.9.157,3.8.2a5.031,5.031,0,0,0,4.539-2.042,5.5,5.5,0,0,0,.8-1.264c1.119-.064,2.355-.162,3.25-.236l.013.126a1.706,1.706,0,0,0,.464,1.185,1.657,1.657,0,0,0,.638.259,20.489,20.489,0,0,0,9.645.823l3.893-.449a19.829,19.829,0,0,1,3.342.728c1.123.383,2.174.951,3.272,1.4A32.506,32.506,0,0,0,660,397.613a1.635,1.635,0,0,0,1.34-.213c.442-.425.294-1.138.17-1.734-.051-.242-.089-.489-.121-.736a36.911,36.911,0,0,1,5.373,1.866l.306.134c.087.464.517.836.927,1.336a3.38,3.38,0,0,0,.47.581,1.542,1.542,0,0,0,.674.245,31.507,31.507,0,0,0,8.722.394,8.937,8.937,0,0,1,1.8-.062,7.581,7.581,0,0,1,1.3.294l2.463.7a16.645,16.645,0,0,0,5.558.93,7.384,7.384,0,0,0,1.136-.164,5.33,5.33,0,0,0,3.593-2.519C694.671,396.845,694.206,394.605,693.659,392.614Zm-72.253-33.272A7.74,7.74,0,0,1,620.7,362c-.264.534-.6,1.025-.851,1.561a8.444,8.444,0,0,0-.513,2.408c-.128-.021-.257-.04-.385-.055.189-.664.332-1.344.521-2.01A26.048,26.048,0,0,1,621.406,359.342Z" transform="translate(-495.131 -250.66)"/><path class="e" d="M698.129,740.978a4.107,4.107,0,0,1-.425-3.216,2.734,2.734,0,0,1,1.415-1.33,6.806,6.806,0,0,1,1.914-.472,26.717,26.717,0,0,1,6.224-.085,10.139,10.139,0,0,1-.442,3.563c-.249,1.064-.391,1.221-1.489,1.276C704.615,740.753,698.3,741.355,698.129,740.978Z" transform="translate(-568.576 -599.579)"/><ellipse class="f" cx="30.419" cy="8.509" rx="30.419" ry="8.509" transform="translate(118.077 117.494)"/><ellipse class="g" cx="30.419" cy="8.509" rx="30.419" ry="8.509" transform="translate(118.077 117.494)"/><path class="e" d="M738.665,412.726a9.464,9.464,0,0,1-4.88,4.433,12.249,12.249,0,0,1-3.863.736,11.034,11.034,0,0,1-4.276-.521,9.782,9.782,0,0,1-4.467-3.58,21.854,21.854,0,0,1-2.593-5.178,5.754,5.754,0,0,1-.53-2.942,4.176,4.176,0,0,0,2.861-1.587,3.53,3.53,0,0,0,.07-2.787c-.079-.27-.17-.538-.262-.8-.213-.617-.947-1.789-.436-2.317.326-.334,1.689-.5,2.159-.721a20.278,20.278,0,0,1,4.376-1.951,10.534,10.534,0,0,1,4.172.268,1.372,1.372,0,0,1,.515.185,1.239,1.239,0,0,1,.383.574c.391.953.621,2.006.936,3a6.132,6.132,0,0,0,1.538,2.755,7.852,7.852,0,0,0,2.163,1.289l1.885.864a2.479,2.479,0,0,1,.891.576,2.257,2.257,0,0,1,.425,1.157,10.81,10.81,0,0,1-1.068,6.541Z" transform="translate(-584.714 -331.642)"/><path class="g" d="M740.6,399.544a9.785,9.785,0,0,1-11.834,1.757c-.079-.27-.17-.538-.262-.8-.213-.617-.947-1.789-.436-2.317.326-.334,1.689-.5,2.159-.721a20.28,20.28,0,0,1,4.376-1.951,10.534,10.534,0,0,1,4.171.268,1.371,1.371,0,0,1,.515.185,1.238,1.238,0,0,1,.383.574C740.051,397.5,740.281,398.55,740.6,399.544Z" transform="translate(-592.489 -331.642)"/><circle class="e" cx="9.785" cy="9.785" r="9.785" transform="translate(131.266 50.912)"/><path class="h" d="M708.387,454.13l-.8-4.871a23.924,23.924,0,0,0-1.961-7.137,5.408,5.408,0,0,0-3.529-3.1,3.414,3.414,0,0,1-.919-.213c-.468-.225-.723-.732-1.083-1.106-.927-.961-2.438-.976-3.68-1.466a18.809,18.809,0,0,1-3-1.87,3.979,3.979,0,0,0-3.35-.664,16.79,16.79,0,0,1-1.176,5.584,8.356,8.356,0,0,1-12.606,3.14,10.5,10.5,0,0,1-3.676-5.933c-.138-.562-.3-1.206-.813-1.464a1.63,1.63,0,0,0-1.7.472c-.862.764-1.547,1.857-2.665,2.114a3.11,3.11,0,0,0-1.187.319,2.7,2.7,0,0,0-.553.717,2.553,2.553,0,0,1-2.176,1.076c-.389-.019-.851-.108-1.117.174-.2.213-.213.545-.425.742-.287.279-.753.143-1.153.128a2.326,2.326,0,0,0-1.9,1.064,6.861,6.861,0,0,0-.851,2.1c2.325,5.178,4.452,10.362,6.777,15.539a1.325,1.325,0,0,1,.168.638,1.555,1.555,0,0,1-.289.638c-1.14,1.832-1.1,4.135-.979,6.288s.279,4.427-.683,6.356c-.262.53-.6,1.015-.851,1.544a14.635,14.635,0,0,0-.453,6.326h48.075c-.917-2.521-.568-7.579-.377-10.255a37.416,37.416,0,0,0-.362-5.614C708.785,461.573,709.019,457.946,708.387,454.13Z" transform="translate(-537.523 -361.675)"/><path class="f" d="M764.26,650.213a4.583,4.583,0,0,1,2.248-.07,27.359,27.359,0,0,1,7.19,1.653,7.06,7.06,0,0,1,2.8,1.959,9.693,9.693,0,0,1,1.364,2.765l.817,2.231a10.772,10.772,0,0,1,.713,2.623c.255,2.678-1.576,5.2-3.88,6.594s-5.016,1.887-7.658,2.406-5.295,1.093-7.926,1.7a31.893,31.893,0,0,1-3.729.734c-2.816.319-5.76-.151-8.437.781a32.1,32.1,0,0,1-3.212,1.183,19.981,19.981,0,0,1-2.219.357l-5.065.579a20.752,20.752,0,0,1-9.643-.808,1.245,1.245,0,0,1-1.1-1.43q-.325-2.853-.57-5.712a2.142,2.142,0,0,1,2.261-2.772,52.522,52.522,0,0,1,9.717-.674c1.236-1.236,3.274-1.242,4.893-1.914a14.56,14.56,0,0,0,1.725-.938,22.549,22.549,0,0,1,9.468-2.993,8.813,8.813,0,0,0,1.938-.276c1.253-.389,2.4-1.449,3.682-1.189a2.979,2.979,0,0,1,.638-1.332c.183-.155.408-.26.576-.425a1.745,1.745,0,0,0,.334-1.427,4.181,4.181,0,0,1-.043-1.506,2.084,2.084,0,0,1,.236-.525A2.864,2.864,0,0,1,764.26,650.213Z" transform="translate(-590.935 -532.113)"/><path class="i" d="M764.26,650.213a4.583,4.583,0,0,1,2.248-.07,27.359,27.359,0,0,1,7.19,1.653,7.06,7.06,0,0,1,2.8,1.959,9.693,9.693,0,0,1,1.364,2.765l.817,2.231a10.772,10.772,0,0,1,.713,2.623c.255,2.678-1.576,5.2-3.88,6.594s-5.016,1.887-7.658,2.406-5.295,1.093-7.926,1.7a31.893,31.893,0,0,1-3.729.734c-2.816.319-5.76-.151-8.437.781a32.1,32.1,0,0,1-3.212,1.183,19.981,19.981,0,0,1-2.219.357l-5.065.579a20.752,20.752,0,0,1-9.643-.808,1.245,1.245,0,0,1-1.1-1.43q-.325-2.853-.57-5.712a2.142,2.142,0,0,1,2.261-2.772,52.522,52.522,0,0,1,9.717-.674c1.236-1.236,3.274-1.242,4.893-1.914a14.56,14.56,0,0,0,1.725-.938,22.549,22.549,0,0,1,9.468-2.993,8.813,8.813,0,0,0,1.938-.276c1.253-.389,2.4-1.449,3.682-1.189a2.979,2.979,0,0,1,.638-1.332c.183-.155.408-.26.576-.425a1.745,1.745,0,0,0,.334-1.427,4.181,4.181,0,0,1-.043-1.506,2.084,2.084,0,0,1,.236-.525A2.864,2.864,0,0,1,764.26,650.213Z" transform="translate(-590.935 -529.113)"/><path class="h" d="M626.612,726.4a5.05,5.05,0,0,1-4.537,2.021q-1.9-.045-3.8-.2a21.321,21.321,0,0,0-2.6-.121c-2.625.1-5.159,1.3-7.777,1.093a5.515,5.515,0,0,1-1.142-.213,3.324,3.324,0,0,1-1.542-.938,4.237,4.237,0,0,1-.881-2.065,9.731,9.731,0,0,1,4.578-9.915,3.357,3.357,0,0,1,1.455-.517,3.449,3.449,0,0,1,1.472.323l.032.013a11.133,11.133,0,0,1,3.646,2.434,2.054,2.054,0,0,0,.557.449,1.913,1.913,0,0,0,.657.123l2.8.177a6.629,6.629,0,0,1,1.4.194,11.171,11.171,0,0,1,1.476.638,18.9,18.9,0,0,0,4.8,1.11.717.717,0,0,1,.425.17.666.666,0,0,1,.132.277A5.427,5.427,0,0,1,626.612,726.4Z" transform="translate(-495.102 -583.689)"/><path class="g" d="M611.858,715.886a16.783,16.783,0,0,0-2.8,3.5,17.5,17.5,0,0,0-2.285,6.922,12.848,12.848,0,0,0-.023,2.682,3.325,3.325,0,0,1-1.542-.94,4.237,4.237,0,0,1-.881-2.065,9.731,9.731,0,0,1,4.578-9.915,3.357,3.357,0,0,1,1.455-.517,3.449,3.449,0,0,1,1.472.323Z" transform="translate(-495.102 -583.689)"/><path class="e" d="M870.571,740.52c1.563-.043,3.318-.121,4.467.932,1.1,1,1.24,2.638,1.312,4.116l.083,1.717a3.429,3.429,0,0,1-.164,1.549,2.385,2.385,0,0,1-2.34,1.213,7.872,7.872,0,0,1-2.657-.83,37.373,37.373,0,0,0-7.232-2.278q.121-1.78.4-3.544c.13-.815.151-2.178.7-2.855.577-.715,1.327-.328,2.11-.2A16.942,16.942,0,0,0,870.571,740.52Z" transform="translate(-699.679 -603.032)"/><path class="f" d="M636.067,643.528c0,.213-.334,0-.364-.228a5.181,5.181,0,0,0-3.191-3.829,10.442,10.442,0,0,0-5.127-.562c-2.606.247-5.52,1.244-6.484,3.68-.226.57-.328,1.187-.6,1.734-.306.6-.806,1.078-1.138,1.661a5.053,5.053,0,0,0-.389,3.384,12.209,12.209,0,0,0,5.156,7.445,30.8,30.8,0,0,0,8.4,3.848,145.756,145.756,0,0,0,23.825,5.69,22.893,22.893,0,0,1,3.888.8c1.123.377,2.174.94,3.272,1.383a32.852,32.852,0,0,0,8.02,1.751,1.645,1.645,0,0,0,1.338-.213c.442-.411.3-1.125.17-1.715a9.221,9.221,0,0,1,1.083-6.539,4.284,4.284,0,0,0,.961-2.438,2.449,2.449,0,0,0-2.157-1.932,10.805,10.805,0,0,0-3.1.213,1.7,1.7,0,0,1-1.064-.1,2.107,2.107,0,0,1-.413-.366,4.665,4.665,0,0,0-5.433-.759c-.381.213-.957-.262-1.353-.44l-4.469-2.027a105.527,105.527,0,0,0-15.741-6.133,3.306,3.306,0,0,1-1.212-.5c-.27-.213-.464-.5-.713-.738a9.084,9.084,0,0,0-1.948-1.081C636.637,645.148,635.914,644.257,636.067,643.528Z" transform="translate(-506.49 -523.288)"/><path class="h" d="M926.075,746.448a5.324,5.324,0,0,1-3.591,2.491,7.122,7.122,0,0,1-1.136.162,16.783,16.783,0,0,1-5.556-.919l-2.463-.7a7.774,7.774,0,0,0-1.3-.289,8.9,8.9,0,0,0-1.8.062,31.821,31.821,0,0,1-8.722-.391,1.537,1.537,0,0,1-.674-.24,3.353,3.353,0,0,1-.47-.576c-.67-.806-1.391-1.276-.6-2.34.457-.617,1.306-.925,1.661-1.634a3.642,3.642,0,0,0-.083-2.446c-.287-1.01-1.232-1.446-1.57-2.374a1.671,1.671,0,0,1,.813-1.893,3.375,3.375,0,0,1,2.17-.313c.738.1,1.461.306,2.2.364,2.183.174,4.414-.951,6.509-.317.462.14.9.364,1.366.487a4.542,4.542,0,0,0,2.729-.236c.306-.115.606-.253.9-.389a7.279,7.279,0,0,1,1.819-.657c2.044-.351,3.94,1.064,5.482,2.444a7.75,7.75,0,0,1,1.393,1.51,7.581,7.581,0,0,1,.851,2.2C926.584,742.423,927.049,744.64,926.075,746.448Z" transform="translate(-727.536 -598.407)"/><path class="g" d="M989.212,746.416a5.324,5.324,0,0,1-3.591,2.491,6.953,6.953,0,0,0,.755-3.65,11.527,11.527,0,0,0-2.151-5.609,19.865,19.865,0,0,0-2.37-2.887c-.676-.681-1.508-1.221-2.236-1.844a7.281,7.281,0,0,1,1.819-.657c2.044-.351,3.94,1.064,5.482,2.444a7.751,7.751,0,0,1,1.393,1.51,7.581,7.581,0,0,1,.851,2.2C989.72,742.392,990.186,744.608,989.212,746.416Z" transform="translate(-790.673 -598.376)"/><path class="j" d="M694.8,299.667a7.8,7.8,0,0,0-1.7,1.972A9.739,9.739,0,0,1,689.68,305a4.152,4.152,0,0,0-1.557.974,2.626,2.626,0,0,0-.415,1.091,21.624,21.624,0,0,0-.438,4.169,4.633,4.633,0,0,0,.338,2.051,7.024,7.024,0,0,1,.925,1.749,5.3,5.3,0,0,1-.17,1.519,1.286,1.286,0,0,0,.519,1.353,3.147,3.147,0,0,0,.787.185c1.415.315,1.889,1.974,2.1,3.346.481-.028.7-.579.8-1.027l1.474-6.554c.16-.711.425-1.534,1.134-1.783a3.63,3.63,0,0,1,1.489.032c1.946.16,3.593-1.344,5.5-1.759a7.02,7.02,0,0,1,1.853-.121c1.5.074,3.248.691,3.567,2.093.053.228.085.5.3.613s.425.017.659,0c.953-.1,1.515.976,1.789,1.853l1,3.191c.149.483.4,1.051.923,1.113a.964.964,0,0,0,.966-.851,3.727,3.727,0,0,0-.189-1.378c-.47-2.1.249-4.24.687-6.339s.517-4.512-.953-6.129c-.534-.585-1.236-1.021-1.734-1.638-.464-.579-.725-1.289-1.206-1.857-1.329-1.568-4.739-2.778-6.83-2.978C700.614,297.658,696.734,298.265,694.8,299.667Z" transform="translate(-560.512 -254.851)"/><g class="b" transform="translate(126.76 52.508)"><path d="M716.28,357.8c-.523-.064-.774-.638-.923-1.113q-.5-1.6-1-3.191c-.274-.879-.836-1.951-1.789-1.853-.213.023-.464.111-.659,0s-.245-.385-.3-.613c-.319-1.4-2.066-2.019-3.567-2.093a7.112,7.112,0,0,0-1.853.121c-1.914.425-3.55,1.914-5.5,1.759a3.671,3.671,0,0,0-1.489-.03c-.717.247-.974,1.064-1.134,1.783l-1.474,6.552c-.1.451-.317,1-.8,1.027-.213-1.37-.689-3.029-2.1-3.344a3.343,3.343,0,0,1-.787-.185.923.923,0,0,1-.411-.457c-.038.2-.083.4-.108.594a1.291,1.291,0,0,0,.519,1.353,3.145,3.145,0,0,0,.787.185c1.415.315,1.889,1.974,2.1,3.346.481-.028.7-.579.8-1.027l1.474-6.554c.16-.71.425-1.534,1.134-1.783a3.631,3.631,0,0,1,1.489.032c1.946.16,3.593-1.344,5.5-1.759a7.02,7.02,0,0,1,1.844-.121c1.5.074,3.248.691,3.567,2.093.053.228.085.5.3.613s.425.017.659,0c.953-.1,1.515.976,1.789,1.853q.5,1.6,1,3.191c.149.483.4,1.051.923,1.113a.965.965,0,0,0,.966-.851,2.889,2.889,0,0,0-.128-1.13A.879.879,0,0,1,716.28,357.8Z" transform="translate(-691.29 -347.555)"/><path d="M688.544,360.415a7.17,7.17,0,0,0-.925-1.749,3.5,3.5,0,0,1-.315-1.276c0,.238-.021.477-.023.717a4.634,4.634,0,0,0,.338,2.051c.236.483.625.908.821,1.4a3.2,3.2,0,0,0,.1-1.142Z" transform="translate(-687.28 -354.225)"/><path d="M808.534,344.173a18.873,18.873,0,0,0-.8,5.6,36.485,36.485,0,0,1,.8-4.114,10.847,10.847,0,0,0,.247-3.153A13.016,13.016,0,0,1,808.534,344.173Z" transform="translate(-782.08 -342.51)"/></g><path class="e" d="M626.437,542.6c-.257,4.225-3.357,7.715-4.537,11.778a24.587,24.587,0,0,1-.891,3.04,9.6,9.6,0,0,1-4.467,4.354,6.709,6.709,0,0,1-2.2.8,4.216,4.216,0,0,1-4.235-2.253,17.84,17.84,0,0,1-.851-3.191c-.33-1.227-.947-2.359-1.349-3.565a13.005,13.005,0,0,1-.213-6.928,21.271,21.271,0,0,1,2.282-5.65c.149-.262.3-.521.455-.779a17.693,17.693,0,0,1,1.474-2.127,23.513,23.513,0,0,1,4.539-3.886,1.063,1.063,0,0,1,.425-.213h.026a1.028,1.028,0,0,1,.525.123,41.6,41.6,0,0,1,6.456,3.5c.732.487,1.887,1.032,2.27,1.861A7.554,7.554,0,0,1,626.437,542.6Z" transform="translate(-497.575 -440.74)"/><path class="c" d="M641.918,478.088a2.2,2.2,0,0,0-.472.755,35.706,35.706,0,0,0-3,12.257,1.225,1.225,0,0,1-.138.593,2.6,2.6,0,0,1-.313.338,1.174,1.174,0,0,0,.2,1.7,2.287,2.287,0,0,1,1.938-.934c3.576-.283,7.069,1.381,10.655,1.255-.253-.874-.617-1.715-.823-2.6-.913-3.929,1.364-8.207-.032-11.991a3.092,3.092,0,0,0-1.478-1.834,3.938,3.938,0,0,0-.947-.251c-.906-.164-2.71-.864-3.586-.583-.323.1-.451.408-.719.591C642.805,477.65,642.265,477.741,641.918,478.088Z" transform="translate(-521.501 -395.672)"/><path class="g" d="M624.993,558.919a6.273,6.273,0,0,1-5.318,3.087,4.191,4.191,0,0,1-1.7-.313,4.722,4.722,0,0,1-2.412-3.544c-.285-1.459-.2-2.965-.4-4.44-.162-1.174-.506-2.314-.685-3.486-.438-2.9.425-5.763,1.04-8.649.149-.262.3-.521.455-.779a17.687,17.687,0,0,1,1.474-2.127,23.514,23.514,0,0,1,4.539-3.886h-1.7a.291.291,0,0,1,.462.2c.168,1.489,2.268,2.978,2.725,4.425.283.889.623,1.761.851,2.668a21.377,21.377,0,0,1,.408,2.34q.453,3.3.9,6.594C626.01,553.689,626.333,556.584,624.993,558.919Z" transform="translate(-503.11 -441.33)"/><path class="e" d="M617.659,431.643l2.053-6.439a11.177,11.177,0,0,0,.653-2.955,3.786,3.786,0,0,0-.938-2.8,12.171,12.171,0,0,0-2.051-1.344c-1.7-1.147-2.553-3.155-3.44-5s-2.055-3.782-3.991-4.467c-.447-.157-1.064-.17-1.264.257a.9.9,0,0,0-.032.557,6.353,6.353,0,0,0,1.5,2.553,6.349,6.349,0,0,1,1.64,4.62c-.294,1.97-2.063,3.5-2.276,5.478a25.3,25.3,0,0,0,.128,2.625,7.332,7.332,0,0,0,.032,1.632,10.983,10.983,0,0,0,.449,1.208,7.061,7.061,0,0,1,.294,1.959l.449,8.373c.242,4.529-2.214,8.934-1.538,13.4.179,1.172.523,2.312.685,3.487.213,1.474.113,2.978.4,4.439a4.745,4.745,0,0,0,2.412,3.544,4.191,4.191,0,0,0,1.7.313A6.273,6.273,0,0,0,619.846,460c1.34-2.34,1.017-5.231.651-7.9l-.9-6.594a21.362,21.362,0,0,0-.408-2.34c-.225-.906-.566-1.778-.851-2.668C617.423,437.589,616.74,434.532,617.659,431.643Z" transform="translate(-498.593 -341.984)"/><rect class="j" width="47.437" height="30.206" rx="7.97" transform="translate(127.969 90.159)"/><rect class="k" width="47.437" height="30.206" rx="7.97" transform="translate(127.969 90.159)"/><circle class="l" cx="1.276" cy="1.276" r="1.276" transform="translate(150.304 103.986)"/><path class="j" d="M429.758,611h2.576a5.318,5.318,0,0,1,5.318,5.318v7.894H424.44v-7.894A5.318,5.318,0,0,1,429.758,611Z" transform="translate(-334.151 -480.99)"/><path class="g" d="M429.758,611h2.576a5.318,5.318,0,0,1,5.318,5.318v7.894H424.44v-7.894A5.318,5.318,0,0,1,429.758,611Z" transform="translate(-334.151 -480.99)"/><circle class="j" cx="1.057" cy="1.057" r="1.057" transform="translate(95.312 130.804)"/><circle class="j" cx="1.057" cy="1.057" r="1.057" transform="translate(95.312 129.483)"/><circle class="j" cx="1.057" cy="1.057" r="1.057" transform="translate(95.312 128.162)"/><circle class="j" cx="1.057" cy="1.057" r="1.057" transform="translate(95.312 126.841)"/><circle class="j" cx="1.057" cy="1.057" r="1.057" transform="translate(95.312 125.52)"/><circle class="j" cx="1.057" cy="1.057" r="1.057" transform="translate(95.312 124.199)"/><circle class="j" cx="1.057" cy="1.057" r="1.057" transform="translate(95.312 122.878)"/><circle class="j" cx="1.057" cy="1.057" r="1.057" transform="translate(96.897 123.405)"/><circle class="j" cx="1.057" cy="1.057" r="1.057" transform="translate(97.954 122.878)"/><circle class="j" cx="1.057" cy="1.057" r="1.057" transform="translate(99.011 122.348)"/><circle class="j" cx="1.057" cy="1.057" r="1.057" transform="translate(95.312 121.555)"/><circle class="j" cx="1.057" cy="1.057" r="1.057" transform="translate(95.312 120.234)"/><circle class="j" cx="1.057" cy="1.057" r="1.057" transform="translate(95.312 118.913)"/><circle class="j" cx="1.057" cy="1.057" r="1.057" transform="translate(95.312 117.592)"/><path class="c" d="M532.185,623.655c-.262.038-.525.066-.789.083a6.08,6.08,0,0,0,.681-.7,4.516,4.516,0,0,0-.638-1.24,2.173,2.173,0,0,1-.851.268c-.262.038-.525.068-.789.085a14.535,14.535,0,0,0,1.01-1.064,4.488,4.488,0,1,0,1.487,3.329,4.4,4.4,0,0,0-.068-.772Z" transform="translate(-431.436 -508.416)"/><path class="c" d="M566.029,660.183a2.091,2.091,0,0,1-.889.3c-.262.038-.525.066-.789.083a7.739,7.739,0,0,0,.783-.813,2.646,2.646,0,1,0,.9.425Z" transform="translate(-461.747 -539.692)"/><circle class="j" cx="1.057" cy="1.057" r="1.057" transform="translate(93.725 123.405)"/><circle class="j" cx="1.057" cy="1.057" r="1.057" transform="translate(92.668 122.878)"/><circle class="j" cx="1.057" cy="1.057" r="1.057" transform="translate(91.61 122.348)"/><path class="c" d="M503.191,660.183a2.081,2.081,0,0,0,.889.3c.262.038.525.066.789.083a7.535,7.535,0,0,1-.783-.813,2.646,2.646,0,1,1-.9.425Z" transform="translate(-414.737 -539.692)"/><path class="c" d="M429.758,614.73h2.576a5.318,5.318,0,0,1,5.318,5.318v6.992a.9.9,0,0,1-.9.9H425.342a.9.9,0,0,1-.9-.9v-6.992A5.318,5.318,0,0,1,429.758,614.73Z" transform="translate(-334.151 -483.926)"/><g class="b" transform="translate(91.938 111.57)"><path d="M564.12,638.77a4.007,4.007,0,0,1-.34.323,3.426,3.426,0,0,0,.362-.032C564.137,638.964,564.131,638.866,564.12,638.77Z" transform="translate(-555.229 -634.812)"/><path d="M556.32,629.571c.266-.017.528-.045.791-.083a2.552,2.552,0,0,0,.687-.187,4.669,4.669,0,0,0-.37-.611,1.6,1.6,0,0,1-.425.181A6.121,6.121,0,0,1,556.32,629.571Z" transform="translate(-549.355 -626.877)"/><path d="M524.046,625.129a4.484,4.484,0,0,1,6.913-3.778l.068-.072a4.488,4.488,0,1,0-5.918,6.75,4.467,4.467,0,0,1-1.063-2.9Z" transform="translate(-523.58 -620.165)"/></g><g class="b" transform="translate(100.068 119.97)"><path d="M573.72,662.985c.264-.017.528-.045.789-.083a2.065,2.065,0,0,0,.889-.3,2.644,2.644,0,0,1,1.064,1.872,2.415,2.415,0,0,0,.015-.279,2.633,2.633,0,0,0-1.064-2.127,2.091,2.091,0,0,1-.889.3l-.213.026A5.394,5.394,0,0,1,573.72,662.985Z" transform="translate(-571.184 -661.555)"/><path d="M564.442,660.177a2.167,2.167,0,0,1,.264.019c.138-.147.274-.3.413-.457a2.638,2.638,0,0,0-3.318,2.553,1.812,1.812,0,0,0,.013.264A2.642,2.642,0,0,1,564.442,660.177Z" transform="translate(-561.8 -659.65)"/></g><g class="b" transform="translate(87.375 119.97)"><path d="M504.887,662.985c-.264-.017-.528-.045-.789-.083a2.053,2.053,0,0,1-.889-.3,2.644,2.644,0,0,0-1.064,1.872,2.422,2.422,0,0,1-.015-.279,2.634,2.634,0,0,1,1.064-2.127,2.081,2.081,0,0,0,.889.3l.213.026A5.036,5.036,0,0,0,504.887,662.985Z" transform="translate(-502.13 -661.555)"/><path d="M512.086,660.177a2.189,2.189,0,0,0-.266.019c-.136-.147-.272-.3-.411-.457a2.638,2.638,0,0,1,3.318,2.553,1.812,1.812,0,0,1-.013.264A2.642,2.642,0,0,0,512.086,660.177Z" transform="translate(-509.436 -659.65)"/></g><path class="l" d="M0,0H76.075V18.719H0Z" transform="translate(72.636 15.253)"/><path class="m" d="M9.36,0h60.2a9.36,9.36,0,1,1,0,18.719H9.36A9.36,9.36,0,0,1,9.36,0Z" transform="translate(69.636 14.253)"/><text class="n" transform="translate(87.003 17.45)"><tspan x="11.235" y="11">100%</tspan></text></g></svg>