<svg xmlns="http://www.w3.org/2000/svg" xmlns:xlink="http://www.w3.org/1999/xlink" width="264" height="264" viewBox="0 0 264 264"><defs><style>.a,.e{fill:#28ae00;}.a{opacity:0.09;}.b{fill:tomato;}.c{fill:#f60;}.d{fill:url(#a);}.f{fill:url(#b);}.g{opacity:0.2;}</style><linearGradient id="a" x1="0.5" y1="1" x2="0.5" gradientUnits="objectBoundingBox"><stop offset="0" stop-opacity="0.122"/><stop offset="0.551" stop-opacity="0.09"/><stop offset="1" stop-opacity="0.02"/></linearGradient><linearGradient id="b" x1="14.124" y1="-1.935" x2="14.124" y2="-2.759" gradientUnits="objectBoundingBox"><stop offset="0" stop-color="gray" stop-opacity="0.251"/><stop offset="0.535" stop-color="gray" stop-opacity="0.122"/><stop offset="1" stop-color="gray" stop-opacity="0.102"/></linearGradient></defs><g transform="translate(-784 -411)"><circle class="a" cx="132" cy="132" r="132" transform="translate(784 411)"/><g transform="translate(881 448)"><path class="b" d="M25.035,82.114,0,53.675,74.9,0l74.9,53.675L124.373,82.114Z"/><path class="c" d="M25.035,82.114,0,53.675,74.9,0l74.9,53.675L124.373,82.114Z"/><rect class="b" width="146" height="64" transform="translate(0 57)"/><rect class="d" width="146" height="64" transform="translate(0 57)"/><path class="c" d="M149.808,358.325H0V268l74.9,45.263L149.808,268Z" transform="translate(0 -214.325)"/><path class="e" d="M279.1,68.173,263.217,55.99,221.13,110.877,197.756,92.953l-12.183,15.888,31.316,23.977h0l8.031,6.019Z" transform="translate(-148.407 -44.776)"/><path class="f" d="M.775,110.442l-.6.291.068-.122-.052.017.073-.054L8.285,96.307l4.1,3.494,3.515,3.255-1.009.493,1.135,2Z" transform="translate(-0.143 -77.019)"/><path class="b" d="M13.762,115.617l3.213,2.979L2.411,125.837l7.751-9.934Z" transform="translate(-1.928 -92.461)"/><path class="g" d="M13.762,115.617l3.213,2.979L2.411,125.837l7.751-9.934Z" transform="translate(-1.928 -92.461)"/><path class="b" d="M10.014,99.66l-7.6,13.416,11.351-10.22Z" transform="translate(-1.928 -79.7)"/><path class="b" d="M17.131,124.839,2.489,129.676l12.24-9.137Z" transform="translate(-1.991 -96.398)"/><path class="b" d="M674.15,34.107l-3.208,5.562,23.521,3.83L679.314,32.949Z" transform="translate(-536.567 -26.35)"/><path class="g" d="M674.15,34.107l-3.208,5.562,23.521,3.83L679.314,32.949Z" transform="translate(-536.567 -26.35)"/><path class="b" d="M690.822,8.293l16.45,15.487-20.313-9.391Z" transform="translate(-549.376 -6.632)"/><path class="b" d="M675.274,54.635l22.589.432-21.088-7.49Z" transform="translate(-540.031 -38.048)"/></g></g></svg>