<svg xmlns="http://www.w3.org/2000/svg" xmlns:xlink="http://www.w3.org/1999/xlink" width="433" height="408" viewBox="0 0 433 408"><defs><style>.a,.e{fill:#ef2e41;}.b,.r{fill:none;}.c,.f,.k,.m{fill:#fff;}.c{stroke:#ef2e41;}.c,.f{stroke-width:2px;}.d{clip-path:url(#a);}.e{fill-rule:evenodd;}.f{stroke:#f60;}.g{fill:#373c41;}.h{fill:#748488;}.i{fill:#55696e;}.j{fill:#ba6746;}.l{fill:#a56941;}.m{stroke:#000;}.n{fill:#c8462d;}.o,.p,.q{stroke:none;}.p{fill:#522da3;}.q{fill:#522da4;}</style><clipPath id="a"><path class="a" d="M373.638-724.137H507.07v-60.7H373.638Z" transform="translate(-373.638 784.838)"/></clipPath></defs><g transform="translate(-731 -3608)"><g class="b" transform="translate(756 3608)"><path class="o" d="M204,0C316.666,0,408,91.334,408,204S316.666,408,204,408,0,316.666,0,204,91.334,0,204,0Z"/><path class="p" d="M 204 3 C 190.3604278564453 3 176.7303161621094 4.37396240234375 163.4883117675781 7.0836181640625 C 150.5843200683594 9.724151611328125 137.8915710449219 13.66421508789063 125.7626342773438 18.79437255859375 C 113.8532104492188 23.83163452148438 102.3663024902344 30.0665283203125 91.62106323242188 37.32583618164063 C 80.97711181640625 44.51678466796875 70.96795654296875 52.77511596679688 61.87152099609375 61.87152099609375 C 52.77511596679688 70.96795654296875 44.51678466796875 80.97711181640625 37.32583618164063 91.62106323242188 C 30.0665283203125 102.3663024902344 23.83163452148438 113.8532104492188 18.79437255859375 125.7626342773438 C 13.66421508789063 137.8915710449219 9.724151611328125 150.5843200683594 7.0836181640625 163.4883117675781 C 4.37396240234375 176.7303161621094 3 190.3604278564453 3 204 C 3 217.6395263671875 4.37396240234375 231.2696380615234 7.0836181640625 244.5116882324219 C 9.724151611328125 257.4156494140625 13.66421508789063 270.1083679199219 18.79437255859375 282.2373046875 C 23.83163452148438 294.1467895507813 30.0665283203125 305.6336364746094 37.32583618164063 316.37890625 C 44.51678466796875 327.0228271484375 52.77511596679688 337.0320434570313 61.87152099609375 346.1284790039063 C 70.96795654296875 355.224853515625 80.97711181640625 363.4832153320313 91.62106323242188 370.6741027832031 C 102.3663024902344 377.9334716796875 113.8532104492188 384.1683654785156 125.7626342773438 389.2056274414063 C 137.8915710449219 394.3357849121094 150.5843200683594 398.2757873535156 163.4883117675781 400.9163818359375 C 176.7303161621094 403.6260375976563 190.3604278564453 405 204 405 C 217.6395263671875 405 231.2696380615234 403.6260375976563 244.5116882324219 400.9163818359375 C 257.4156494140625 398.2757873535156 270.1083679199219 394.3357849121094 282.2373046875 389.2056274414063 C 294.146728515625 384.1683654785156 305.6336364746094 377.9334716796875 316.37890625 370.6741027832031 C 327.0228271484375 363.4832153320313 337.0320434570313 355.224853515625 346.1284790039063 346.1284790039063 C 355.224853515625 337.0320434570313 363.4832153320313 327.0228271484375 370.6741027832031 316.37890625 C 377.9334716796875 305.6336364746094 384.1683654785156 294.146728515625 389.2056274414063 282.2373046875 C 394.3357849121094 270.1083679199219 398.2757873535156 257.4156494140625 400.9163818359375 244.5116882324219 C 403.6260375976563 231.2696380615234 405 217.6395263671875 405 204 C 405 190.3604278564453 403.6260375976563 176.7303161621094 400.9163818359375 163.4883117675781 C 398.2757873535156 150.5843200683594 394.3357849121094 137.8915710449219 389.2056274414063 125.7626342773438 C 384.1683654785156 113.8532104492188 377.9334716796875 102.3663024902344 370.6741027832031 91.62106323242188 C 363.4832153320313 80.97711181640625 355.224853515625 70.96795654296875 346.1284790039063 61.87152099609375 C 337.0320434570313 52.77511596679688 327.0228271484375 44.51678466796875 316.37890625 37.32583618164063 C 305.6336364746094 30.0665283203125 294.1467895507813 23.83163452148438 282.2373046875 18.79437255859375 C 270.1083679199219 13.66421508789063 257.4156494140625 9.724151611328125 244.5116882324219 7.0836181640625 C 231.2696380615234 4.37396240234375 217.6395263671875 3 204 3 M 204 0 C 316.6660461425781 0 408 91.33389282226563 408 204 C 408 316.6660461425781 316.6660461425781 408 204 408 C 91.33389282226563 408 0 316.6660461425781 0 204 C 0 91.33389282226563 91.33389282226563 0 204 0 Z"/></g><g class="b" transform="translate(813 3662.965)"><path class="o" d="M146.826,0c81.09,0,146.826,65.551,146.826,146.413S227.916,292.826,146.826,292.826,0,227.274,0,146.413,65.736,0,146.826,0Z"/><path class="p" d="M 146.8261566162109 2.999969482421875 C 137.0652313232422 2.999969482421875 127.3113098144531 3.98040771484375 117.8353424072266 5.913970947265625 C 108.6018524169922 7.798126220703125 99.51954650878906 10.60952758789063 90.84065246582031 14.27001953125 C 82.31881713867188 17.86431884765625 74.09930419921875 22.31317138671875 66.41043090820313 27.49307250976563 C 58.79400634765625 32.6241455078125 51.63177490234375 38.51690673828125 45.12272644042969 45.00762939453125 C 38.61381530761719 51.49821472167969 32.70462036132813 58.6400146484375 27.55926513671875 66.23468017578125 C 22.365234375 73.9012451171875 17.90420532226563 82.09683227539063 14.3001708984375 90.59378051757813 C 10.62982177734375 99.24702453613281 7.8109130859375 108.3024749755859 5.921722412109375 117.5085906982422 C 3.983001708984375 126.9562530517578 3 136.6810607910156 3 146.4128265380859 C 3 156.1445922851563 3.983001708984375 165.8694000244141 5.921722412109375 175.3170471191406 C 7.8109130859375 184.5231628417969 10.62982177734375 193.5785980224609 14.3001708984375 202.2318267822266 C 17.90420532226563 210.7287902832031 22.365234375 218.9243621826172 27.55926513671875 226.5909423828125 C 32.70462036132813 234.1855926513672 38.61381530761719 241.3274078369141 45.12272644042969 247.8179779052734 C 51.63177490234375 254.3087463378906 58.79400634765625 260.2014770507813 66.41043090820313 265.3325500488281 C 74.09930419921875 270.512451171875 82.31881713867188 274.9613037109375 90.84065246582031 278.5556030273438 C 99.51954650878906 282.2161254882813 108.6018524169922 285.0274658203125 117.8353424072266 286.91162109375 C 127.3113098144531 288.84521484375 137.0652313232422 289.8256225585938 146.8261566162109 289.8256225585938 C 156.5870819091797 289.8256225585938 166.3410034179688 288.84521484375 175.8169555664063 286.91162109375 C 185.0504608154297 285.0274658203125 194.1327819824219 282.2161254882813 202.8116455078125 278.5556030273438 C 211.33349609375 274.9613037109375 219.5530090332031 270.512451171875 227.2418823242188 265.3325500488281 C 234.8583068847656 260.2014770507813 242.0205383300781 254.3087463378906 248.5295715332031 247.8179779052734 C 255.0384979248047 241.3274078369141 260.9476928710938 234.1855926513672 266.0930480957031 226.5909423828125 C 271.2870788574219 218.9243621826172 275.7481079101563 210.7287902832031 279.3521423339844 202.2318267822266 C 283.0224914550781 193.5785980224609 285.8414001464844 184.5231628417969 287.7305908203125 175.3170471191406 C 289.6693115234375 165.8694000244141 290.6523132324219 156.1445922851563 290.6523132324219 146.4128265380859 C 290.6523132324219 136.6810607910156 289.6693115234375 126.9562530517578 287.7305908203125 117.5085906982422 C 285.8414001464844 108.3024749755859 283.0224914550781 99.24702453613281 279.3521423339844 90.59378051757813 C 275.7481079101563 82.09683227539063 271.2870788574219 73.9012451171875 266.0930480957031 66.23468017578125 C 260.9476928710938 58.6400146484375 255.0384979248047 51.49821472167969 248.5295715332031 45.00762939453125 C 242.0205383300781 38.51690673828125 234.8583068847656 32.6241455078125 227.2418823242188 27.49307250976563 C 219.5530090332031 22.31317138671875 211.33349609375 17.86431884765625 202.8116455078125 14.27001953125 C 194.1327819824219 10.60952758789063 185.0504608154297 7.798126220703125 175.8169555664063 5.913970947265625 C 166.3410034179688 3.98040771484375 156.5870819091797 2.999969482421875 146.8261566162109 2.999969482421875 M 146.8261566162109 -3.0517578125e-05 C 227.9160003662109 -3.0517578125e-05 293.6523132324219 65.55125427246094 293.6523132324219 146.4128265380859 C 293.6523132324219 227.2743682861328 227.9160003662109 292.8256225585938 146.8261566162109 292.8256225585938 C 65.73631286621094 292.8256225585938 0 227.2743682861328 0 146.4128265380859 C 0 65.55125427246094 65.73631286621094 -3.0517578125e-05 146.8261566162109 -3.0517578125e-05 Z"/></g><g class="b" transform="translate(868 3720.384)"><path class="o" d="M92.147,0A92.147,92.147,0,1,1,0,92.147,92.147,92.147,0,0,1,92.147,0Z"/><path class="q" d="M 92.146728515625 2.999984741210938 C 86.09628295898438 2.999984741210938 80.05051422119141 3.609359741210938 74.17738342285156 4.811172485351563 C 68.45501708984375 5.982147216796875 62.82636260986328 7.729385375976563 57.44773101806641 10.00436401367188 C 52.16604614257813 12.23831176757813 47.0716552734375 15.00349426269531 42.30604553222656 18.22306823730469 C 37.58491516113281 21.41259765625 33.14527893066406 25.07565307617188 29.11045837402344 29.11045837402344 C 25.07565307617188 33.14527893066406 21.41259765625 37.58491516113281 18.22306823730469 42.30604553222656 C 15.00349426269531 47.0716552734375 12.23831176757813 52.16604614257813 10.00436401367188 57.44773101806641 C 7.729385375976563 62.82636260986328 5.982147216796875 68.45501708984375 4.811172485351563 74.17738342285156 C 3.609359741210938 80.05051422119141 2.999984741210938 86.09628295898438 2.999984741210938 92.146728515625 C 2.999984741210938 98.19717407226563 3.609359741210938 104.2429428100586 4.811172485351563 110.1160736083984 C 5.982147216796875 115.8384094238281 7.729385375976563 121.4671020507813 10.00436401367188 126.8457336425781 C 12.23831176757813 132.1273803710938 15.00349426269531 137.2217864990234 18.22306823730469 141.9874114990234 C 21.41259765625 146.7085418701172 25.07565307617188 151.1481475830078 29.11045837402344 155.1829833984375 C 33.14527893066406 159.2178039550781 37.58491516113281 162.880859375 42.30604553222656 166.0703887939453 C 47.0716552734375 169.2899627685547 52.16604614257813 172.0551452636719 57.44773101806641 174.2890930175781 C 62.82636260986328 176.5640716552734 68.45501708984375 178.3113098144531 74.17738342285156 179.4822845458984 C 80.05051422119141 180.6840972900391 86.09628295898438 181.2934722900391 92.146728515625 181.2934722900391 C 98.19717407226563 181.2934722900391 104.2429428100586 180.6840972900391 110.1160736083984 179.4822845458984 C 115.8384094238281 178.3113098144531 121.4671020507813 176.5640716552734 126.8457336425781 174.2890930175781 C 132.1273803710938 172.0551452636719 137.2217864990234 169.2899627685547 141.9874114990234 166.0703887939453 C 146.7085266113281 162.880859375 151.1481475830078 159.2178039550781 155.1829833984375 155.1829833984375 C 159.2178039550781 151.1481475830078 162.880859375 146.7085266113281 166.0703887939453 141.9874114990234 C 169.2899627685547 137.2217864990234 172.0551452636719 132.1273803710938 174.2890930175781 126.8457336425781 C 176.5640716552734 121.4671020507813 178.3113098144531 115.8384094238281 179.4822845458984 110.1160736083984 C 180.6840972900391 104.2429428100586 181.2934722900391 98.19717407226563 181.2934722900391 92.146728515625 C 181.2934722900391 86.09628295898438 180.6840972900391 80.05051422119141 179.4822845458984 74.17738342285156 C 178.3113098144531 68.45501708984375 176.5640716552734 62.82636260986328 174.2890930175781 57.44773101806641 C 172.0551452636719 52.16604614257813 169.2899627685547 47.0716552734375 166.0703887939453 42.30604553222656 C 162.880859375 37.58491516113281 159.2178039550781 33.14527893066406 155.1829833984375 29.11045837402344 C 151.1481475830078 25.07565307617188 146.7085418701172 21.41259765625 141.9874114990234 18.22306823730469 C 137.2217864990234 15.00349426269531 132.1273803710938 12.23831176757813 126.8457336425781 10.00436401367188 C 121.4671020507813 7.729385375976563 115.8384094238281 5.982147216796875 110.1160736083984 4.811172485351563 C 104.2429428100586 3.609359741210938 98.19717407226563 2.999984741210938 92.146728515625 2.999984741210938 M 92.146728515625 -1.52587890625e-05 C 143.0379333496094 -1.52587890625e-05 184.2934722900391 41.2554931640625 184.2934722900391 92.146728515625 C 184.2934722900391 143.0379333496094 143.0379333496094 184.2934722900391 92.146728515625 184.2934722900391 C 41.2554931640625 184.2934722900391 -1.52587890625e-05 143.0379333496094 -1.52587890625e-05 92.146728515625 C -1.52587890625e-05 41.2554931640625 41.2554931640625 -1.52587890625e-05 92.146728515625 -1.52587890625e-05 Z"/></g><circle class="a" cx="11.5" cy="11.5" r="11.5" transform="translate(1085 3749)"/><circle class="a" cx="11.5" cy="11.5" r="11.5" transform="translate(831 3964)"/><g class="c" transform="translate(988 3644)"><circle class="o" cx="35.5" cy="35.5" r="35.5"/><circle class="r" cx="35.5" cy="35.5" r="34.5"/></g><g transform="translate(802.605 3523.646)"><g transform="translate(81.395 247.88)"><g class="d" transform="translate(0 0)"><g transform="translate(53.272 32.445)"><path class="a" d="M-5.7-2.468A4.759,4.759,0,0,1-.814,2.508,6.052,6.052,0,0,1-6.642,8.845c-2.967,0-4.894-2.005-4.894-5.121A5.909,5.909,0,0,1-5.7-2.468M-6.953,13.8A11.409,11.409,0,0,0,2.017,9.837a11.671,11.671,0,0,0,2.8-7.8c0-5.546-4.049-9.45-10.185-9.45a11.583,11.583,0,0,0-9,3.931,11.752,11.752,0,0,0-2.771,7.807,9.358,9.358,0,0,0,3.085,7.1,10.4,10.4,0,0,0,7.1,2.374" transform="translate(17.136 7.414)"/></g><g transform="translate(76.976 32.896)"><path class="a" d="M-1.6,0H4.571L8.842,9.983A18.514,18.514,0,0,1,10,13.29v-.5a20.08,20.08,0,0,1,.259-2.853L11.813,0h5.408L14.015,20.231H8.083l-4.53-10.3a18.18,18.18,0,0,1-1.19-3.318v.569a21.784,21.784,0,0,1-.222,2.8L.608,20.231h-5.4Z" transform="translate(4.793)"/></g><g transform="translate(100.744 32.413)"><path class="a" d="M-8.311-3.5a8.161,8.161,0,0,0-5.371-2.04c-3.342,0-5.776,2.577-5.776,6.223,0,3.256,1.869,5.155,5.235,5.155a11.711,11.711,0,0,0,4.61-1.052l-.852,5.233a16.006,16.006,0,0,1-4.972.686c-5.826,0-9.53-3.939-9.53-9.8A11.922,11.922,0,0,1-22.343-6.7a11.041,11.041,0,0,1,8.885-3.818A13.1,13.1,0,0,1-7.4-9.076Z" transform="translate(24.967 10.52)"/></g><g transform="translate(118.562 32.896)"><path class="a" d="M-1.595,0H10.087L9.359,4.636H3.076L2.534,7.978H8.418l-.705,4.355H1.86l-1.244,7.9H-4.79Z" transform="translate(4.79)"/></g><g transform="translate(127.693 55.994)"><path class="a" d="M-.562-1.234A6.8,6.8,0,0,0-1.107-2.25a7.577,7.577,0,0,1-.554-1l-.026-.106.222-.347c.047.1.2.392.479.88a7.832,7.832,0,0,1,.425.884,1.566,1.566,0,0,1,.123.589l0,.121Z" transform="translate(1.687 3.707)"/></g><g transform="translate(125.935 55.779)"><path class="a" d="M0-1.094l.28.013.289.011c.261,0,.39-.058.39-.179l-.017-.1A4.461,4.461,0,0,0,.487-2.1a4.893,4.893,0,0,1-.448-.752L0-3.015l.2-.272.511.369-.136.235.032.147a3.776,3.776,0,0,0,.334.6,3.839,3.839,0,0,1,.334.591l.088.367c0,.172-.11.28-.319.336A4.66,4.66,0,0,1,.194-.6Z" transform="translate(0 3.287)"/></g><g transform="translate(122.598 57.353)"><path class="a" d="M-.783-.095c-.08,0-.138.1-.177.3A1.848,1.848,0,0,0-.41.449L-.371.334-.52.093-.783-.095m-1.57.429h.485A.876.876,0,0,0-1.281.177l.179-.3.259-.16a1.514,1.514,0,0,1,.507.231c.349.2.526.293.535.3a2.777,2.777,0,0,0,.955.088L1.34.828H.84L.51.82.2.688q.019.3-.272.3A1.3,1.3,0,0,1-.624.811C-.645.8-.816.714-1.133.544l-.241.246-.3.054L-1.881.832l-.28,0Z" transform="translate(2.353 0.284)"/></g><g transform="translate(118.611 55.389)"><path class="a" d="M0-1.289l.274.011.511,0c.776,0,1.141-.058,1.091-.183-.028-.065-.168-.151-.431-.254C1-1.88.748-1.968.718-1.988a.886.886,0,0,1-.483-.384L.2-2.529c0-.448.763-.9,2.3-1.343a.7.7,0,0,1-.19.541,1.662,1.662,0,0,1-.571.265c-.438.134-.742.239-.919.308-.33.136-.476.239-.451.3A3.588,3.588,0,0,0,.895-2.3c.4.106.619.168.658.185a7.11,7.11,0,0,1,.921.392,5.216,5.216,0,0,0,.744.306,3.3,3.3,0,0,0,.964.123l.2.5H3.795a2.629,2.629,0,0,1-.938-.349c-.3-.162-.6-.326-.91-.487l.2.427c0,.289-.386.431-1.151.431L.563-.78.192-.793Z" transform="translate(0 3.872)"/></g><g transform="translate(96.246 56.938)"><path class="a" d="M-10.5-.285l.155-.265.468.194.125-.293-.5-.207-.125.257-.477-.2-.116.317.468.2m-20.58,3.193.153-.259.468.194.125-.3-.5-.2-.129.254-.47-.2-.114.319.464.192M-11.021.67l.285,0,.239,0,.341-.052L-9.927.4l.265.22.367.06.561-.006-.2-.5L-9.19.187l-.2,0L-9.66.146l-.2-.2L-9.9-.063a.82.82,0,0,1-.714.254l-.293,0-.313-.011.2.494Z" transform="translate(31.545 0.856)"/></g><g transform="translate(111.787 57.161)"><path class="a" d="M-1.232-1.031l.116-.293.492.19-.125.323-.483-.22M1.532-1.79H1.3l-.19.013-.185,0A.848.848,0,0,1,.3-2.016a5.412,5.412,0,0,1-1.992.4A3.72,3.72,0,0,1-2.866-1.79a1.161,1.161,0,0,1-.791-.636L-3.7-2.641l.14-.455.082.024-.043.31c.095.235.364.41.806.52a4.656,4.656,0,0,0,1.1.121A7.911,7.911,0,0,0-.592-2.176a1.065,1.065,0,0,0,.748-.351l.063.013a.686.686,0,0,0,.627.244l.259,0,.233-.011.194.5Z" transform="translate(3.701 3.096)"/></g><g transform="translate(108.115 55.994)"><path class="a" d="M-.565-1.234a7.889,7.889,0,0,0-.55-1.016,7.1,7.1,0,0,1-.554-1L-1.7-3.36l.22-.347c.047.1.213.392.483.88.192.362.336.658.429.884a1.689,1.689,0,0,1,.116.589l-.006.121Z" transform="translate(1.697 3.707)"/></g><g transform="translate(106.358 55.779)"><path class="a" d="M0-1.094l.282.013.287.011c.261,0,.39-.058.39-.179l-.019-.1A4.966,4.966,0,0,0,.492-2.1a4.9,4.9,0,0,1-.455-.752l-.03-.166.2-.272.5.369-.127.235.034.147a3.55,3.55,0,0,0,.332.6,4.652,4.652,0,0,1,.339.591l.082.367c0,.172-.106.28-.319.336A4.6,4.6,0,0,1,.192-.6Z" transform="translate(0 3.287)"/></g><g transform="translate(103.599 57.295)"><path class="a" d="M-.652-.338h.2l-.2-.142L-.9-.551l-.121.1c.032.08.153.114.367.114m1.716.5H-.152l.011.218c0,.589-.259.888-.774.888a3.114,3.114,0,0,1-1.044-.252l.03-.047c.28.024.416.034.388.034A1.317,1.317,0,0,0-.7.742,1.566,1.566,0,0,0-.3.158,1.33,1.33,0,0,1-1,.037a.546.546,0,0,1-.166-.474c0-.384.1-.578.319-.578.147,0,.341.226.582.677H.872Z" transform="translate(1.959 1.015)"/></g><g transform="translate(100.098 55.759)"><path class="a" d="M-1.016-.876a.794.794,0,0,0-.765.442c.257-.013.515-.039.785-.073.423-.06.612-.125.58-.2L-.679-.839l-.336-.037m-2.035.457c.479,0,.787,0,.912-.011l-.026-.321a4.041,4.041,0,0,0-.423-.7,3.213,3.213,0,0,1-.41-.7l-.03-.134.183-.349.5.382-.125.308.144.351a2.9,2.9,0,0,1,.211.364,3.354,3.354,0,0,1,.153.567A1,1,0,0,1-1-1.363l.515.127.306.315.045.209c0,.524-.906.789-2.734.789Z" transform="translate(3.051 2.631)"/></g><g transform="translate(97.982 56.984)"><path class="a" d="M-.325-.155-.2-.465l.5.209-.121.3-.507-.2M-.976.522l.313.011.293,0A.816.816,0,0,0,.341.283l.05.006.2.2.28.045.22,0L1.381.522l.19.5-.625.006L.581.964.318.744.085.973l-.336.052-.239,0-.287,0-.2-.494Z" transform="translate(0.976 0.465)"/></g><g transform="translate(94.966 57.971)"><path class="a" d="M-1.7-.247H-2.732c-.282,0-.408.032-.384.11l.3.1a3.288,3.288,0,0,1,.53.123.534.534,0,0,1,.369.287L-1.9.453c0,.179-.209.33-.61.459a3.156,3.156,0,0,1-.964.166A2.412,2.412,0,0,1-4.435.893,1.066,1.066,0,0,1-5.041.33L-5.11-.056a2.587,2.587,0,0,1,.069-.5l.116.034a.683.683,0,0,0,0,.492.845.845,0,0,0,.569.476A2.354,2.354,0,0,0-3.5.593,7.234,7.234,0,0,0-2.764.546c.4-.041.589-.1.556-.172l-.1-.034C-2.531.324-2.751.307-2.962.3A.554.554,0,0,1-3.454.018l-.043-.2q0-.563,1.606-.556Z" transform="translate(5.11 0.743)"/></g><g transform="translate(91.27 55.779)"><path class="a" d="M0-1.094l.285.013.285.011c.261,0,.39-.058.39-.179l-.019-.1A4.458,4.458,0,0,0,.492-2.1a4.261,4.261,0,0,1-.448-.752L.009-3.015l.2-.272.507.369-.14.235.039.147a4.038,4.038,0,0,0,.33.6,3.492,3.492,0,0,1,.341.591l.086.367c0,.172-.108.28-.323.336A4.64,4.64,0,0,1,.19-.6Z" transform="translate(0 3.287)"/></g><g transform="translate(89.138 55.85)"><path class="a" d="M0-1.059a3.546,3.546,0,0,0,.614-.017L.8-1.268l-.08-.31a6.679,6.679,0,0,0-.3-.61C.285-2.467.192-2.667.138-2.8L.132-2.85l.114-.17L.4-3.18c.183.384.472.955.878,1.714l.177.257.339.151h.55l.192.5H1.988A.914.914,0,0,1,1.4-.753l-.336-.388.022.2L.906-.612a2.068,2.068,0,0,1-.714.05Z" transform="translate(0 3.18)"/></g><g transform="translate(84.367 57.631)"><path class="a" d="M0-.17l.291.011.267,0a.776.776,0,0,0,.686-.257h.039l.132.183L1.69-.17a2.125,2.125,0,0,0,.515-.041l.278-.3L2.574-.5l.388.259.222-.073L3.223-.5h.082l.358.276.414.063L4.743-.17h.218l.2.5H4.172L3.687.19,3.346-.118l-.08.25-.278.14L2.689.19l-.2-.175L2.3.259a.914.914,0,0,1-.416.067A.9.9,0,0,1,1.212.052l-.2.237L.705.347.468.339.19.326Z" transform="translate(0 0.511)"/></g><g transform="translate(80.376 55.389)"><path class="a" d="M0-1.289l.28.011.5,0c.785,0,1.149-.058,1.1-.183-.024-.065-.168-.151-.427-.254-.455-.168-.7-.257-.735-.276a.9.9,0,0,1-.481-.384L.2-2.529Q.2-3.2,2.5-3.872a.678.678,0,0,1-.2.541,1.617,1.617,0,0,1-.574.265c-.433.134-.737.239-.912.308-.33.136-.483.239-.457.3A4.19,4.19,0,0,0,.9-2.3c.4.106.617.168.66.185a7.656,7.656,0,0,1,.921.392,4.916,4.916,0,0,0,.74.306,3.332,3.332,0,0,0,.964.123l.2.5H3.8a2.657,2.657,0,0,1-.938-.349c-.3-.162-.6-.326-.91-.487l.2.427c0,.289-.386.431-1.151.431L.563-.78.194-.793Z" transform="translate(0 3.872)"/></g><g transform="translate(75.704 55.871)"><path class="a" d="M-.777-.7l-.289-.073-.313-.147L-1.4-1.042c0-.185.136-.351.416-.479l.164.218c-.233.056-.343.108-.323.16l.19.093c.2.028.306.045.313.045l.22.177L-.4-.734-.535-.5l-.323.1A2.28,2.28,0,0,1-1.473-.54l.4-.045c.213-.037.31-.073.3-.11M2.77.508l-.3,0a1.489,1.489,0,0,1-.6-.091A2.149,2.149,0,0,1,1.4-.016.733.733,0,0,1,.782.616,6.523,6.523,0,0,1-.544.706,3.754,3.754,0,0,1-1.65.594,1,1,0,0,1-2.282-.04l-.052-.274.084-.3.093.043,0,.267c.071.183.308.317.716.395A4.658,4.658,0,0,0-.531.176,11.182,11.182,0,0,0,.623.135c.334-.063.5-.2.5-.431L1.045-.609A5.524,5.524,0,0,0,.767-1.2c-.144-.267-.244-.461-.3-.6l.05-.289a1.919,1.919,0,0,1,.548.729c.16.308.319.61.479.916.185.3.369.457.55.457h.489Z" transform="translate(2.334 2.088)"/></g><g transform="translate(72.03 55.994)"><path class="a" d="M-.563-1.234a6.716,6.716,0,0,0-.55-1.016,7.423,7.423,0,0,1-.55-1L-1.69-3.36l.216-.347c.054.1.216.392.483.88a7.622,7.622,0,0,1,.429.884,1.562,1.562,0,0,1,.121.589l-.011.121Z" transform="translate(1.69 3.707)"/></g><g transform="translate(70.272 55.779)"><path class="a" d="M0-1.094l.28.013.287.011c.263,0,.392-.058.392-.179l-.022-.1A4.36,4.36,0,0,0,.487-2.1a5.148,5.148,0,0,1-.451-.752L0-3.015l.2-.272.5.369-.132.235.03.147a4.257,4.257,0,0,0,.33.6,3.542,3.542,0,0,1,.343.591l.086.367c0,.172-.106.28-.317.336A4.727,4.727,0,0,1,.188-.6Z" transform="translate(0 3.287)"/></g><g transform="translate(66.239 57.11)"><path class="a" d="M0-.43c.543,0,.875,0,.994-.017A3.78,3.78,0,0,0,1.826-.68a4.76,4.76,0,0,0-.8-.125,2.8,2.8,0,0,0-.485.071l.063-.39a.543.543,0,0,1,.474-.168,2.534,2.534,0,0,1,.63.1c.323.071.541.114.643.127a9.03,9.03,0,0,0,.968.043l.058.379-.457.032a1.155,1.155,0,0,0,.761.2L4-.417,4.291-.43l.188.5H3.7c-.567,0-.906-.116-1-.349l0-.328h-.2a1.084,1.084,0,0,0-.535.168l-.55.326A1.557,1.557,0,0,1,.7.066h-.5Z" transform="translate(0 1.293)"/></g><g transform="translate(63.665 56.454)"><path class="a" d="M-1.419-.757h-.548a.84.84,0,0,1-.6-.328,3.055,3.055,0,0,1-.453-.66l-.276-.53-.181.334.024.121.224.369L-3-1.079l.026.108-.172.138a3.319,3.319,0,0,1-.379.011l-.364-.045-.252-.194h-.084a.972.972,0,0,0,0,.526c.06.153.261.224.61.224a1.109,1.109,0,0,0,.582-.114l.259-.345a1.654,1.654,0,0,0,.487.427,1.4,1.4,0,0,0,.565.088h.226l.267,0Z" transform="translate(4.262 2.275)"/></g><g transform="translate(61.123 57.109)"><path class="a" d="M-.346-.938l.136-.291.489.19L.4-1.292l.489.2-.14.315-.47-.2L.147-.725-.346-.938m-.694-1.018.476.011c.563,0,.826-.039.793-.121L.061-2.189l-.177-.142-.013-.045c0-.032.045-.177.123-.442a2.065,2.065,0,0,1,.487.63l.078.328c0,.2-.138.328-.412.371a8.4,8.4,0,0,1-.99.03Z" transform="translate(1.041 2.818)"/></g><g transform="translate(58.538 56.454)"><path class="a" d="M-1.42-.757h-.548a.828.828,0,0,1-.6-.328,3.131,3.131,0,0,1-.461-.66l-.27-.53-.177.334.024.121.222.369L-3-1.079l.022.108-.164.138a3.467,3.467,0,0,1-.384.011l-.362-.045-.259-.194h-.078a.856.856,0,0,0,.009.526c.054.153.259.224.6.224a1.114,1.114,0,0,0,.582-.114l.259-.345a1.634,1.634,0,0,0,.494.427,1.344,1.344,0,0,0,.558.088H-1.5l.278,0Z" transform="translate(4.266 2.275)"/></g><g transform="translate(55.995 57.109)"><path class="a" d="M-.349-.938l.132-.291.494.19L.4-1.292l.483.2L.747-.774l-.47-.2L.141-.725-.349-.938m-.7-1.018.479.011c.563,0,.828-.039.8-.121L.055-2.189l-.179-.142,0-.045a3.948,3.948,0,0,1,.114-.442,2.115,2.115,0,0,1,.494.63l.071.328c0,.2-.134.328-.41.371a8.365,8.365,0,0,1-.994.03Z" transform="translate(1.047 2.818)"/></g><g transform="translate(53.493 56.036)"><path class="a" d="M-.675-.882-.948-.9l-.22-.071.138-.172.244-.125L-.623-1l.047.063-.1.054m-.888-1.2.157-.263.468.192.114-.291-.481-.2-.114.235-.468-.175-.14.315.464.192M.746-.714H.253L-.12-.809-.3-1.089c-.241-.4-.423-.7-.539-.9l-.134.106-.084.127.164.326a3.333,3.333,0,0,0-.438.244l-.194.345.045.185c.06.157.285.237.679.237l.19-.157.147-.194a1.934,1.934,0,0,0,.444.5,2.356,2.356,0,0,0,.75.056H.938l-.192-.5Z" transform="translate(2.026 2.65)"/></g><g transform="translate(8.583 9.851)"><path class="e" d="M-9.672-14.014q-.631.317-1.289.586A73.492,73.492,0,0,0,8.866-27.134c.315-.36.953-1.063,1.268-1.425,2.676-2.689,5.966-6.108,8.452-8.984a13.425,13.425,0,0,1,2.527-2.247c.362-.313.8-.586.589-.149a21.286,21.286,0,0,0-1.908,2.775,3.561,3.561,0,0,0,.645-.714c.144.121,1.339-.778,1.634-1.164.379-.317,2.331-2.484,2.665-2.857.964-1.136-.966,2.911-2.124,4.515-.537.828.183.147.293.229-.649.742-.843,1.216-1.516,1.943.047.037-1.835,2.32-2.833,3.409,0,0-.364.33-1.369,1.414-.341.358-.375.326-.405.291l.065.067c-.41.289-1.013,1.067-1.4,1.382l.065.063c-.759.63-1.389,1.4-2.139,2.042l.065.067a4.23,4.23,0,0,0-.686.716l.071.067c-.328.371-1.128.968-1.061,1.037l-.065-.065c-1.46,1.326-2.559,2.322-3.678,3.3A59.5,59.5,0,0,1-2.963-13.774c-.433.246-.906.418-.52.086-.425.257-.871.485-1.307.72-.878.466-.5.11-1.384.574C-13.3-8.966-21.027-6.366-29.056-6.1c1.992-.19,3.465-.414,5.44-.683-.009-.047-.022-.14.476-.211A39.216,39.216,0,0,0-15.5-9.046c.457-.19.886-.466,2.266-.994l-1.382.515-.047-.132c1.835-.705,4.1-1.649,5.843-2.536l-.06-.127L-8-12.744c.742-.7-4.058,1.669-6.41,2.344l-.06-.175.91-.339L-13.592-11a51.781,51.781,0,0,1-7.883,2.3c.474-.091,1.421-.293,1.884-.431-.011-.047-.024-.093.442-.213A35.928,35.928,0,0,1-25.306-8.19c-.485.024-.017-.183,1.391-.436,1.425-.229,2.365-.436,3.769-.752l-.019-.086c-.929.229-2.335.537-3.284.675-.481.047.921-.31.436-.27a9.212,9.212,0,0,1-1.421.181,35.369,35.369,0,0,0,4.674-.934c.451-.17.906-.332.88-.425a19.91,19.91,0,0,0,5.3-2.068c.423-.226,2.624-1.1,3.9-1.71" transform="translate(29.056 42.097)"/></g><g transform="translate(0.011 -0.003)"><path class="e" d="M-14.972-22.2c-.66.321-1.307.606-1.979.886A119.389,119.389,0,0,0,13.881-41.948c.517-.52,1.552-1.559,2.046-2.089A156.394,156.394,0,0,0,28.9-57.774a48.3,48.3,0,0,1,3.387-3.749c.451-.545.992-1.061.692-.4-.664,1.261-2.844,4.183-2.715,4.288a7.884,7.884,0,0,0,.914-1.136c.155.121,1.738-1.464,2.132-2.094.47-.537,3.135-4.2,2.48-5.4-.239-.5-.175-.535.073-.261a2.675,2.675,0,0,1,.27,2.339,20.2,20.2,0,0,1-2.449,5.367c-.806,1.289.192.14.308.216-.923,1.22-1.263,1.912-2.229,3.079.05.041-2.773,3.586-4.31,5.226,0,0-.524.545-2.074,2.173-.515.543-.55.511-.584.479l.069.065c-.6.468-1.565,1.615-2.141,2.1l.069.067c-1.128,1-2.147,2.094-3.271,3.092l.069.069a9.294,9.294,0,0,0-1.074,1.046l.058.069c-.509.543-1.7,1.473-1.639,1.539l-.06-.071c-2.245,1.994-3.956,3.45-5.673,4.9A105.2,105.2,0,0,1-5.542-23.341c-.647.384-1.358.649-.744.211l-1.984,1.082c-1.324.712-.727.224-2.066.912A114.424,114.424,0,0,1-27.12-14.593c-5.74,1.725-11.639,3.2-17.857,3.236a58.909,58.909,0,0,0,8.338-.983c-.009-.047-.03-.138.72-.28A74.006,74.006,0,0,0-24.4-15.891c.7-.282,1.365-.645,3.465-1.412l-2.1.755-.047-.132c2.8-1.026,6.261-2.378,8.956-3.7l-.063-.127,1.348-.634c1.229-.875-6.169,2.587-9.743,3.637l-.06-.172,1.4-.5-.037-.088A107.729,107.729,0,0,1-33.3-14.587c.722-.164,2.154-.539,2.87-.735-.011-.045-.024-.088.688-.291a62.87,62.87,0,0,1-9.37,2.033c-.746.05-.024-.157,2.13-.6,2.167-.423,3.605-.752,5.74-1.315l-.026-.088c-1.419.379-3.553.94-5,1.169-.735.1,1.41-.431.677-.33-.716.149-1.436.289-2.167.371A65.209,65.209,0,0,0-30.619-16a4.516,4.516,0,0,0,1.365-.58,46.4,46.4,0,0,0,8.243-3.083c.649-.339,4.1-1.6,6.039-2.542" transform="translate(44.977 66.695)"/></g><g transform="translate(16.789 15.669)"><path class="e" d="M-4.488-6.823l-.625.33a60.586,60.586,0,0,0,9.894-6.878l.612-.729a51.368,51.368,0,0,0,4.112-4.058,3.374,3.374,0,0,1,1.186-.862c.188-.132.386-.231.427-.028-.093.382-.664,1.3-.539,1.4l.287-.345c.164.112.839-.289.934-.517a3.7,3.7,0,0,0,.819-1.824c.006-.354.31-.121.5.683a4.527,4.527,0,0,1-.276,2.266c-.2.522.207.127.328.185A12.309,12.309,0,0,1,12.44-16a10.925,10.925,0,0,1-1.486,1.884s-.207.162-.763.7l-.244.114.058.063c-.246.112-.556.52-.776.655l.06.071c-.44.27-.765.662-1.177.955l.063.071c-.2.162-.392.319-.364.356l.058.073-.556.509-.063-.071c-.791.619-1.361,1.1-1.94,1.58A31.635,31.635,0,0,1-.313-5.367c-.216.125-.481.166-.31-.037l-.645.373c-.431.25-.282,0-.716.244C-5.656-3.155-8.793-.932-13.481-.469a17.071,17.071,0,0,0,2.98-.686c-.019-.047-.041-.136.207-.213A16.877,16.877,0,0,0-6.622-2.987a4.515,4.515,0,0,1,1.035-.7l-.666.323-.058-.125c.869-.464,1.943-1.059,2.779-1.563L-3.6-5.175l.433-.233c.272-.513-2.057.793-3.187,1.261l-.078-.166L-6-4.522l-.041-.088A39.568,39.568,0,0,1-9.8-2.972c.226-.086.677-.259.9-.351-.022-.041-.037-.08.183-.175a14.538,14.538,0,0,1-2.96.981c-.244.006-.039-.162.621-.425.675-.211,1.125-.375,1.794-.64L-9.3-3.666a11.88,11.88,0,0,1-1.555.569c-.241.028.395-.287.16-.254a2.676,2.676,0,0,1-.679.166,15.593,15.593,0,0,0,2.21-.783c.2-.136.4-.274.364-.356A7.011,7.011,0,0,0-6.359-5.8a17.7,17.7,0,0,1,1.871-1.02" transform="translate(13.481 20.495)"/></g></g></g></g><g class="c" transform="translate(731 3720)"><circle class="o" cx="35.5" cy="35.5" r="35.5"/><circle class="r" cx="35.5" cy="35.5" r="34.5"/></g><g class="f" transform="translate(1065 3915)"><circle class="o" cx="35.5" cy="35.5" r="35.5"/><circle class="r" cx="35.5" cy="35.5" r="34.5"/></g><g transform="translate(-118 3224)"><g transform="translate(1126 436.527)"><g transform="translate(2.892 19.048)"><circle class="g" cx="0.553" cy="0.553" r="0.553" transform="translate(1.731 10.116)"/><circle class="g" cx="0.553" cy="0.553" r="0.553" transform="translate(0 10.116)"/><path class="g" d="M68.426,272.086h1.022v3.306H68.426Z" transform="translate(-66.654 -272.086)"/></g><path class="h" d="M104.583,291.019a1.077,1.077,0,0,1-1.077-1.074l-.026-8.61a1.077,1.077,0,0,1,1.074-1.081h0a1.077,1.077,0,0,1,1.077,1.074l.026,8.61a1.077,1.077,0,0,1-1.074,1.081Z" transform="translate(-96.427 -260.649)"/><path class="i" d="M144,276.884a1.077,1.077,0,0,1-1.077-1.077v-9.644a1.077,1.077,0,1,1,2.155,0v9.644A1.077,1.077,0,0,1,144,276.884Z" transform="translate(-133.183 -246.514)"/><path class="a" d="M108.323,180.674h-4.844v-7.066a1.264,1.264,0,0,1,1.264-1.264h2.315a1.264,1.264,0,0,1,1.264,1.264v7.066Z" transform="translate(-96.426 -160.095)"/><circle class="j" cx="2.011" cy="2.011" r="2.011" transform="translate(7.882 7.602)"/><path class="a" d="M0,436.72v5.122H14.836v-3.491h.749a.437.437,0,0,0,.437-.437v-.757a.437.437,0,0,0-.437-.437Z" transform="translate(0 -406.451)"/><path class="a" d="M23.687.539H0V2.584H.892V5.246a.511.511,0,0,0,.511.511H3.986A.511.511,0,0,0,4.5,5.246V2.584H23.687a1.022,1.022,0,1,0,0-2.045ZM3.475,4.735H1.914V2.584H3.475V4.735Z" transform="translate(0 0)"/><circle cx="2.695" cy="2.695" r="2.695" transform="translate(0 3.929)"/><path class="k" d="M35.01,62.5H33.943a.409.409,0,0,1-.409-.409V60.475a.409.409,0,1,1,.818,0v1.209h.658a.409.409,0,0,1,0,.818Z" transform="translate(-31.248 -55.47)"/><path class="l" d="M36.866,312.024H34.509a.836.836,0,0,1-.836-.836v-6.572a.836.836,0,0,1,.836-.836h2.358a.836.836,0,0,1,.836.836v6.572A.836.836,0,0,1,36.866,312.024Z" transform="translate(-31.378 -282.573)"/><path class="j" d="M63.848,207.1a.921.921,0,0,1-.565-1.174l1.149-3.281a.922.922,0,0,1,.258-.384l1.274-1.132,1.273.118-.067,1.274-1.078.958-1.07,3.055A.921.921,0,0,1,63.848,207.1Z" transform="translate(-58.922 -186.92)"/><path class="k" d="M106.182,177.729a.921.921,0,0,0-1.3-.077l-1.558,1.384,1.2,1.391h0l1.574-1.4A.921.921,0,0,0,106.182,177.729Z" transform="translate(-96.281 -164.824)"/><path class="a" d="M276.264,160.335a3.1,3.1,0,0,1-3.1,3.1H262.33a3.1,3.1,0,0,1-3.1-3.1V149.714a3.1,3.1,0,0,1,3.1-3.1h10.831a3.1,3.1,0,0,1,3.1,3.1v10.621Z" transform="translate(-241.557 -136.115)"/><path class="m" d="M300.409,193.4H289.294a.979.979,0,0,1-.979-.979v-4.826a.979.979,0,0,1,.979-.979h11.116a.979.979,0,0,1,.979.979v4.826A.979.979,0,0,1,300.409,193.4Z" transform="translate(-268.663 -173.394)"/><circle class="k" cx="1.446" cy="1.446" r="1.446" transform="translate(19.652 22.653)"/><circle class="k" cx="1.446" cy="1.446" r="1.446" transform="translate(29.834 22.624)"/><path d="M271.085,414.451H273.5l-3.074-6.314h-2.413l.591,1.213H260.92l.591-1.213H259.1l-3.074,6.314h2.413l.476-.979h11.7Zm-11.512-2.335.687-1.41h9l.687,1.41Z" transform="translate(-238.572 -379.816)"/><path d="M340.734,105.693h-5.107a.814.814,0,0,1,0-1.627h5.107a.814.814,0,0,1,0,1.627Z" transform="translate(-311.992 -96.471)"/><path class="n" d="M347.658,366.162h-4.764a.466.466,0,0,1-.466-.466v-1.068a.466.466,0,0,1,.466-.466h4.764a.466.466,0,0,1,.466.466V365.7A.466.466,0,0,1,347.658,366.162Z" transform="translate(-319.088 -338.838)"/></g></g><circle class="a" cx="34.5" cy="34.5" r="34.5" transform="translate(1066 3916)"/><g transform="translate(1085.63 3934.52)"><g transform="translate(0 0.394)"><g transform="translate(0 0)"><path class="k" d="M30.742,25.211l-4.857-4.857a2.532,2.532,0,0,0-3.57.067l-2.447,2.446-.483-.269A24.349,24.349,0,0,1,13.5,18.342a24.484,24.484,0,0,1-4.265-5.9c-.091-.164-.177-.322-.263-.472l1.642-1.64.807-.808a2.53,2.53,0,0,0,.065-3.571L6.63,1.1a2.53,2.53,0,0,0-3.57.067L1.691,2.542l.037.037A7.915,7.915,0,0,0,.6,4.569,8.248,8.248,0,0,0,.1,6.587C-.542,11.9,1.887,16.762,8.48,23.355c9.114,9.113,16.458,8.425,16.775,8.391a8.206,8.206,0,0,0,2.023-.508,7.888,7.888,0,0,0,1.982-1.123l.03.027,1.387-1.358A2.535,2.535,0,0,0,30.742,25.211Z" transform="translate(0 -0.394)"/></g></g></g><g transform="translate(0 -3)"><circle class="k" cx="31.5" cy="31.5" r="31.5" transform="translate(873 3849)"/><g transform="translate(870 3845)"><g transform="translate(8.952 7.5)"><path class="a" d="M34.368,7A27.544,27.544,0,0,0,8.32,25.7H18.737C20.937,14.821,27.108,7,34.368,7Z" transform="translate(-8.32 -7)"/><path class="a" d="M18.737,40H8.32A27.544,27.544,0,0,0,34.368,58.7C27.108,58.7,20.937,50.879,18.737,40Z" transform="translate(-8.32 -3.7)"/><path class="a" d="M45.827,25.7h1.8C45.431,14.821,39.26,7,32,7V25.7Z" transform="translate(-5.952 -7)"/><path class="a" d="M19.594,40h-1.8c2.2,10.879,8.371,18.7,15.631,18.7V40Z" transform="translate(-7.373 -3.7)"/><path class="a" d="M17.79,25.7H33.421V7C26.161,7,19.99,14.821,17.79,25.7Z" transform="translate(-7.373 -7)"/><path class="a" d="M32,7c7.26,0,13.431,7.821,15.631,18.7H58.048A27.544,27.544,0,0,0,32,7Z" transform="translate(-5.952 -7)"/><path class="a" d="M32,58.7A27.544,27.544,0,0,0,58.048,40H47.631C45.431,50.879,39.26,58.7,32,58.7Z" transform="translate(-5.952 -3.7)"/><path class="a" d="M47.631,40H32V58.7C39.26,58.7,45.431,50.879,47.631,40Z" transform="translate(-5.952 -3.7)"/></g><path class="a" d="M35,2A33,33,0,1,0,68,35,33,33,0,0,0,35,2Zm0,63.8A30.8,30.8,0,1,1,65.8,35,30.8,30.8,0,0,1,35,65.8Z"/><path class="a" d="M34.6,6A28.6,28.6,0,1,0,63.2,34.6,28.6,28.6,0,0,0,34.6,6ZM20.348,44.5H33.5V60.925C27.676,60.208,22.567,53.836,20.348,44.5ZM35.7,60.925V44.5H48.852C46.633,53.836,41.53,60.208,35.7,60.925ZM9.348,42.3a26.388,26.388,0,0,1,0-15.4h50.5a26.388,26.388,0,0,1,0,15.4Zm39.5-17.6H35.7V8.275C41.53,8.992,46.633,15.364,48.852,24.7ZM33.5,8.275V24.7H20.348C22.567,15.364,27.675,8.992,33.5,8.275ZM59.066,24.7h-7.96C49.636,18.163,46.8,12.906,43.212,9.65A26.528,26.528,0,0,1,59.066,24.7ZM25.988,9.65c-3.587,3.256-6.424,8.513-7.895,15.05h-7.96A26.528,26.528,0,0,1,25.988,9.65ZM10.134,44.5h7.96c1.471,6.537,4.308,11.794,7.895,15.05A26.528,26.528,0,0,1,10.134,44.5ZM43.212,59.55c3.587-3.256,6.424-8.513,7.895-15.05h7.96A26.528,26.528,0,0,1,43.212,59.55Z" transform="translate(0.4 0.4)"/><path class="a" d="M38.237,27.011a1.1,1.1,0,0,0-1.228.955l-.65,5.2L33.59,27.611a1.146,1.146,0,0,0-1.969,0l-2.78,5.552-.65-5.2a1.1,1.1,0,1,0-2.182.273l1.1,8.8a1.1,1.1,0,0,0,2.076.355L32.6,30.562l3.41,6.832A1.1,1.1,0,0,0,37,38a1.188,1.188,0,0,0,.186-.015,1.1,1.1,0,0,0,.905-.948l1.1-8.8a1.1,1.1,0,0,0-.955-1.228Z" transform="translate(2.4 2.498)"/><path class="a" d="M53.236,27.009a1.1,1.1,0,0,0-1.228.955l-.65,5.2L48.59,27.608a1.146,1.146,0,0,0-1.969,0l-2.78,5.552-.65-5.2a1.1,1.1,0,0,0-2.182.273l1.1,8.8a1.1,1.1,0,0,0,2.076.355L47.6,30.56l3.41,6.832A1.1,1.1,0,0,0,52,38a1.188,1.188,0,0,0,.186-.015,1.1,1.1,0,0,0,.905-.948l1.1-8.8a1.1,1.1,0,0,0-.955-1.228Z" transform="translate(3.9 2.5)"/><path class="a" d="M23.236,27.009a1.1,1.1,0,0,0-1.228.955l-.65,5.2L18.59,27.608a1.146,1.146,0,0,0-1.969,0l-2.78,5.552-.65-5.2a1.1,1.1,0,0,0-2.182.273l1.1,8.8a1.1,1.1,0,0,0,2.076.355L17.6,30.56l3.415,6.832A1.1,1.1,0,0,0,22,38a1.188,1.188,0,0,0,.186-.015,1.1,1.1,0,0,0,.905-.948l1.1-8.8a1.1,1.1,0,0,0-.955-1.228Z" transform="translate(0.9 2.5)"/></g></g><g transform="translate(744 3691.689)"><g transform="translate(0 46.61)"><path class="a" d="M43.7,205.466c2.759,7.736,17.048,6.777,17.048,6.777s14.289.959,17.048-6.777c-3.924-2.114-10.168-3.5-17.048-3.5S47.626,203.352,43.7,205.466Z" transform="translate(-37.257 -179.053)"/><path class="a" d="M40.529,53.62c-3.114-.316-8.175-.528-12.186-4.064s-4.85-2.9-4.85-2.9-.848-.633-4.859,2.9S9.552,53.3,6.438,53.62s-2.9,1.583-3.685,5.12S-.683,63.227.165,64.071c.589.586,3.306,2.82,4.916,4.135,4.132-2.5,10.78-4.16,18.411-4.16S37.771,65.708,41.9,68.206c1.607-1.315,4.318-3.549,4.906-4.134.848-.845-1.808-1.8-2.592-5.331S43.642,53.937,40.529,53.62Zm-13.161,8.5-3.875-2.8-3.875,2.822L21.1,57.53l-3.876-2.868h4.79l1.48-4.555,1.48,4.555h4.79l-3.875,2.871Z" transform="translate(0 -46.61)"/><path class="a" d="M77.054,179.041c-3.914-2.162-10.23-3.588-17.2-3.588s-13.29,1.426-17.2,3.588v2.251c4.161-2.122,10.275-3.493,17.2-3.493s13.043,1.371,17.2,3.493Z" transform="translate(-36.357 -156.451)"/></g></g></g></svg>