<svg xmlns="http://www.w3.org/2000/svg" xmlns:xlink="http://www.w3.org/1999/xlink" width="175.025" height="175.025" viewBox="0 0 175.025 175.025"><defs><style>.a{fill:#fff;}.b{fill:#ef2e41;}.c{fill:#f60;}.d{filter:url(#a);}</style><filter id="a" x="0" y="0" width="175.025" height="175.025" filterUnits="userSpaceOnUse"><feOffset input="SourceAlpha"/><feGaussianBlur stdDeviation="15" result="b"/><feFlood flood-color="#ef2e41"/><feComposite operator="in" in2="b"/><feComposite in="SourceGraphic"/></filter></defs><g transform="translate(-431 -4315)"><g class="d" transform="matrix(1, 0, 0, 1, 431, 4315)"><path class="a" d="M42.513,0A42.513,42.513,0,1,1,0,42.513,42.513,42.513,0,0,1,42.513,0Z" transform="translate(45 45)"/></g><g transform="translate(504.342 4379.857)"><path class="b" d="M119.608,72.55A3.485,3.485,0,0,1,116.159,76H100.005a3.485,3.485,0,0,1-3.449-3.449V49.76a3.485,3.485,0,0,1,3.449-3.449h16.11a3.485,3.485,0,0,1,3.449,3.449V72.55Z" transform="translate(-93.107 -41.256)"/><path class="c" d="M99.35,72.594V49.847A3.485,3.485,0,0,1,102.8,46.4h14.058a1.923,1.923,0,0,0-.7-.087H100.005a3.485,3.485,0,0,0-3.449,3.449V72.55A3.485,3.485,0,0,0,100.005,76h2.052A3.513,3.513,0,0,1,99.35,72.594Z" transform="translate(-93.107 -41.256)"/><rect class="a" width="22.921" height="14.277" transform="translate(3.449 10.687)"/><g transform="translate(3.449 10.687)"><path class="a" d="M121.047,97.911l-7.291,14.277h1.091l7.247-14.277Z" transform="translate(-111.879 -97.911)"/><path class="a" d="M144.646,97.911l-7.291,14.277h1.092l7.248-14.277Z" transform="translate(-132.902 -97.911)"/><path class="a" d="M218.2,97.911l-7.248,14.277H212l7.291-14.277Z" transform="translate(-198.468 -97.911)"/><rect class="a" width="2.794" height="14.277" transform="translate(0)"/></g><g transform="translate(6.2 26.754)"><circle class="a" cx="1.397" cy="1.397" r="1.397" transform="translate(0 0.087)"/><circle class="a" cx="1.397" cy="1.397" r="1.397" transform="translate(14.888)"/></g><g transform="translate(0 0)"><path d="M174.854,64.908h4.541a.7.7,0,0,0,0-1.4h-4.541a.7.7,0,1,0,0,1.4Z" transform="translate(-162.236 -56.579)"/><path d="M94.208,17.323a.69.69,0,0,0,.7-.7V12.04a2.05,2.05,0,0,0-2.052-2.052h-.7V8.5a4.174,4.174,0,0,0-4.148-4.148H81.241l4.366-3.1A.7.7,0,0,0,85.782.3a.7.7,0,0,0-.961-.175l-5.5,3.929L73.819.121A.7.7,0,0,0,72.858.3a.7.7,0,0,0,.175.961l4.366,3.1H71.854A4.174,4.174,0,0,0,67.707,8.5V9.988h-.7a2.05,2.05,0,0,0-2.052,2.052v4.584a.7.7,0,0,0,1.4,0V12.04a.69.69,0,0,1,.7-.7h.7V31.251a4.129,4.129,0,0,0,3.405,4.06l-4.1,7.815a.667.667,0,0,0,.306.917.809.809,0,0,0,.306.087.659.659,0,0,0,.611-.393l1.484-2.882H89.886l1.484,2.882a.739.739,0,0,0,.611.393.809.809,0,0,0,.306-.087.679.679,0,0,0,.306-.917l-4.06-7.815a4.146,4.146,0,0,0,3.58-4.1V11.385h.7a.69.69,0,0,1,.7.7v4.584A.681.681,0,0,0,94.208,17.323Zm-3.449,6.942H69.1V11.385H90.759ZM71.854,5.71h16.11A2.739,2.739,0,0,1,90.715,8.46V9.945H69.1V8.46A2.8,2.8,0,0,1,71.854,5.71ZM70.5,39.546,72.64,35.4H87l2.139,4.148Zm17.507-5.5H71.854A2.739,2.739,0,0,1,69.1,31.294V25.618H90.715v5.676A2.73,2.73,0,0,1,88.008,34.045Z" transform="translate(-64.956 0)"/><path d="M116.738,237.911a2.183,2.183,0,1,0,2.183,2.183A2.189,2.189,0,0,0,116.738,237.911Zm0,3.013a.786.786,0,1,1,.786-.786A.756.756,0,0,1,116.738,240.924Z" transform="translate(-109.141 -211.943)"/><path d="M253.139,237.911a2.183,2.183,0,1,0,2.183,2.183A2.189,2.189,0,0,0,253.139,237.911Zm0,3.013a.786.786,0,1,1,.786-.786A.756.756,0,0,1,253.139,240.924Z" transform="translate(-230.654 -211.943)"/><path d="M177.533,251.911h-4.279a.7.7,0,0,0,0,1.4h4.279a.69.69,0,0,0,.7-.7A.718.718,0,0,0,177.533,251.911Z" transform="translate(-160.812 -224.415)"/></g></g></g></svg>