<svg xmlns="http://www.w3.org/2000/svg" xmlns:xlink="http://www.w3.org/1999/xlink" width="175.025" height="175.025" viewBox="0 0 175.025 175.025"><defs><style>.a,.h{fill:#fff;}.b{fill:#373c41;}.c{fill:#748488;}.d{fill:#55696e;}.e{fill:#ef2e41;}.f{fill:#ba6746;}.g{fill:#a56941;}.h{stroke:#000;}.i{fill:#c8462d;}.j{filter:url(#a);}</style><filter id="a" x="0" y="0" width="175.025" height="175.025" filterUnits="userSpaceOnUse"><feOffset input="SourceAlpha"/><feGaussianBlur stdDeviation="15" result="b"/><feFlood flood-color="#d56d7c"/><feComposite operator="in" in2="b"/><feComposite in="SourceGraphic"/></filter></defs><g transform="translate(-431 -4315)"><g class="j" transform="matrix(1, 0, 0, 1, 431, 4315)"><path class="a" d="M42.513,0A42.513,42.513,0,1,1,0,42.513,42.513,42.513,0,0,1,42.513,0Z" transform="translate(45 45)"/></g><g transform="translate(494.339 4379.917)"><g transform="translate(3.869 24.765)"><circle class="b" cx="0.74" cy="0.74" r="0.74" transform="translate(2.316 13.535)"/><circle class="b" cx="0.74" cy="0.74" r="0.74" transform="translate(0 13.535)"/><path class="b" d="M68.426,272.086h1.368v4.424H68.426Z" transform="translate(-66.055 -272.086)"/></g><path class="c" d="M104.956,294.658a1.442,1.442,0,0,1-1.442-1.437l-.035-11.52a1.442,1.442,0,0,1,1.437-1.446h0a1.441,1.441,0,0,1,1.441,1.437l.035,11.521a1.442,1.442,0,0,1-1.437,1.446Z" transform="translate(-94.043 -254.744)"/><path class="d" d="M144.368,280.872a1.442,1.442,0,0,1-1.442-1.441v-12.9a1.442,1.442,0,1,1,2.883,0v12.9A1.442,1.442,0,0,1,144.368,280.872Z" transform="translate(-129.89 -240.959)"/><path class="e" d="M109.961,183.49h-6.482v-9.454a1.692,1.692,0,0,1,1.692-1.692h3.1a1.692,1.692,0,0,1,1.692,1.692v9.454Z" transform="translate(-94.042 -156.675)"/><circle class="f" cx="2.691" cy="2.691" r="2.691" transform="translate(10.546 9.45)"/><path class="e" d="M0,436.72v6.853H19.851V438.9h1a.585.585,0,0,0,.585-.585V437.3a.585.585,0,0,0-.585-.585Z" transform="translate(0 -396.94)"/><path class="e" d="M31.693.539H0V3.275H1.194V6.838a.684.684,0,0,0,.684.684H5.334a.684.684,0,0,0,.684-.684V3.275H31.693a1.368,1.368,0,1,0,0-2.736ZM4.649,6.154H2.562V3.275H4.65V6.154Z" transform="translate(0 -0.539)"/><circle cx="3.605" cy="3.605" r="3.605" transform="translate(0 4.536)"/><path class="a" d="M35.509,63.326H34.081a.547.547,0,0,1-.547-.547V60.613a.547.547,0,1,1,1.094,0v1.618h.881a.547.547,0,1,1,0,1.094Z" transform="translate(-30.476 -54.637)"/><path class="g" d="M37.946,314.811H34.791a1.118,1.118,0,0,1-1.118-1.118V304.9a1.118,1.118,0,0,1,1.118-1.118h3.155a1.118,1.118,0,0,1,1.118,1.118v8.793A1.118,1.118,0,0,1,37.946,314.811Z" transform="translate(-30.602 -276.125)"/><path class="f" d="M64.057,209.119a1.232,1.232,0,0,1-.756-1.571l1.538-4.39a1.233,1.233,0,0,1,.345-.514l1.7-1.514,1.7.158-.09,1.705-1.442,1.281-1.432,4.088A1.232,1.232,0,0,1,64.057,209.119Z" transform="translate(-57.465 -182.837)"/><path class="a" d="M107.148,177.833a1.232,1.232,0,0,0-1.74-.1l-2.084,1.851,1.612,1.861h0l2.106-1.87A1.232,1.232,0,0,0,107.148,177.833Z" transform="translate(-93.901 -161.288)"/><path class="e" d="M282.024,164.974a4.153,4.153,0,0,1-4.153,4.153H263.379a4.153,4.153,0,0,1-4.153-4.153V150.763a4.153,4.153,0,0,1,4.153-4.153h14.492a4.153,4.153,0,0,1,4.153,4.153v14.211Z" transform="translate(-235.585 -133.288)"/><path class="h" d="M304.5,195.692H289.624a1.309,1.309,0,0,1-1.309-1.309v-6.457a1.309,1.309,0,0,1,1.309-1.309H304.5a1.309,1.309,0,0,1,1.309,1.309v6.457A1.309,1.309,0,0,1,304.5,195.692Z" transform="translate(-262.021 -169.646)"/><circle class="a" cx="1.934" cy="1.934" r="1.934" transform="translate(26.294 29.588)"/><circle class="a" cx="1.934" cy="1.934" r="1.934" transform="translate(39.918 29.551)"/><path d="M276.176,416.585H279.4l-4.113-8.448h-3.229l.79,1.623H262.575l.79-1.623h-3.229l-4.113,8.448h3.229l.637-1.309h15.649Zm-15.4-3.124.919-1.887h12.045l.919,1.887Z" transform="translate(-232.674 -370.964)"/><path d="M342.735,106.243H335.9a1.089,1.089,0,1,1,0-2.177h6.833a1.089,1.089,0,0,1,0,2.177Z" transform="translate(-304.278 -94.624)"/><path class="i" d="M349.426,366.839h-6.374a.624.624,0,0,1-.624-.624v-1.429a.624.624,0,0,1,.624-.624h6.374a.624.624,0,0,1,.624.624v1.429A.624.624,0,0,1,349.426,366.839Z" transform="translate(-311.199 -331)"/></g></g></svg>