<svg xmlns="http://www.w3.org/2000/svg" xmlns:xlink="http://www.w3.org/1999/xlink" width="175.65" height="175.65" viewBox="0 0 175.65 175.65"><defs><style>.a{fill:#fff;}.b{fill:#ef2e41;}.c{fill:#f9c295;}.d{fill:#e59f6a;}.e{fill:#f29f5c;}.f{fill:#f60;}.g{fill:#ebeef2;}.h{filter:url(#a);}</style><filter id="a" x="0" y="0" width="175.65" height="175.65" filterUnits="userSpaceOnUse"><feOffset input="SourceAlpha"/><feGaussianBlur stdDeviation="15" result="b"/><feFlood flood-color="#ef2e41"/><feComposite operator="in" in2="b"/><feComposite in="SourceGraphic"/></filter></defs><g transform="translate(-431 -4315)"><g class="h" transform="matrix(1, 0, 0, 1, 431, 4315)"><path class="a" d="M42.825,0A42.825,42.825,0,1,1,0,42.825,42.825,42.825,0,0,1,42.825,0Z" transform="translate(45 45)"/></g><g transform="translate(491.115 4388.39)"><g transform="translate(0.904 0.903)"><g transform="translate(14.226 0.828)"><path class="b" d="M160.852,128.443l-1.567-12.727-2.936.361v0l-5.692-3.2a3.43,3.43,0,0,0-2-.426l-8.987.831a3.429,3.429,0,0,0-2.649,1.692l-6.334,10.9a1.507,1.507,0,0,0,.77,2.166l.259.1a5.62,5.62,0,0,0,1.523.34l-.8.7-1.606,1.4-4.567,3.9a1.951,1.951,0,0,0-.189,2.753l.463.531a2.508,2.508,0,0,0,3.537.242l1.745,2a2.5,2.5,0,0,0,3.537.242l1.744,2a2.509,2.509,0,0,0,3.539.243l.948.819a2.509,2.509,0,0,0,3.539.243l1.288-1.124,10.829-8.434.012-.011,4.272,0Z" transform="translate(-125.598 -112.431)"/><path class="b" d="M156.221,259.955l-.012.011L145.38,268.4l-1.288,1.124a2.509,2.509,0,0,1-3.539-.243l-.948-.819a2.509,2.509,0,0,1-3.539-.243l-1.744-2a2.5,2.5,0,0,1-3.537-.242l-1.745-2a2.507,2.507,0,0,1-3.106.148,1.951,1.951,0,0,0,.155,2.359l.463.531a2.508,2.508,0,0,0,3.537.242l1.745,2a2.5,2.5,0,0,0,3.537.241l1.744,2a2.509,2.509,0,0,0,3.539.243l.948.819a2.509,2.509,0,0,0,3.539.243l1.288-1.124,10.829-8.434.012-.011,4.272,0-.473-3.84Z" transform="translate(-125.608 -241.687)"/></g><g transform="translate(8.339 1.331)"><path class="c" d="M115.2,139.879l-5.8-5-1.613-1.39-1.154-.994-4.964-4.279.573-4.88a3.368,3.368,0,0,0-2.447-3.639L88.971,116.7a2.5,2.5,0,0,0-2.9,1.272l-1.361,2.656-5.841-.4-1.5,12.736-.65,5.535,5.685.378.012.011L94.3,149.129l1.294,1.117a2.509,2.509,0,0,0,3.538-.263l1.732-2.01a2.509,2.509,0,0,0,3.538-.263l1.732-2.012a2.5,2.5,0,0,0,3.536-.261l1.734-2.012a2.508,2.508,0,0,0,3.536-.261l.46-.533A1.951,1.951,0,0,0,115.2,139.879Z" transform="translate(-76.727 -116.61)"/><path class="d" d="M247.257,298.655l-1.767-1.524a2.071,2.071,0,0,1-.086,2.6l-.489.566a2.662,2.662,0,0,1-3.754.277l-1.841,2.135a2.657,2.657,0,0,1-3.754.277l-1.839,2.136a2.663,2.663,0,0,1-3.756.279l-1.839,2.134a2.645,2.645,0,0,1-1.262.813l.783.675a2.509,2.509,0,0,0,3.538-.263l1.732-2.01a2.509,2.509,0,0,0,3.538-.263l1.732-2.012a2.5,2.5,0,0,0,3.536-.261l1.734-2.012A2.508,2.508,0,0,0,247,301.94l.46-.533A1.951,1.951,0,0,0,247.257,298.655Z" transform="translate(-208.785 -275.385)"/></g><g transform="translate(13.177 22.698)"><path class="e" d="M118.031,294.879l-.688.909a2.248,2.248,0,0,0,.435,3.149h0a2.248,2.248,0,0,0,3.149-.435l.688-.909a2.248,2.248,0,0,0-.435-3.149h0A2.248,2.248,0,0,0,118.031,294.879Z" transform="translate(-116.887 -293.988)"/><path class="e" d="M148.389,310.745l-1.3,1.711a2.248,2.248,0,0,0,.435,3.149h0a2.248,2.248,0,0,0,3.149-.435l1.3-1.711a2.248,2.248,0,0,0-.435-3.149h0A2.248,2.248,0,0,0,148.389,310.745Z" transform="translate(-143.053 -307.943)"/><path class="e" d="M178.608,328.12l-1.766,2.332a2.248,2.248,0,0,0,.435,3.149h0a2.248,2.248,0,0,0,3.149-.435l1.766-2.332a2.248,2.248,0,0,0-.435-3.149h0A2.248,2.248,0,0,0,178.608,328.12Z" transform="translate(-169.219 -323.225)"/><path class="e" d="M208.461,349.527l-1.869,2.468a2.248,2.248,0,0,0,.435,3.149h0a2.248,2.248,0,0,0,3.149-.435l1.869-2.468a2.248,2.248,0,0,0-.435-3.149h0A2.248,2.248,0,0,0,208.461,349.527Z" transform="translate(-195.385 -342.053)"/></g><path class="b" d="M192.041,116.075l-5.692-3.2a3.43,3.43,0,0,0-2-.426l-8.987.831a3.429,3.429,0,0,0-2.649,1.692l-6.334,10.9a1.507,1.507,0,0,0,.77,2.166l.259.1a5.632,5.632,0,0,0,6.456-1.837l2.427-3.158s5.834,6.755,12.257-1.134" transform="translate(-147.062 -111.603)"/><path class="b" d="M413.576,105.557l2.977,24.183-6.961.857a2.4,2.4,0,0,1-2.675-2.089l-2.391-19.418a2.4,2.4,0,0,1,2.089-2.675Z" transform="translate(-356.684 -105.557)"/><path class="f" d="M424.663,275.948a2.632,2.632,0,0,1-2.888-2.03l.329,2.67a2.4,2.4,0,0,0,2.675,2.089l6.961-.857-.333-2.7Z" transform="translate(-371.872 -253.637)"/><path class="b" d="M10.478,105.557,7.5,129.74l5.694.7,1.268.156a2.4,2.4,0,0,0,2.675-2.089l2.39-19.418a2.4,2.4,0,0,0-2.089-2.675Z" transform="translate(-7.501 -105.557)"/><path class="f" d="M14.626,280.4l-6.784-.835L7.5,282.337l6.961.857a2.4,2.4,0,0,0,2.675-2.089l.252-2.051A2.82,2.82,0,0,1,14.626,280.4Z" transform="translate(-7.501 -258.155)"/><g transform="translate(3.035 18.454)"><circle class="g" cx="1.746" cy="1.746" r="1.746" transform="translate(50.209)"/><circle class="g" cx="1.746" cy="1.746" r="1.746"/></g></g><g transform="translate(0 0)"><path d="M30.849,127.978a3.144,3.144,0,0,0-2.481-.584,3.15,3.15,0,0,0-3.539-2.6,3.187,3.187,0,0,0-.6.143A3.147,3.147,0,0,0,20,122.907a3.152,3.152,0,0,0-5.188-1.257l-3.307-.22,2.027-16.465,3.632.247.061,0a.9.9,0,0,0,.8-.491l1.361-2.656a1.607,1.607,0,0,1,1.851-.813l2.021.559a.9.9,0,0,0,.482-1.742l-2.021-.559a3.421,3.421,0,0,0-3.941,1.729l-1.09,2.126-2.939-.2.07-.566a3.307,3.307,0,0,0-2.875-3.682L3.99,98.064a.9.9,0,1,0-.221,1.793l6.961.857a1.5,1.5,0,0,1,1.3,1.668L9.642,121.8a1.5,1.5,0,0,1-1.668,1.3l-6.961-.857a.9.9,0,0,0-.221,1.793l6.961.857a3.3,3.3,0,0,0,3.3-1.686l2.474.164a3.152,3.152,0,0,0,2.8,4.592,3.212,3.212,0,0,0,.438-.03l.028,0c0,.009,0,.019,0,.028a3.148,3.148,0,0,0,3.118,2.719,3.179,3.179,0,0,0,.464-.035,3.145,3.145,0,0,0,3.12,2.749,3.18,3.18,0,0,0,.462-.035c0,.01,0,.02,0,.03a3.153,3.153,0,0,0,3.115,2.721,3.206,3.206,0,0,0,.438-.03,3.13,3.13,0,0,0,2.081-1.219l1.869-2.468A3.154,3.154,0,0,0,30.849,127.978Zm-14.338-1.831A1.344,1.344,0,0,1,15.256,124l.688-.909a1.344,1.344,0,0,1,2.143,1.623l-.688.909A1.336,1.336,0,0,1,16.511,126.147ZM19.1,128.6a1.344,1.344,0,0,1-.26-1.883l.688-.909h0l.608-.8a1.344,1.344,0,0,1,2.143,1.623l-1.3,1.711A1.346,1.346,0,0,1,19.1,128.6Zm3.584,2.714a1.344,1.344,0,0,1-.26-1.883h0l1.3-1.712h0l.47-.621a1.344,1.344,0,0,1,2.144,1.623l-1.767,2.333h0A1.346,1.346,0,0,1,22.683,131.315Zm7.336-.014-1.869,2.468a1.344,1.344,0,1,1-2.143-1.623l1.766-2.332h0l.1-.134a1.344,1.344,0,1,1,2.143,1.623Z" transform="translate(0.001 -98.057)"/><path d="M201.232,123.033a.9.9,0,0,0-1.007-.786l-6.961.857a1.5,1.5,0,0,1-1.668-1.3l-.071-.58h0l-.017-.134-2.3-18.7a1.5,1.5,0,0,1,1.3-1.668l6.961-.857a.9.9,0,0,0-.221-1.793l-6.961.857a3.308,3.308,0,0,0-2.9,3.364l-1.755.216L180.2,99.443a4.314,4.314,0,0,0-2.524-.539h-.005l-1.636.151a.9.9,0,1,0,.166,1.8l1.641-.152a2.515,2.515,0,0,1,1.471.314l5.636,3.172a.9.9,0,0,0,.608.143l2.039-.251,1.5,12.148.517,4.2-3.252,0a.9.9,0,0,0-.59.22l-.252.2-8.165-7.037a10.96,10.96,0,0,0,5.307-3.876.9.9,0,0,0-1.4-1.141c-1.859,2.283-3.813,3.458-5.809,3.492a7.383,7.383,0,0,1-5.064-2.379.9.9,0,0,0-1.4.04l-2.427,3.158a4.7,4.7,0,0,1-5.421,1.543l-.259-.1a.6.6,0,0,1-.308-.867l6.334-10.9a2.53,2.53,0,0,1,1.951-1.246l3.75-.347a.9.9,0,1,0-.166-1.8l-3.75.347a4.341,4.341,0,0,0-3.347,2.138L159,112.776a2.41,2.41,0,0,0,1.232,3.465l.259.1a6.582,6.582,0,0,0,2.329.428,6.5,6.5,0,0,0,5.163-2.56l1.811-2.356a8.923,8.923,0,0,0,5.091,2.227l8.134,7.01,3.665,3.159a1.048,1.048,0,0,1,.11,1.478l-.46.533a1.608,1.608,0,0,1-2.263.166.9.9,0,0,0-.118-.085l-3.063-2.641a.9.9,0,0,0-1.18,1.369l2.489,2.146-1.135,1.318a1.6,1.6,0,0,1-2.262.167l-.013-.01-2.846-2.454a.9.9,0,1,0-1.18,1.369l2.175,1.875L175.8,130.8a1.607,1.607,0,0,1-1.405.547.9.9,0,1,0-.211,1.794,3.412,3.412,0,0,0,2.985-1.162l1.221-1.418a3.409,3.409,0,0,0,4.048-.855l1.223-1.419a3.419,3.419,0,0,0,4.047-.852l.46-.534a2.855,2.855,0,0,0-.3-4.026l-.742-.639,2.71,0a3.3,3.3,0,0,0,3.648,2.661l6.961-.857A.9.9,0,0,0,201.232,123.033Z" transform="translate(-139.563 -98.058)"/><path d="M444.654,251.249a2.65,2.65,0,1,0,2.65,2.65A2.653,2.653,0,0,0,444.654,251.249Zm0,3.493a.843.843,0,1,1,.843-.843A.844.844,0,0,1,444.654,254.742Z" transform="translate(-388.76 -232.795)"/><path d="M30.493,253.9a2.65,2.65,0,1,0-2.65,2.65A2.653,2.653,0,0,0,30.493,253.9ZM27,253.9a.843.843,0,1,1,.843.843A.844.844,0,0,1,27,253.9Z" transform="translate(-22.158 -232.795)"/></g></g></g></svg>