<svg xmlns="http://www.w3.org/2000/svg" width="77.092" height="47.563" viewBox="0 0 77.092 47.563"><defs><style>.a{fill:#4a20aa;}.b{fill:#f60;}.c{fill:#f9c295;}.d{fill:#e59f6a;}.e{fill:#f29f5c;}.f{fill:#ebeef2;}</style></defs><g transform="translate(0.001 -98.057)"><g transform="translate(1.129 99.187)"><g transform="translate(17.782 1.035)"><path class="a" d="M169.348,132.445,167.4,116.537l-3.643.452v0l-7.063-4a4.231,4.231,0,0,0-2.479-.533l-11.153,1.039a4.253,4.253,0,0,0-3.288,2.115l-7.861,13.628a1.889,1.889,0,0,0,.956,2.708l.322.122a6.93,6.93,0,0,0,1.89.425l-1,.874-1.993,1.749-5.668,4.869a2.451,2.451,0,0,0-.235,3.442l.575.663a3.1,3.1,0,0,0,4.39.3l2.166,2.5a3.091,3.091,0,0,0,4.39.3l2.164,2.5a3.1,3.1,0,0,0,4.392.3l1.176,1.024a3.1,3.1,0,0,0,4.392.3l1.6-1.4,13.439-10.542.014-.013,5.3-.005Z" transform="translate(-125.598 -112.431)"/><path class="b" d="M163.6,260.1l-.014.013-13.439,10.542-1.6,1.4a3.1,3.1,0,0,1-4.392-.3l-1.176-1.024a3.1,3.1,0,0,1-4.392-.3l-2.164-2.5a3.091,3.091,0,0,1-4.39-.3l-2.166-2.5a3.094,3.094,0,0,1-3.854.185,2.452,2.452,0,0,0,.192,2.948l.575.663a3.1,3.1,0,0,0,4.39.3l2.166,2.5a3.091,3.091,0,0,0,4.39.3l2.164,2.5a3.1,3.1,0,0,0,4.392.3l1.176,1.024a3.1,3.1,0,0,0,4.392.3l1.6-1.4,13.439-10.542.014-.013,5.3-.005-.587-4.8Z" transform="translate(-125.608 -237.263)"/></g><g transform="translate(10.423 1.664)"><path class="c" d="M124.815,145.7l-7.252-6.253-2.017-1.738-1.443-1.243-6.2-5.348.717-6.1a4.209,4.209,0,0,0-3.058-4.548l-13.525-3.742a3.13,3.13,0,0,0-3.62,1.59l-1.7,3.32-7.3-.5-1.87,15.919-.813,6.918,7.107.473.015.013,14.846,12.8,1.618,1.4a3.136,3.136,0,0,0,4.422-.328l2.165-2.512a3.136,3.136,0,0,0,4.422-.328l2.165-2.515a3.129,3.129,0,0,0,4.42-.326l2.168-2.514a3.135,3.135,0,0,0,4.42-.326l.575-.667A2.439,2.439,0,0,0,124.815,145.7Z" transform="translate(-76.727 -116.61)"/><path class="d" d="M252.353,299.036l-2.209-1.9a2.589,2.589,0,0,1-.107,3.247l-.611.708a3.328,3.328,0,0,1-4.692.346l-2.3,2.669a3.322,3.322,0,0,1-4.692.346l-2.3,2.67a3.329,3.329,0,0,1-4.694.349l-2.3,2.667a3.306,3.306,0,0,1-1.577,1.017l.979.844a3.136,3.136,0,0,0,4.422-.328l2.165-2.512a3.136,3.136,0,0,0,4.422-.328l2.165-2.515a3.129,3.129,0,0,0,4.42-.326l2.168-2.515a3.135,3.135,0,0,0,4.42-.326l.575-.667A2.439,2.439,0,0,0,252.353,299.036Z" transform="translate(-204.265 -269.95)"/></g><g transform="translate(16.47 28.372)"><path class="e" d="M118.317,295.1l-.86,1.136a2.81,2.81,0,0,0,.544,3.936h0a2.81,2.81,0,0,0,3.936-.544l.86-1.136a2.81,2.81,0,0,0-.544-3.936h0A2.81,2.81,0,0,0,118.317,295.1Z" transform="translate(-116.887 -293.988)"/><path class="e" d="M148.827,310.968l-1.62,2.139a2.81,2.81,0,0,0,.544,3.936h0a2.81,2.81,0,0,0,3.936-.544l1.62-2.139a2.81,2.81,0,0,0-.544-3.936h0A2.81,2.81,0,0,0,148.827,310.968Z" transform="translate(-142.158 -307.465)"/><path class="e" d="M179.164,328.342l-2.208,2.915a2.81,2.81,0,0,0,.544,3.936h0a2.81,2.81,0,0,0,3.936-.544l2.208-2.915a2.81,2.81,0,0,0-.544-3.936h0A2.81,2.81,0,0,0,179.164,328.342Z" transform="translate(-167.427 -322.224)"/><path class="e" d="M209.042,349.75l-2.336,3.084a2.81,2.81,0,0,0,.544,3.936h0a2.81,2.81,0,0,0,3.936-.544l2.336-3.084a2.81,2.81,0,0,0-.544-3.936h0A2.81,2.81,0,0,0,209.042,349.75Z" transform="translate(-192.698 -340.408)"/></g><path class="a" d="M198.506,116.986l-7.114-4a4.287,4.287,0,0,0-2.5-.533l-11.233,1.039a4.286,4.286,0,0,0-3.311,2.115l-7.918,13.628a1.883,1.883,0,0,0,.963,2.708l.324.122a7.04,7.04,0,0,0,8.07-2.3l3.034-3.948s7.292,8.443,15.32-1.417" transform="translate(-142.285 -111.396)"/><path class="a" d="M415.843,105.557l3.721,30.227-8.7,1.071a3,3,0,0,1-3.344-2.611l-2.988-24.272a3,3,0,0,1,2.611-3.344Z" transform="translate(-344.731 -105.557)"/><path class="b" d="M425.385,276.455a3.289,3.289,0,0,1-3.609-2.537l.411,3.337a3,3,0,0,0,3.344,2.611l8.7-1.071-.416-3.378Z" transform="translate(-359.398 -248.568)"/><path class="a" d="M11.222,105.557,7.5,135.784l7.117.876,1.584.2a3,3,0,0,0,3.344-2.611l2.988-24.272a3,3,0,0,0-2.611-3.344Z" transform="translate(-7.501 -105.557)"/><path class="b" d="M16.407,280.742,7.927,279.7,7.5,283.158l8.7,1.071a3,3,0,0,0,3.344-2.611l.316-2.564A3.524,3.524,0,0,1,16.407,280.742Z" transform="translate(-7.501 -252.931)"/><g transform="translate(3.793 23.066)"><circle class="f" cx="2.183" cy="2.183" r="2.183" transform="translate(62.759)"/><circle class="f" cx="2.183" cy="2.183" r="2.183"/></g></g><g transform="translate(-0.001 98.057)"><path d="M38.56,135.456a3.929,3.929,0,0,0-3.1-.73,3.937,3.937,0,0,0-4.423-3.255,3.984,3.984,0,0,0-.75.179A3.933,3.933,0,0,0,25,129.118a3.94,3.94,0,0,0-6.485-1.572l-4.133-.275,2.533-20.58,4.54.309.077,0a1.129,1.129,0,0,0,1-.614l1.7-3.32a2.009,2.009,0,0,1,2.314-1.016l2.527.7a1.129,1.129,0,0,0,.6-2.177l-2.526-.7a4.276,4.276,0,0,0-4.926,2.162L20.87,104.7l-3.674-.25.087-.707a4.134,4.134,0,0,0-3.594-4.6l-8.7-1.071a1.129,1.129,0,1,0-.276,2.242l8.7,1.071a1.871,1.871,0,0,1,1.628,2.085l-2.988,24.272a1.874,1.874,0,0,1-2.085,1.628l-8.7-1.071a1.129,1.129,0,0,0-.276,2.242l8.7,1.071a4.125,4.125,0,0,0,4.122-2.108l3.092.206a3.939,3.939,0,0,0,3.495,5.74,4.016,4.016,0,0,0,.547-.038l.035-.006c0,.012,0,.023,0,.035a3.935,3.935,0,0,0,3.9,3.4,3.978,3.978,0,0,0,.58-.044,3.931,3.931,0,0,0,3.9,3.436,3.97,3.97,0,0,0,.578-.044c0,.012,0,.025,0,.038a3.941,3.941,0,0,0,3.894,3.4,4.008,4.008,0,0,0,.547-.038,3.913,3.913,0,0,0,2.6-1.524l2.336-3.084A3.943,3.943,0,0,0,38.56,135.456Zm-17.922-2.288a1.68,1.68,0,0,1-1.569-2.679l.86-1.136a1.68,1.68,0,0,1,2.679,2.029l-.86,1.136A1.67,1.67,0,0,1,20.638,133.168Zm3.235,3.067a1.68,1.68,0,0,1-.325-2.354l.86-1.136h0l.76-1a1.68,1.68,0,0,1,2.679,2.029l-1.62,2.139A1.682,1.682,0,0,1,23.873,136.236Zm4.479,3.392a1.68,1.68,0,0,1-.325-2.353h0l1.62-2.139h0l.588-.776a1.68,1.68,0,0,1,2.68,2.028L30.707,139.3h0A1.682,1.682,0,0,1,28.353,139.628Zm9.169-.017L35.186,142.7a1.68,1.68,0,1,1-2.679-2.029l2.208-2.915v0l.127-.168a1.68,1.68,0,1,1,2.679,2.029Z" transform="translate(0.001 -98.057)"/><path d="M211.869,129.276a1.129,1.129,0,0,0-1.259-.983l-8.7,1.071a1.872,1.872,0,0,1-2.085-1.628l-.089-.724h0l-.021-.168-2.878-23.38a1.871,1.871,0,0,1,1.628-2.085l8.7-1.071a1.129,1.129,0,0,0-.276-2.242l-8.7,1.071a4.135,4.135,0,0,0-3.623,4.205l-2.194.27-6.795-3.824a5.392,5.392,0,0,0-3.154-.674h-.007l-2.045.189a1.129,1.129,0,0,0,.208,2.249l2.051-.19a3.144,3.144,0,0,1,1.839.392l7.045,3.964a1.129,1.129,0,0,0,.76.179l2.549-.314,1.869,15.184.646,5.251-4.065,0a1.128,1.128,0,0,0-.737.275l-.315.245-10.205-8.8a13.7,13.7,0,0,0,6.634-4.845,1.129,1.129,0,1,0-1.751-1.426c-2.323,2.853-4.766,4.322-7.261,4.365-3.634.068-6.3-2.945-6.329-2.973a1.129,1.129,0,0,0-1.75.05l-3.034,3.948a5.876,5.876,0,0,1-6.775,1.928l-.324-.122a.754.754,0,0,1-.386-1.084l7.917-13.628A3.163,3.163,0,0,1,171.4,102.4l4.688-.433a1.129,1.129,0,0,0-.208-2.249l-4.688.434A5.426,5.426,0,0,0,167,102.827l-7.917,13.628a3.013,3.013,0,0,0,1.54,4.332l.324.122a8.228,8.228,0,0,0,2.911.535,8.122,8.122,0,0,0,6.454-3.2l2.263-2.945a11.153,11.153,0,0,0,6.364,2.784l10.167,8.762,4.581,3.948a1.31,1.31,0,0,1,.138,1.848l-.575.667a2.01,2.01,0,0,1-2.829.207,1.128,1.128,0,0,0-.148-.106l-3.828-3.3a1.129,1.129,0,1,0-1.475,1.711l3.111,2.683-1.419,1.647a2,2,0,0,1-2.828.209l-.017-.013-3.557-3.067a1.129,1.129,0,1,0-1.475,1.711l2.718,2.344-1.428,1.658a2.008,2.008,0,0,1-1.756.683,1.129,1.129,0,0,0-.264,2.243,4.265,4.265,0,0,0,3.731-1.452l1.526-1.772a4.262,4.262,0,0,0,5.059-1.069l1.529-1.774a4.274,4.274,0,0,0,5.059-1.065l.575-.667a3.569,3.569,0,0,0-.374-5.033l-.927-.8,3.388,0a4.126,4.126,0,0,0,4.56,3.326l8.7-1.071A1.129,1.129,0,0,0,211.869,129.276Z" transform="translate(-134.786 -98.058)"/><path d="M445.316,251.249a3.312,3.312,0,1,0,3.312,3.312A3.316,3.316,0,0,0,445.316,251.249Zm0,4.366a1.054,1.054,0,1,1,1.054-1.054A1.055,1.055,0,0,1,445.316,255.615Z" transform="translate(-375.452 -228.183)"/><path d="M31.817,254.561a3.312,3.312,0,1,0-3.312,3.312A3.316,3.316,0,0,0,31.817,254.561Zm-4.366,0a1.054,1.054,0,1,1,1.054,1.054A1.055,1.055,0,0,1,27.452,254.561Z" transform="translate(-21.4 -228.183)"/></g></g></svg>