<svg xmlns="http://www.w3.org/2000/svg" xmlns:xlink="http://www.w3.org/1999/xlink" width="199.096" height="90.572" viewBox="0 0 199.096 90.572"><defs><style>.a,.c{fill:#ef2e41;}.b{clip-path:url(#a);}.c{fill-rule:evenodd;}</style><clipPath id="a"><path class="a" d="M373.638-694.266h199.1v-90.572h-199.1Z" transform="translate(-373.638 784.838)"/></clipPath></defs><g transform="translate(-81.395 -247.88)"><g transform="translate(81.395 247.88)"><g class="b" transform="translate(0 0)"><g transform="translate(79.488 48.412)"><path class="a" d="M-.079-.034a7.1,7.1,0,0,1,7.3,7.425c0,5.279-3.841,9.455-8.7,9.455-4.427,0-7.3-2.992-7.3-7.641,0-5.189,3.716-9.24,8.7-9.24M-1.942,24.233a17.024,17.024,0,0,0,13.383-5.907,17.414,17.414,0,0,0,4.179-11.64c0-8.274-6.042-14.1-15.2-14.1A17.283,17.283,0,0,0-13-1.549,17.536,17.536,0,0,0-17.136,10.1a13.964,13.964,0,0,0,4.6,10.591c2.735,2.377,6.244,3.542,10.591,3.542" transform="translate(17.136 7.414)"/></g><g transform="translate(114.857 49.084)"><path class="a" d="M-.022,0h9.2l6.373,14.9a27.625,27.625,0,0,1,1.731,4.935v-.753a29.962,29.962,0,0,1,.386-4.256L19.985,0h8.069L23.27,30.186H14.42L7.66,14.821A27.126,27.126,0,0,1,5.885,9.87v.849A32.5,32.5,0,0,1,5.553,14.9L3.266,30.186H-4.793Z" transform="translate(4.793)"/></g><g transform="translate(150.321 48.364)"><path class="a" d="M-.115-.048A12.177,12.177,0,0,0-8.129-3.092c-4.987,0-8.619,3.844-8.619,9.285,0,4.858,2.789,7.692,7.811,7.692a17.474,17.474,0,0,0,6.878-1.57l-1.271,7.808a23.883,23.883,0,0,1-7.419,1.023c-8.693,0-14.22-5.878-14.22-14.615A17.789,17.789,0,0,1-21.052-4.823c3-3.674,7.6-5.7,13.258-5.7A19.544,19.544,0,0,1,1.239-8.365Z" transform="translate(24.967 10.52)"/></g><g transform="translate(176.907 49.084)"><path class="a" d="M-.022,0h17.43L16.321,6.917H6.946L6.139,11.9h8.78l-1.052,6.5H5.132L3.276,30.186H-4.79Z" transform="translate(4.79)"/></g><g transform="translate(190.532 83.549)"><path class="a" d="M-.008-.017A10.14,10.14,0,0,0-.822-1.532a11.305,11.305,0,0,1-.827-1.5l-.039-.158.331-.518c.071.154.306.586.714,1.313A11.686,11.686,0,0,1-.008-1.076,2.337,2.337,0,0,1,.176-.2l-.006.18Z" transform="translate(1.687 3.707)"/></g><g transform="translate(187.908 83.229)"><path class="a" d="M0-.015.418,0,.849.02c.389,0,.582-.087.582-.267L1.406-.4A6.657,6.657,0,0,0,.727-1.511,7.3,7.3,0,0,1,.058-2.634L.006-2.882l.3-.405.762.55-.2.351.048.219a5.634,5.634,0,0,0,.5.888,5.728,5.728,0,0,1,.5.881l.132.547c0,.257-.164.418-.476.5A6.954,6.954,0,0,1,.29.725Z" transform="translate(0 3.287)"/></g><g transform="translate(182.93 85.578)"><path class="a" d="M-.011,0C-.13,0-.217.15-.275.446a2.757,2.757,0,0,0,.82.364L.6.639.382.279-.011,0m-2.342.64h.724A1.307,1.307,0,0,0-.754.4l.267-.45L-.1-.284A2.258,2.258,0,0,1,.655.06c.521.293.785.438.8.447A4.144,4.144,0,0,0,2.878.639l.28.737H2.412l-.492-.013-.466-.2q.029.444-.405.444a1.935,1.935,0,0,1-.82-.261C.2,1.337-.059,1.205-.532.951l-.36.367-.447.08-.309-.016-.418-.006Z" transform="translate(2.353 0.284)"/></g><g transform="translate(176.98 82.646)"><path class="a" d="M0-.018.409,0,1.171,0C2.329,0,2.873-.082,2.8-.269c-.042-.1-.251-.225-.643-.38C1.49-.9,1.116-1.031,1.071-1.06a1.321,1.321,0,0,1-.721-.573L.3-1.868c0-.669,1.139-1.338,3.426-2a1.04,1.04,0,0,1-.283.808,2.48,2.48,0,0,1-.853.4c-.653.2-1.107.357-1.371.46-.492.2-.711.357-.672.444a5.353,5.353,0,0,0,.788.245c.6.158.923.251.981.277A10.609,10.609,0,0,1,3.69-.658,7.783,7.783,0,0,0,4.8-.2a4.927,4.927,0,0,0,1.438.183l.293.74H5.662A3.922,3.922,0,0,1,4.263.2c-.447-.241-.9-.486-1.358-.727l.3.637c0,.431-.576.643-1.718.643L.84.741.286.722Z" transform="translate(0 3.872)"/></g><g transform="translate(143.609 84.958)"><path class="a" d="M-.145,0,.086-.4l.7.29L.971-.548.228-.856.041-.474-.67-.77-.843-.3l.7.293M-30.853,4.761l.228-.386.7.29.187-.441-.74-.306-.193.38-.7-.3-.171.476.692.286M-.921,1.421l.425.006.357.006L.37,1.357l.341-.341.4.328.547.09.836-.01-.3-.74L1.811.7,1.518.707,1.109.639.817.337.752.327A1.224,1.224,0,0,1-.312.707L-.75.7-1.217.685l.3.737Z" transform="translate(31.545 0.856)"/></g><g transform="translate(166.799 85.291)"><path class="a" d="M-.017-.014.157-.452.89-.169.7.314-.017-.014M4.107-1.147H3.76l-.283.019L3.2-1.121a1.265,1.265,0,0,1-.936-.364,8.075,8.075,0,0,1-2.973.6,5.55,5.55,0,0,1-1.747-.264A1.733,1.733,0,0,1-3.636-2.1L-3.7-2.417l.209-.679.122.035-.064.463c.142.351.544.611,1.2.775a6.948,6.948,0,0,0,1.638.18,11.8,11.8,0,0,0,1.531-.08,1.589,1.589,0,0,0,1.116-.524l.093.019a1.023,1.023,0,0,0,.936.364l.386-.006.347-.016.29.74Z" transform="translate(3.701 3.096)"/></g><g transform="translate(161.319 83.549)"><path class="a" d="M-.008-.017a11.772,11.772,0,0,0-.82-1.515,10.587,10.587,0,0,1-.827-1.5L-1.7-3.189l.328-.518c.071.154.318.586.721,1.313.286.54.5.981.64,1.319A2.521,2.521,0,0,1,.166-.2l-.01.18Z" transform="translate(1.697 3.707)"/></g><g transform="translate(158.698 83.229)"><path class="a" d="M0-.015.421,0,.849.02c.389,0,.582-.087.582-.267L1.4-.4A7.41,7.41,0,0,0,.734-1.511,7.3,7.3,0,0,1,.055-2.634L.01-2.882l.3-.405.746.55-.19.351.051.219a5.3,5.3,0,0,0,.5.888A6.941,6.941,0,0,1,1.921-.4l.122.547c0,.257-.158.418-.476.5A6.856,6.856,0,0,1,.286.725Z" transform="translate(0 3.287)"/></g><g transform="translate(154.581 85.49)"><path class="a" d="M-.009,0h.3l-.3-.212L-.376-.323l-.18.148C-.508-.056-.328,0-.009,0m2.561.74H.737l.016.325C.753,1.938.367,2.386-.4,2.386a4.646,4.646,0,0,1-1.557-.376l.045-.071c.418.035.621.051.579.051A1.965,1.965,0,0,0-.073,1.607,2.336,2.336,0,0,0,.515.735,1.985,1.985,0,0,1-.524.555.814.814,0,0,1-.771-.153c0-.573.151-.862.476-.862.219,0,.508.338.869,1.01H2.266Z" transform="translate(1.959 1.015)"/></g><g transform="translate(149.357 83.198)"><path class="a" d="M-.014-.012a1.185,1.185,0,0,0-1.142.66C-.773.628-.387.589.015.538.645.448.929.351.88.232L.488.043l-.5-.055M-3.051.67c.714,0,1.174,0,1.361-.016L-1.729.174A6.029,6.029,0,0,0-2.359-.871,4.794,4.794,0,0,1-2.971-1.91l-.045-.2.273-.521L-2-2.061l-.187.46.216.524a4.325,4.325,0,0,1,.315.544,5,5,0,0,1,.228.846A1.489,1.489,0,0,1,.015-.739l.769.19.457.47.068.312c0,.782-1.351,1.177-4.079,1.177Z" transform="translate(3.051 2.631)"/></g><g transform="translate(146.2 85.026)"><path class="a" d="M0,0l.19-.463.746.312L.752.3,0,0m-.972,1.01.466.016.438.006A1.217,1.217,0,0,0,.99.651l.074.01.293.3.418.068L2.1,1.024l.438-.016.283.74-.933.01-.544-.09L.954,1.339.607,1.68l-.5.077-.357-.006L-.68,1.745l-.3-.737Z" transform="translate(0.976 0.465)"/></g><g transform="translate(141.699 86.499)"><path class="a" d="M-.024,0H-1.561c-.421,0-.608.048-.573.164l.444.145A4.905,4.905,0,0,1-.9.489a.8.8,0,0,1,.55.428l.035.125c0,.267-.312.492-.91.685a4.71,4.71,0,0,1-1.438.248A3.6,3.6,0,0,1-4.1,1.7a1.591,1.591,0,0,1-.9-.84l-.1-.576a3.86,3.86,0,0,1,.1-.746l.174.051a1.019,1.019,0,0,0,0,.734,1.261,1.261,0,0,0,.849.711,3.513,3.513,0,0,0,1.28.219A10.793,10.793,0,0,0-1.61,1.18c.6-.061.878-.154.83-.257L-.934.872C-1.262.849-1.59.823-1.906.814A.827.827,0,0,1-2.639.392L-2.7.087q0-.84,2.4-.83Z" transform="translate(5.11 0.743)"/></g><g transform="translate(136.184 83.229)"><path class="a" d="M0-.015.425,0,.849.02c.389,0,.582-.087.582-.267L1.4-.4A6.652,6.652,0,0,0,.734-1.511,6.357,6.357,0,0,1,.064-2.634L.013-2.882l.3-.405.756.55-.209.351.058.219a6.025,6.025,0,0,0,.492.888A5.21,5.21,0,0,1,1.921-.4l.129.547c0,.257-.161.418-.483.5A6.923,6.923,0,0,1,.283.725Z" transform="translate(0 3.287)"/></g><g transform="translate(133.003 83.335)"><path class="a" d="M0-.015A5.292,5.292,0,0,0,.917-.04L1.2-.327,1.081-.79A9.966,9.966,0,0,0,.64-1.7C.425-2.115.286-2.415.206-2.617L.2-2.688l.171-.254L.6-3.18c.273.573.7,1.425,1.309,2.558l.264.383.505.225H3.5l.286.74H2.966A1.364,1.364,0,0,1,2.094.442l-.5-.579.032.3L1.351.651A3.086,3.086,0,0,1,.286.725Z" transform="translate(0 3.18)"/></g><g transform="translate(125.884 85.992)"><path class="a" d="M0,0,.434.014l.4.006A1.158,1.158,0,0,0,1.856-.363h.058l.2.273L2.522,0a3.171,3.171,0,0,0,.769-.061l.415-.447.135.019.579.386.331-.109L4.81-.491h.122l.534.412.618.093L7.078,0H7.4L7.7.738H6.225L5.5.535,4.993.075,4.874.448,4.459.657,4.012.535,3.706.274,3.429.638a1.364,1.364,0,0,1-.621.1,1.336,1.336,0,0,1-1-.409L1.515.683,1.052.77.7.757.283.738Z" transform="translate(0 0.511)"/></g><g transform="translate(119.93 82.646)"><path class="a" d="M0-.018.418,0,1.165,0C2.336,0,2.879-.082,2.8-.269c-.035-.1-.251-.225-.637-.38-.679-.251-1.039-.383-1.1-.412a1.35,1.35,0,0,1-.717-.573L.3-1.868q0-1,3.439-2a1.011,1.011,0,0,1-.3.808,2.412,2.412,0,0,1-.856.4c-.647.2-1.1.357-1.361.46-.492.2-.721.357-.682.444a6.251,6.251,0,0,0,.8.245c.6.158.92.251.984.277A11.424,11.424,0,0,1,3.7-.658,7.335,7.335,0,0,0,4.8-.2a4.972,4.972,0,0,0,1.438.183l.293.74H5.665A3.965,3.965,0,0,1,4.266.2c-.45-.241-.9-.486-1.358-.727L3.2.111c0,.431-.576.643-1.718.643L.84.741.29.722Z" transform="translate(0 3.872)"/></g><g transform="translate(112.959 83.365)"><path class="a" d="M-.011-.01-.442-.119-.908-.338l-.039-.19c0-.277.2-.524.621-.714l.245.325c-.347.084-.512.161-.483.238l.283.138c.3.042.457.068.466.068l.328.264.032.142L.35.286-.133.441A3.4,3.4,0,0,1-1.05.222l.6-.068C-.133.1.012.045-.011-.01m5.292,1.8-.444.006a2.222,2.222,0,0,1-.9-.135A3.207,3.207,0,0,1,3.242,1a1.094,1.094,0,0,1-.927.943,9.733,9.733,0,0,1-1.979.135,5.6,5.6,0,0,1-1.65-.167A1.49,1.49,0,0,1-2.256.968L-2.334.56l.125-.447.138.064,0,.4c.106.273.46.473,1.068.589A6.951,6.951,0,0,0,.356,1.29a16.685,16.685,0,0,0,1.721-.061c.5-.093.74-.306.74-.643L2.708.119a8.243,8.243,0,0,0-.415-.885c-.216-.4-.364-.688-.447-.891l.074-.431A2.863,2.863,0,0,1,2.737-1c.238.46.476.91.714,1.367.277.454.55.682.82.682H5Z" transform="translate(2.334 2.088)"/></g><g transform="translate(107.476 83.549)"><path class="a" d="M-.008-.017a10.022,10.022,0,0,0-.82-1.515,11.077,11.077,0,0,1-.82-1.5l-.042-.158.322-.518c.08.154.322.586.721,1.313a11.372,11.372,0,0,1,.64,1.319A2.331,2.331,0,0,1,.172-.2l-.016.18Z" transform="translate(1.69 3.707)"/></g><g transform="translate(104.853 83.229)"><path class="a" d="M0-.015.418,0,.846.02c.392,0,.586-.087.586-.267L1.4-.4A6.506,6.506,0,0,0,.727-1.511,7.681,7.681,0,0,1,.055-2.634L.006-2.882l.306-.405.753.55-.2.351.045.219a6.352,6.352,0,0,0,.492.888A5.285,5.285,0,0,1,1.917-.4l.129.547c0,.257-.158.418-.473.5A7.053,7.053,0,0,1,.28.725Z" transform="translate(0 3.287)"/></g><g transform="translate(98.836 85.214)"><path class="a" d="M0-.006c.811,0,1.306-.006,1.483-.026A5.64,5.64,0,0,0,2.725-.379a7.1,7.1,0,0,0-1.19-.187A4.171,4.171,0,0,0,.811-.46L.9-1.042a.811.811,0,0,1,.708-.251,3.782,3.782,0,0,1,.939.148c.483.106.808.171.959.19a13.473,13.473,0,0,0,1.444.064l.087.566-.682.048A1.724,1.724,0,0,0,5.495.029L5.971.013,6.4-.006l.28.74H5.514C4.668.734,4.163.56,4.028.213l.006-.489h-.3a1.618,1.618,0,0,0-.8.251L2.12.461A2.323,2.323,0,0,1,1.039.734H.29Z" transform="translate(0 1.293)"/></g><g transform="translate(94.995 84.236)"><path class="a" d="M-.02-.01H-.837A1.253,1.253,0,0,1-1.725-.5,4.558,4.558,0,0,1-2.4-1.484l-.412-.791-.27.5.035.18.335.55.331.557.039.161L-2.6-.123a4.953,4.953,0,0,1-.566.016L-3.71-.175l-.376-.29h-.125a1.45,1.45,0,0,0,.006.785c.09.228.389.335.91.335A1.655,1.655,0,0,0-2.426.485L-2.04-.03a2.468,2.468,0,0,0,.727.637A2.087,2.087,0,0,0-.47.739h.338l.4-.006Z" transform="translate(4.262 2.275)"/></g><g transform="translate(91.202 85.213)"><path class="a" d="M0-.013.2-.447l.73.283.18-.376.73.3L1.63.232l-.7-.293-.2.367L0-.013M-1.041-1.531l.711.016C.51-1.515.9-1.573.854-1.7L.6-1.879.339-2.091.32-2.159c0-.048.068-.264.183-.66a3.081,3.081,0,0,1,.727.939l.116.489c0,.306-.206.489-.614.553A12.532,12.532,0,0,1-.745-.792Z" transform="translate(1.041 2.818)"/></g><g transform="translate(87.345 84.236)"><path class="a" d="M-.02-.01H-.837A1.236,1.236,0,0,1-1.728-.5a4.672,4.672,0,0,1-.688-.984l-.4-.791-.264.5.035.18.331.55.331.557.032.161L-2.6-.123a5.174,5.174,0,0,1-.573.016l-.54-.068L-4.1-.464h-.116A1.278,1.278,0,0,0-4.2.321c.08.228.386.335.894.335A1.663,1.663,0,0,0-2.436.485L-2.05-.03a2.438,2.438,0,0,0,.737.637A2.005,2.005,0,0,0-.48.739h.338L.273.733Z" transform="translate(4.266 2.275)"/></g><g transform="translate(83.551 85.213)"><path class="a" d="M0-.013l.2-.434.737.283.18-.376.721.3-.2.47-.7-.293-.2.367L0-.013M-1.047-1.531l.714.016c.84,0,1.235-.058,1.19-.18L.6-1.879.33-2.091.323-2.159a5.891,5.891,0,0,1,.171-.66,3.156,3.156,0,0,1,.737.939l.106.489c0,.306-.2.489-.611.553A12.482,12.482,0,0,1-.758-.792Z" transform="translate(1.047 2.818)"/></g><g transform="translate(79.817 83.611)"><path class="a" d="M-.009-.012-.418-.038-.746-.144-.54-.4l.364-.187.245.4.071.093-.148.08M-1.335-1.8-1.1-2.2l.7.286.171-.434L-.949-2.65l-.171.351-.7-.261-.209.47.692.286M2.111.239H1.374L.817.1.547-.321c-.36-.6-.631-1.046-.8-1.345l-.2.158-.125.19.245.486a4.974,4.974,0,0,0-.653.364l-.29.515.068.277c.09.235.425.354,1.013.354L.084.441.3.152A2.886,2.886,0,0,0,.965.9a3.516,3.516,0,0,0,1.12.084H2.4L2.111.239Z" transform="translate(2.026 2.65)"/></g><g transform="translate(12.807 14.698)"><path class="c" d="M-.134-.194q-.941.473-1.924.875A109.658,109.658,0,0,0,27.527-19.77c.47-.537,1.422-1.586,1.892-2.127,3.992-4.012,8.9-9.114,12.611-13.406a20.032,20.032,0,0,1,3.77-3.352c.54-.466,1.187-.875.878-.222-.8,1.187-3.05,3.97-2.847,4.14a5.312,5.312,0,0,0,.962-1.065c.216.18,2-1.161,2.439-1.737.566-.473,3.478-3.706,3.976-4.263,1.438-1.7-1.441,4.343-3.169,6.737-.8,1.235.273.219.438.341-.968,1.107-1.258,1.814-2.262,2.9.071.055-2.738,3.462-4.227,5.086,0,0-.544.492-2.043,2.11-.508.534-.56.486-.6.434l.1.1c-.611.431-1.512,1.592-2.088,2.062l.1.093c-1.132.939-2.072,2.085-3.191,3.047l.1.1a6.311,6.311,0,0,0-1.023,1.068l.106.1c-.489.553-1.683,1.444-1.583,1.547l-.1-.1c-2.178,1.979-3.819,3.465-5.488,4.925A88.773,88.773,0,0,1,9.878.163C9.231.53,8.527.787,9.1.292c-.634.383-1.3.724-1.95,1.075-1.309.695-.753.164-2.065.856-10.629,5.115-22.163,9-34.144,9.4,2.973-.283,5.17-.618,8.117-1.02-.013-.071-.032-.209.711-.315,4.356-.83,9.4-2.062,11.4-3.066.682-.283,1.322-.695,3.381-1.483L-7.507,6.5l-.071-.2C-4.84,5.256-1.462,3.847,1.14,2.525l-.09-.19L2.366,1.7C3.473.656-3.689,4.191-7.2,5.2l-.09-.261,1.358-.505L-5.983,4.3A77.263,77.263,0,0,1-17.744,7.733c.708-.135,2.12-.438,2.812-.643-.016-.071-.035-.138.66-.318A53.608,53.608,0,0,1-23.461,8.5c-.724.035-.026-.273,2.075-.65,2.127-.341,3.529-.65,5.624-1.123l-.029-.129c-1.387.341-3.484.8-4.9,1.007-.717.071,1.374-.463.65-.4a13.745,13.745,0,0,1-2.12.27,52.775,52.775,0,0,0,6.975-1.393c.672-.254,1.351-.5,1.313-.634A29.707,29.707,0,0,0-5.96,2.357C-5.329,2.02-2.045.713-.134-.194" transform="translate(29.056 42.097)"/></g><g transform="translate(0.017 -0.005)"><path class="c" d="M-.207-.307c-.984.479-1.95.9-2.953,1.322A178.141,178.141,0,0,0,42.845-29.77c.772-.775,2.316-2.326,3.053-3.117a233.357,233.357,0,0,0,19.361-20.5,72.064,72.064,0,0,1,5.054-5.595c.672-.814,1.48-1.583,1.033-.6-.991,1.882-4.243,6.241-4.05,6.4a11.765,11.765,0,0,0,1.364-1.7c.232.18,2.593-2.184,3.182-3.124.7-.8,4.678-6.27,3.7-8.056-.357-.743-.261-.8.109-.389.534.36.827,2.22.4,3.491A30.133,30.133,0,0,1,72.4-54.944c-1.2,1.924.286.209.46.322-1.377,1.821-1.885,2.854-3.327,4.594.074.061-4.137,5.35-6.431,7.8-.006-.006-.782.814-3.095,3.243-.769.811-.82.762-.872.714l.1.1c-.891.7-2.336,2.41-3.195,3.133l.1.1c-1.683,1.486-3.2,3.124-4.88,4.613l.1.1a13.867,13.867,0,0,0-1.6,1.56l.087.1c-.759.811-2.535,2.2-2.445,2.3l-.09-.106c-3.349,2.976-5.9,5.147-8.464,7.316A156.974,156.974,0,0,1,13.865-2.006c-.965.573-2.027.968-1.11.315L9.8-.075C7.82.986,8.711.259,6.713,1.285a170.733,170.733,0,0,1-25.045,9.761C-26.9,13.62-35.7,15.827-44.977,15.875a87.9,87.9,0,0,0,12.441-1.467c-.013-.071-.045-.206,1.075-.418A110.424,110.424,0,0,0-14.269,9.11C-13.224,8.688-12.233,8.148-9.1,7l-3.14,1.126-.071-.2C-8.128,6.4-2.967,4.384,1.054,2.415l-.093-.19,2.011-.946C4.805-.027-6.233,5.14-11.567,6.706l-.09-.257,2.081-.75-.055-.132a160.742,160.742,0,0,1-17.926,5.488c1.078-.245,3.214-.8,4.282-1.1-.016-.068-.035-.132,1.026-.434a93.808,93.808,0,0,1-13.982,3.034c-1.113.074-.035-.235,3.179-.888,3.233-.631,5.379-1.123,8.564-1.962l-.039-.132c-2.117.566-5.3,1.4-7.467,1.744-1.1.148,2.1-.643,1.01-.492-1.068.222-2.143.431-3.233.553A97.3,97.3,0,0,0-23.554,8.952a6.738,6.738,0,0,0,2.036-.865,69.23,69.23,0,0,0,12.3-4.6C-8.25,2.981-3.1,1.1-.207-.307" transform="translate(44.977 66.695)"/></g><g transform="translate(25.051 23.38)"><path class="c" d="M-.062-.094-1,.4C4.159-2.7,9.657-6.04,13.768-9.865l.914-1.087a76.647,76.647,0,0,0,6.135-6.055,5.035,5.035,0,0,1,1.769-1.287c.28-.2.576-.344.637-.042-.138.569-.991,1.934-.8,2.088l.428-.515c.245.167,1.251-.431,1.393-.772a5.518,5.518,0,0,0,1.223-2.722c.01-.528.463-.18.753,1.02a6.754,6.754,0,0,1-.412,3.381c-.3.779.309.19.489.277a18.367,18.367,0,0,1-1.1,1.8,16.3,16.3,0,0,1-2.217,2.812s-.309.241-1.139,1.042l-.364.171.087.093c-.367.167-.83.775-1.158.978l.09.106c-.656.4-1.142.988-1.757,1.425l.093.106c-.3.241-.586.476-.544.531l.087.109-.83.759-.093-.106c-1.181.923-2.03,1.644-2.9,2.358a47.2,47.2,0,0,1-8.39,5.476c-.322.187-.717.248-.463-.055l-.962.557c-.643.373-.421.006-1.068.364C-1.806,5.378-6.487,8.695-13.481,9.387A25.471,25.471,0,0,0-9.035,8.364c-.029-.071-.061-.2.309-.318A25.182,25.182,0,0,0-3.247,5.629,6.737,6.737,0,0,1-1.7,4.583l-.994.483-.087-.187c1.3-.692,2.9-1.58,4.147-2.332l-.106-.183L1.9,2.016C2.309,1.25-1.166,3.2-2.851,3.9l-.116-.248.65-.312-.061-.132A59.04,59.04,0,0,1-8,5.651c.338-.129,1.01-.386,1.348-.524-.032-.061-.055-.119.273-.261A21.693,21.693,0,0,1-10.791,6.33c-.364.01-.058-.241.927-.634,1.007-.315,1.679-.56,2.677-.955l-.058-.125a17.726,17.726,0,0,1-2.32.849c-.36.042.589-.428.238-.38a3.992,3.992,0,0,1-1.013.248,23.266,23.266,0,0,0,3.3-1.168c.3-.2.6-.409.544-.531A10.461,10.461,0,0,0-2.855,1.427,26.407,26.407,0,0,1-.062-.094" transform="translate(13.481 20.495)"/></g></g></g></g></svg>