<svg xmlns="http://www.w3.org/2000/svg" width="201" height="158.511" viewBox="0 0 201 158.511"><defs><style>.a{fill:#f60;opacity:0.11;}.b{fill:#ef2e41;}</style></defs><g transform="translate(-21 -61.583)"><path class="a" d="M66.8,219.986c-25.272.086-32.467-.086-38.876-6.126-15.2-14.322-4.256-56.584,34.034-67.525,9.161-2.618,16.08-2.626,23.263-13.089,5.634-8.207,7.9-18.119,10.62-27.375,5.825-19.854,18.4-46.517,45.316-44.138,14.3,1.264,23.831,10.781,31.275,22.8a112.249,112.249,0,0,1,14.538,36.782c3.515,17.353,18.743,28.981,27.132,44.194,7.819,14.18,14.167,39.347-3.086,50.192C201.219,221.858,200.059,219.534,66.8,219.986Z" transform="translate(0 0)"/><g transform="translate(21 117.915)"><rect class="b" width="127.264" height="82.683" transform="translate(59.837 10.607)"/><rect class="b" width="9.718" height="83.455" transform="translate(55.98 10.144)"/><rect class="b" width="25.453" height="0.309" transform="translate(84.364 33.129)"/><path class="b" d="M868.77,447.4H833.753v-32.7H868.77Zm-34.709-.309h34.4V415h-34.4Z" transform="translate(-700.952 -369.531)"/><rect class="b" width="0.309" height="47.477" transform="matrix(0.682, -0.731, 0.731, 0.682, 132.85, 45.429)"/><rect class="b" width="47.477" height="0.309" transform="matrix(0.731, -0.682, 0.682, 0.731, 132.85, 77.597)"/><rect class="b" width="35.943" height="0.309" transform="translate(84.364 55.805)"/><rect class="b" width="35.943" height="0.309" transform="translate(84.364 61.358)"/><rect class="b" width="35.943" height="0.309" transform="translate(84.364 66.911)"/><path class="b" d="M3.259,0A3.259,3.259,0,1,1,0,3.259,3.259,3.259,0,0,1,3.259,0Z" transform="translate(111.043 0)"/><circle class="b" cx="3.259" cy="3.259" r="3.259" transform="translate(120.21 0)"/><circle class="b" cx="3.259" cy="3.259" r="3.259" transform="translate(129.376 0)"/><rect class="b" width="109.632" height="0.389" transform="translate(0 101.79)"/><circle class="b" cx="2.145" cy="2.145" r="2.145" transform="translate(30.212 33.656)"/><ellipse class="b" cx="6.154" cy="6.752" rx="6.154" ry="6.752" transform="translate(30.731 21.979)"/><path class="b" d="M172.593,456.285l-.159.794s-.477.477-.238.715.159,1.35.159,1.35l-.477,3.1-2.78,12.55a23.936,23.936,0,0,0-6.513,7.069c-2.86,4.686-2.939,5.878-2.939,5.878l3.177,1.35,7.943-9.611a12.185,12.185,0,0,0,3.018-2.542c.794-1.191,5.719-13.5,5.719-13.5l2.78,12.868a36.687,36.687,0,0,0,.556,7.7,32.327,32.327,0,0,1,.794,5.8l3.733-.4s-.238-11.279-.635-12.471c0,0,1.668-13.742-1.668-19.222l-1.986-8.023-3.336-.159Z" transform="translate(-140.038 -398.522)"/><path class="b" d="M137.262,671.015l-3.972-2.462-1.827,3.495s-4.051,2.462-3.177,4.289a5.484,5.484,0,0,0,1.668,2.3l.556-.238,1.033,1.906a5.752,5.752,0,0,0,7.069,1.906,1.6,1.6,0,0,0,0-1.906c-.715-1.033-2.542-3.257-2.542-3.257Z" transform="translate(-113.842 -580.764)"/><path class="b" d="M302.169,683.69l-4.369.318.477,3.574s-2.065,5.084-.635,5.481a20.944,20.944,0,0,0,3.1.556l.159-.556s6.116,3.336,8.34.874c0,0,.477-1.747-.874-2.3s-3.972-1.748-4.289-2.383S302.169,683.69,302.169,683.69Z" transform="translate(-254.442 -593.36)"/><circle class="b" cx="3.813" cy="3.813" r="3.813" transform="translate(33.27 25.99)"/><path class="b" d="M235.183,336.95s.477,3.1-1.906,4.289,6.275,2.621,6.275,2.621-1.35-2.065-1.112-2.78,1.43-3.574,1.43-3.574Z" transform="translate(-200.96 -304.843)"/><path class="b" d="M224.949,358.582s-2.3-1.35-3.1-.715-1.033,20.1,1.827,20.891l.079,1.033s-1.033.477-.079.477,5.4-3.257,5.56-4.448,4.766-1.43,4.766-1.43,1.191,5.084,1.589,4.925.4-3.574.238-4.051,1.827-1.986,1.271-2.939-2.065-4.21-2.065-4.21a5.215,5.215,0,0,0-1.986-3.972s-.627-3.548-3.451-3.6A7.137,7.137,0,0,1,224.949,358.582Z" transform="translate(-191.361 -322.107)"/><path class="b" d="M198.233,149.855v4.358h1.009l1.284-1.376-.172,1.376h4.461l-.275-1.376.55,1.376h.711v-4.358Z" transform="translate(-165.946 -124.692)"/><rect class="b" width="32.912" height="30.057" transform="translate(9.708 64.213)"/><path class="b" d="M206.944,590.444c-2.775,4.53-1.82,10.164-1.82,10.164s5.453-1.71,8.227-6.239,1.82-10.164,1.82-10.164S209.718,585.914,206.944,590.444Z" transform="translate(-177.748 -510.58)"/><path class="b" d="M142.741,607.363l-.158-.025c-.057-.009-5.735-.95-9.136-5.019s-3.319-9.824-3.318-9.881l0-.16.158.025c.057.009,5.735.95,9.136,5.019h0c3.4,4.069,3.319,9.824,3.318,9.881Z" transform="translate(-115.478 -517.298)"/><circle class="b" cx="3.066" cy="3.066" r="3.066" transform="translate(24.484 69.219)"/><path class="b" d="M207.423,473.943l.953,7.069s-.556,6.2,1.589,6.275.794-6.355.794-6.355l-.238-6.434S208.773,471.64,207.423,473.943Z" transform="translate(-179.793 -418.087)"/><path class="b" d="M206.723,357.7a.964.964,0,0,0-1.747-.318,10.844,10.844,0,0,0-2.224,6.2c0,1.906.238,12.947.238,12.947s-1.271.477-.4,1.191,2.065-.4,2.065-.4a16.745,16.745,0,0,0,1.747,1.112c.159,0,.079-1.35.079-1.35a9.758,9.758,0,0,0,.635-3.654C206.961,371.842,206.723,357.7,206.723,357.7Z" transform="translate(-175.518 -321.466)"/><path class="b" d="M627.981,289.03H544.372v-5.708h83.609Zm-83.3-.309h82.992v-5.091H544.68Z" transform="translate(-460.162 -260.22)"/><path class="b" d="M111.918,536.382H103.69a19.11,19.11,0,0,0,0-8.228h8.228A10.228,10.228,0,0,0,111.918,536.382Z" transform="translate(-93.478 -463.941)"/><rect class="b" width="4.987" height="0.997" transform="translate(11.458 65.958)"/><rect class="b" width="4.987" height="0.997" transform="translate(11.458 67.953)"/><rect class="b" width="4.987" height="0.997" transform="translate(11.458 69.948)"/><path class="b" d="M552.918,344.382H544.69a19.11,19.11,0,0,0,0-8.228h8.228A10.228,10.228,0,0,0,552.918,344.382Z" transform="translate(-460.427 -304.181)"/><rect class="b" width="4.987" height="0.997" transform="translate(85.51 33.718)"/><rect class="b" width="4.987" height="0.997" transform="translate(85.51 35.713)"/><rect class="b" width="4.987" height="0.997" transform="translate(85.51 37.708)"/><path class="b" d="M921.918,418.382H913.69a19.111,19.111,0,0,0,0-8.228h8.228A10.228,10.228,0,0,0,921.918,418.382Z" transform="translate(-767.466 -365.755)"/><rect class="b" width="4.987" height="0.997" transform="translate(147.471 46.144)"/><rect class="b" width="4.987" height="0.997" transform="translate(147.471 48.139)"/><rect class="b" width="4.987" height="0.997" transform="translate(147.471 50.133)"/><path class="b" d="M984.918,313.382H976.69a19.111,19.111,0,0,0,0-8.228h8.228A10.227,10.227,0,0,0,984.918,313.382Z" transform="translate(-819.887 -278.386)"/><rect class="b" width="4.987" height="0.997" transform="translate(158.05 28.513)"/><rect class="b" width="4.987" height="0.997" transform="translate(158.05 30.508)"/><rect class="b" width="4.987" height="0.997" transform="translate(158.05 32.502)"/><path class="b" d="M396.56,388.02h-4.366v-4.366h4.366Zm-4.03-.336h3.694V383.99H392.53Z" transform="translate(-333.538 -343.705)"/><path class="b" d="M397.056,446.02H392.69v-4.366h4.366Zm-4.03-.336h3.694V441.99h-3.694Z" transform="translate(-333.95 -391.966)"/><path class="b" d="M397.552,504.02h-4.366v-4.366h4.366Zm-4.03-.336h3.694V499.99h-3.694Z" transform="translate(-334.363 -440.227)"/><circle class="b" cx="1.343" cy="1.343" r="1.343" transform="translate(57.564 58.168)"/></g></g></svg>