<svg xmlns="http://www.w3.org/2000/svg" width="207.672" height="169" viewBox="0 0 207.672 169"><defs><style>.a,.b{fill:#ef2e41;}.a{opacity:0.11;}.c{opacity:0.26;}.d{fill:none;}.e{opacity:0.05;}.f{opacity:0.12;}.g{opacity:0.47;}.h{opacity:0.32;}</style></defs><g transform="translate(-856.328 -1000)"><g transform="translate(835 938.417)"><path class="a" d="M68.387,225.511c-26.153.089-33.6-.089-40.232-6.34-15.727-14.822-4.4-58.558,35.221-69.881,9.48-2.709,16.641-2.718,24.075-13.546,5.831-8.493,8.18-18.751,10.99-28.33,6.029-20.546,19.042-48.14,46.9-45.677,14.8,1.308,24.663,11.158,32.366,23.6A116.164,116.164,0,0,1,192.748,123.4c3.638,17.958,19.4,29.992,28.078,45.735,8.092,14.674,14.661,40.72-3.193,51.943C207.494,227.449,206.294,225.044,68.387,225.511Z" transform="translate(0 0)"/></g><g transform="translate(318 958.053)"><g transform="translate(603.64 63.828)"><g transform="translate(0 0)"><g transform="translate(27.922 61.557)"><path class="b" d="M542.06,426.918l1.531,2.449.8,0,1.295-.932L544.654,426l-2.4.034Z" transform="translate(-542.06 -426)"/></g><g transform="translate(23.943)"><path class="b" d="M527.247,26.882v-1.5l-.69-1.413a.477.477,0,0,0-.692.015l-.579,1.4v1.5c-.545,0-1.431.427-1.431.954a.97.97,0,0,0,.986.954h.445V79.622c0,2.868-1.517,5.253-3.693,5.2-1.688-.04-3.159-1.474-3.407-3.816a1.034,1.034,0,0,0-1.038-.918h-.038a1.018,1.018,0,0,0-1.035,1.125c.43,3.331,3.073,5.714,5.584,5.714a4.985,4.985,0,0,0,4.5-2.547c1.159-2.028,1.085-4.258,1.085-6.482V28.792h.3a.97.97,0,0,0,.986-.954C528.537,27.307,527.79,26.882,527.247,26.882Z" transform="translate(-516.066 -23.828)"/><g class="c" transform="translate(9.198 26.087)"><path class="b" d="M578.142,199.721l-1.982-2.06v-3.4h1.982Z" transform="translate(-576.16 -194.26)"/></g></g><g transform="translate(49.099 36.302)"><path class="d" d="M680.42,261c.078.037.155.075.231.113l.334-.113h-.565Z" transform="translate(-680.42 -261)"/></g><g transform="translate(0 4.93)"><path class="b" d="M379.217,87.116l.354-2.177a51.136,51.136,0,0,1,8.477-20.974l5.5-7.926A35.719,35.719,0,0,0,359.64,87.173a34.656,34.656,0,0,1,9.853-1.365A35.455,35.455,0,0,1,379.217,87.116Z" transform="translate(-359.64 -56.04)"/></g><g transform="translate(34.304 4.895)"><path class="b" d="M597.823,82.545l.943,4.671h.354a34.115,34.115,0,0,1,10.612-1.6,34.839,34.839,0,0,1,10.656,1.593A35.74,35.74,0,0,0,584.9,55.81c-.383,0-.764.008-1.145.02l4.4,6.43C593.55,68.891,596.025,75.609,597.823,82.545Z" transform="translate(-583.76 -55.81)"/></g><g transform="translate(19.577 4.915)"><path class="b" d="M487.894,84.855l-.354,2.177.095.028a36.576,36.576,0,0,1,14.414-2.6c5.914,0,11.252,1.048,15.015,2.864h.211l-.943-4.671c-1.8-6.938-4.273-13.655-9.664-20.285l-4.4-6.43c-.132,0-.263.009-.393.015l-5.5,7.926A51.1,51.1,0,0,0,487.894,84.855Z" transform="translate(-487.54 -55.94)"/></g><g transform="translate(19.564 36.007)"><path class="b" d="M487.472,259.07l-.012.075.107-.047Z" transform="translate(-487.46 -259.07)"/></g><g transform="translate(29.911 58.81)"><path class="b" d="M557.5,413.286l.109-2.852-1.3-2.385-.675.693.361,1.365-.937,2.372,1.272,1.8Z" transform="translate(-555.06 -408.05)"/></g><g transform="translate(27.768 59.72)"><path class="b" d="M544.58,415.837l-.461-1.376L542.131,414l-1.071.767.306,1.682Z" transform="translate(-541.06 -414)"/></g><g transform="translate(58.465 58.461)"><path class="b" d="M741.61,405.77l5.12.954L758.516,425.4l-1.837,5.969H750.4Z" transform="translate(-741.61 -405.77)"/></g><g transform="translate(61.568 141.088)"><path class="b" d="M767.794,947.571l.067,1.971-3.918,2.088-2.063-1.913,1.926-2.03,3.92-2.088Z" transform="translate(-761.88 -945.6)"/></g><g transform="translate(53.408 94.204)"><path class="b" d="M716.851,639.29l7.514,1.355-4.491,19.979,2.956,26.881-3.928.9-10.3-32.444-.028-9.7.767-5.74Z" transform="translate(-708.57 -639.29)"/></g><g transform="translate(44.331 82.47)"><path class="b" d="M649.524,564.92l-.254,25.16,4.854,32.429,3.692,0,2.284-29.936,5-29.939Z" transform="translate(-649.27 -562.63)"/></g><g transform="translate(46.869 141.91)"><path class="b" d="M671.835,950.97l0,1.971-3.989,1.978-2-1.968,1.993-1.974Z" transform="translate(-665.85 -950.97)"/></g><g transform="translate(39.378 58.402)"><path class="b" d="M649.64,442.019c.153,1.108-.092,8.549.279,8.683q-2.631-.409-5.291-.6a65.444,65.444,0,0,0-13.984.5,29.721,29.721,0,0,0-6.3,1.324c-.974.37-1.909.833-2.853,1.27-.243.112-2.784,1.076-2.783,1.117-.115-3.254-.836-6.4-1.214-9.637a87,87,0,0,1-.588-9.859c-.014-5.16,1.739-9.768,2.9-14.77a58.823,58.823,0,0,1,1.962-7.394c.7-1.875,2.011-4.648,3.862-5.653a6.084,6.084,0,0,1,2.054-.551l6.421-.934a3.95,3.95,0,0,1,4.854,2.414,51.776,51.776,0,0,1,6.468,14.44c.759,2.677,1.485,5.362,2.121,8.069.71,3.02,1.312,6.067,1.72,9.142C649.316,439.921,649.481,440.873,649.64,442.019Z" transform="translate(-616.909 -405.388)"/></g><g transform="translate(28.84 60.027)"><path class="b" d="M567.346,416l-2.143,1.224-8.112,12.7-4.745-10.408-4.286,1.224,4.6,16.3,5.51,1.531,3.819-4.518Z" transform="translate(-548.06 -416)"/></g><g transform="translate(43.637 58.294)"><path class="b" d="M655.817,418.6a22.968,22.968,0,0,0,.748,4.125c2.03,8.27,6.037,18.133,8.066,26.4a66.375,66.375,0,0,0-19.258,3.317c-.156-3.168-.352-9.409-.508-12.577a50.917,50.917,0,0,1-.058-6.092,49.382,49.382,0,0,1,1.941-9.519q2.363-8.633,4.727-17.264a2.3,2.3,0,0,1,.367-.863,1.844,1.844,0,0,1,.912-.517,15.014,15.014,0,0,1,5.128-.926c.614,1.673-.566,4.841-.946,6.508A26.482,26.482,0,0,0,655.817,418.6Z" transform="translate(-644.737 -404.678)"/></g><g transform="translate(46.073 43.776)"><path class="b" d="M662.859,312.631a7.345,7.345,0,0,0-.409,3.407,1.052,1.052,0,0,1-.158.874c-.234.23.058.617-.179.39a5.661,5.661,0,0,1-1.125-1.338,12.1,12.1,0,0,1-.332-2.282,3.311,3.311,0,0,1,.358-1.944,3.79,3.79,0,0,1,.83-.848,4.83,4.83,0,0,1,1.448-.924c.94-.321,1.583-.063.83.736A5.934,5.934,0,0,0,662.859,312.631Z" transform="translate(-660.647 -309.832)"/></g><g transform="translate(47.012 43.523)"><path class="b" d="M675.958,323.3l-3.931.958a24.509,24.509,0,0,1-.866-3.43c-1.186-.029-2.6-.2-3.174-1.356a4.017,4.017,0,0,1-.309-1.183q-.388-2.516-.778-5.031a4.9,4.9,0,0,1-.06-1.746,3.534,3.534,0,0,1,1.831-2.173,7.637,7.637,0,0,1,6.914-.588,3.789,3.789,0,0,1,1.577,1.18,5.932,5.932,0,0,1,.807,3.073l.225,2.977c.086,1.142.107,2.467-.683,3.193-.419.386-1.013.531-1.355,1C675.557,321,676.07,322.243,675.958,323.3Z" transform="translate(-666.783 -308.18)"/></g><g transform="translate(47.393 51.13)"><path class="b" d="M669.633,361.4a4.157,4.157,0,0,0,1.95,2.4,6.01,6.01,0,0,0,3.427.253l1.884-.231c1.589-.2,3.135-.632,3.706-2.42a5.1,5.1,0,0,0,.067-2.594,1.682,1.682,0,0,0-.259-.666.585.585,0,0,0-.6-.253c-.276.081-.4.407-.545.669a1.417,1.417,0,0,1-1.577.767,2.175,2.175,0,0,1-.5-.26c-.066-.041-.132-.084-.2-.124a4.091,4.091,0,0,0-2.17-.493c-.644.011-1.609-.086-2,.522l-.681,1.061a1.546,1.546,0,0,1-.323.4,1.028,1.028,0,0,1-.474.188,1.058,1.058,0,0,1-1.139-.467,2.142,2.142,0,0,1-.148-.585.938.938,0,0,0-.243-.537c-.553-.505-.554.427-.528.742A6.588,6.588,0,0,0,669.633,361.4Zm4.356-.344A1.783,1.783,0,0,0,675.6,361c.274-.129.465.334.191.461a2.212,2.212,0,0,1-1.971.06C673.544,361.388,673.712,360.924,673.989,361.057Z" transform="translate(-669.276 -357.874)"/></g><g transform="translate(45.18 40.622)"><path class="b" d="M655.46,292.566a9.215,9.215,0,0,1-.427-1.2,2.463,2.463,0,0,0,1.229-.075c-.035-.242-.069-.484-.1-.724a14.25,14.25,0,0,1,2.885-.791c2.042-.473,3.908-.912,5.939-.078a5.69,5.69,0,0,1,3.482,3.782,8.7,8.7,0,0,1-.548,5.715,12.081,12.081,0,0,0-.132-2.042,4.011,4.011,0,0,0-.621-1.209,5.3,5.3,0,0,0-2.126-1.665,10.3,10.3,0,0,0-4.224-.765,11.138,11.138,0,0,0-4.133.6c-.588.254-.667.422-1.128-.141a10.713,10.713,0,0,1-.736-1.3C655.031,292.635,655.246,292.6,655.46,292.566Z" transform="translate(-654.813 -289.224)"/></g><rect class="b" width="34.393" height="45.778" transform="matrix(0.925, 0.379, -0.379, 0.925, 44.78, 56.67)"/><g class="c" transform="translate(30.559 70.228)"><path class="b" d="M559.29,510.608l.476.2,27.753,12.374,15.663-40.369-1.459-.159Z" transform="translate(-559.29 -482.65)"/></g><rect class="b" width="30.923" height="42.354" transform="matrix(0.925, 0.379, -0.379, 0.925, 45.832, 58.677)"/><g class="e" transform="translate(38.63 58.461)"><path class="b" d="M619.128,405.77l20.585,8.426-27.693,8.845Z" transform="translate(-612.02 -405.77)"/></g><g transform="translate(53.535 57.846)"><g class="f" transform="translate(0.001 3.937)"><rect class="b" width="13.43" height="1.258" transform="matrix(0.925, 0.379, -0.379, 0.925, 0.477, 0)"/></g><path class="b" d="M721.2,406.211l-.193-.08.053-.13a2.592,2.592,0,0,0-1.642-3.256l-1.854-.759a2.592,2.592,0,0,0-3.453,1.169l-.054.13-.193-.08a2.592,2.592,0,0,0-3.453,1.169l-1.012,2.472,12.43,5.088,1.012-2.472A2.59,2.59,0,0,0,721.2,406.211Zm-2.051-.779-3.274-1.341a.656.656,0,1,1,.5-1.214l3.274,1.341a.656.656,0,1,1-.5,1.214Z" transform="translate(-709.4 -401.752)"/></g><g class="g" transform="translate(36.759 71.166)"><g transform="translate(6.343)"><path class="b" d="M647.48,490.515l-4.2-1.72a.239.239,0,0,0-.308.129l-1.716,4.191a.239.239,0,0,0,.13.308l4.2,1.72a.215.215,0,0,0,.171,0l.011,0,.006,0a.219.219,0,0,0,.121-.124l1.716-4.191A.241.241,0,0,0,647.48,490.515Zm-1.935,4.1-3.764-1.541,1.537-3.755,3.764,1.541Q646.315,492.739,645.545,494.617Z" transform="translate(-641.238 -488.778)"/></g><g transform="translate(3.171 7.75)"><path class="b" d="M626.76,541.145l-4.2-1.72a.239.239,0,0,0-.308.129l-1.716,4.191a.239.239,0,0,0,.13.308l4.2,1.72a.215.215,0,0,0,.171,0l.011,0,.006,0a.219.219,0,0,0,.121-.124l1.716-4.191A.242.242,0,0,0,626.76,541.145Zm-1.935,4.1-3.764-1.541,1.537-3.755,3.764,1.541Q625.6,543.369,624.825,545.246Z" transform="translate(-620.518 -539.408)"/></g><g transform="translate(0 15.498)"><path class="b" d="M606.04,591.765l-4.2-1.72a.239.239,0,0,0-.308.129l-1.716,4.191a.239.239,0,0,0,.13.308l4.2,1.72a.215.215,0,0,0,.171,0l.011,0,.006,0a.219.219,0,0,0,.121-.124l1.716-4.191A.242.242,0,0,0,606.04,591.765Zm-1.935,4.1q-1.883-.769-3.764-1.541l1.537-3.755,3.764,1.541Q604.875,593.991,604.105,595.867Z" transform="translate(-599.798 -590.028)"/></g></g><g transform="translate(45.908 73.176)"><path class="b" d="M659.57,502.083l1.1.073.142,1.183,5.972-1.43.493.328-7.162,2.192Z" transform="translate(-659.57 -501.91)"/></g><g transform="translate(42.306 80.979)"><path class="b" d="M636.04,553.061l1.1.075.142,1.183,5.972-1.43.491.326-7.16,2.192Z" transform="translate(-636.04 -552.89)"/></g><g transform="translate(39.217 88.277)"><path class="b" d="M615.86,600.743l1.1.073L617.1,602l5.972-1.43.493.326-7.162,2.193Z" transform="translate(-615.86 -600.57)"/></g><g class="h" transform="translate(44.146 91.212)"><rect class="b" width="16.016" height="2.264" transform="matrix(0.925, 0.379, -0.379, 0.925, 0.858, 0)"/></g><g class="h" transform="translate(47.506 83.005)"><rect class="b" width="16.016" height="2.264" transform="matrix(0.925, 0.379, -0.379, 0.925, 0.858, 0)"/></g><g class="h" transform="translate(50.864 74.797)"><rect class="b" width="16.016" height="2.264" transform="matrix(0.925, 0.379, -0.379, 0.925, 0.858, 0)"/></g><g transform="translate(52.105 75.792)"><path class="b" d="M723.325,521.3l-6.735-2.3-16.531,1.837v3.827l21.429,2.6Z" transform="translate(-700.06 -519)"/></g><g transform="translate(46.289 77.323)"><path class="b" d="M667.948,529.84l-2.521-.84-3.367,1.684.765,1.99h5.123Z" transform="translate(-662.06 -529)"/></g></g></g></g></g></svg>