<svg xmlns="http://www.w3.org/2000/svg" width="200.672" height="167.5" viewBox="0 0 200.672 167.5"><defs><style>.a,.b{fill:#ef2e41;}.a{opacity:0.11;}</style></defs><g transform="translate(-21.328 -61.583)"><path class="a" d="M66.8,219.986c-25.272.086-32.467-.086-38.876-6.126-15.2-14.322-4.256-56.584,34.034-67.525,9.161-2.618,16.08-2.626,23.263-13.089,5.634-8.207,7.9-18.119,10.62-27.375,5.825-19.854,18.4-46.517,45.316-44.138,14.3,1.264,23.831,10.781,31.275,22.8a112.249,112.249,0,0,1,14.538,36.782c3.515,17.353,18.743,28.981,27.132,44.194,7.819,14.18,14.167,39.347-3.086,50.192C201.219,221.858,200.059,219.534,66.8,219.986Z" transform="translate(0 0)"/><g transform="translate(38.637 168.947)"><path class="b" d="M97.3,340.113s-6.838,1.647-11.105.428-8.007-4.762-8.946-8.568,3.2-5.206,5.6-1.746,4.036,8.98,14.219,8.5Z" transform="translate(-69.943 -318.604)"/><path class="b" d="M121.649,351.227a2.881,2.881,0,0,1,1.383-.819c.7-.093,1.286-.07,1.286.164s-1.149.28-1.334.538c1.147.211,2.082-.444,2.433-.07s-.639,2.091-4.06,1.56" transform="translate(-94.774 -331.011)"/><path class="b" d="M156.5,347.64a9.793,9.793,0,0,0-7.252,2.12.032.032,0,0,1-.052-.025V333.351H132.647a.031.031,0,0,0-.025.052,9.814,9.814,0,1,1-15.271,0,.031.031,0,0,0-.025-.052H100.812a.033.033,0,0,0-.033.032v42.191a6.028,6.028,0,0,0,6.028,6.028h42.355a.033.033,0,0,0,.033-.032V365.055a.032.032,0,0,1,.052-.025A9.815,9.815,0,1,0,156.5,347.64Z" transform="translate(-83.226 -321.466)"/><path class="b" d="M77.446,313.359c-1.253-.906-2.472-4.666,0-6.572,1.091-.841,4.14-.75,4.867.91s-2,2.115-2,2.115S77.3,310.892,77.446,313.359Z" transform="translate(-69.327 -306.266)"/><path class="b" d="M70.594,366.867s-1.6,2.184,1.2,11.379c1.081,4.8,2.534,18.777,2.534,18.777l1.552-.247s3.365-21.41,1.37-33.271Z" transform="translate(-66.03 -338.389)"/><path class="b" d="M67.04,328.791c-1.333,2.445-3.648,8.161-3.149,17.76.459,8.954,9.4,3.952,10.485-6.858s-1.074-12.069-2.655-12.921C70.485,326.106,68.205,326.653,67.04,328.791Z" transform="translate(-62.485 -317.624)"/><path class="b" d="M82.093,311.085s1.952,6.33-2.046,5.982c-2.292-.412-1.774-2.289-1.774-2.289-1.346-.054-1.038-2.473.581-1.576l.2-1.862A4.942,4.942,0,0,0,82.093,311.085Z" transform="translate(-70.121 -308.97)"/><path class="b" d="M77.576,319.5l-1.392,3.54,3.317.47.807-3.808Z" transform="translate(-69.423 -313.693)"/><path class="b" d="M62.732,367.946s-1.6,3.04.065,12.506c.493,4.9.244,18.946.244,18.946l1.57-.058s4.955-15.128,4.408-27.143Z" transform="translate(-61.485 -340.882)"/><path class="b" d="M87.839,346.726s-6.965-.975-10.488-3.675-5.7-7.367-5.18-11.252,4.884-3.671,5.853.43.461,9.835,10.109,13.125Z" transform="translate(-67.127 -319.032)"/><path class="b" d="M65.392,438.992s.066.666,1.831,1.065a1.089,1.089,0,0,1,.832.832H63.827s-.534-.474.1-1.619Z" transform="translate(-62.37 -380.754)"/><path class="b" d="M80.735,438.992s.067.666,1.831,1.065a1.09,1.09,0,0,1,.832.832H79.17s-.533-.474.1-1.619Z" transform="translate(-70.981 -380.754)"/><path class="b" d="M108.271,365.14a2.882,2.882,0,0,1,1.383-.819c.7-.093,1.286-.07,1.286.164s-1.149.28-1.334.538c1.147.211,2.082-.444,2.433-.07s-.639,2.09-4.06,1.559" transform="translate(-87.266 -338.819)"/><path class="b" d="M72.842,380.449l1.466,16.179h4.124s2.1-25.623.387-32.358H78.1Z" transform="translate(-67.547 -338.819)"/><path class="b" d="M62.12,364.27c-1.687,4.6-1.308,17.381-1.308,32.358h4.03c3.289-16.541,6.215-27.837,6.487-32.358Z" transform="translate(-60.775 -338.819)"/><g transform="translate(1.247 58.776)"><path class="b" d="M65.846,440.216l-.183.412-1.982-.093a1,1,0,0,0,.145,1.042h4.228C67.858,440.542,66.839,440.88,65.846,440.216Z" transform="translate(-63.617 -440.216)"/></g><g transform="translate(7.979 58.776)"><path class="b" d="M81.189,440.216l-.183.412-1.982-.093a1,1,0,0,0,.145,1.042H83.4C83.2,440.542,82.182,440.88,81.189,440.216Z" transform="translate(-78.96 -440.216)"/></g></g><path class="b" d="M241.006,222.831v16.615a9.819,9.819,0,1,0,0,15.186v16.614h16.759a9.81,9.81,0,1,1,14.9,0h16.759v-42.42a6,6,0,0,0-5.995-6Z" transform="translate(-114.288 -90.495)"/><g transform="translate(126.717 164.559)"><path class="b" d="M367.384,347.621s7.015.5,11.025-1.4,7.116-6.014,7.416-9.922-4.009-4.61-5.813-.8-2.506,9.521-12.628,10.724Z" transform="translate(-320.929 -316.867)"/><path class="b" d="M359.352,361.833c.351-.374,1.286.281,2.433.07-.186-.257-1.334-.3-1.334-.538s.584-.257,1.286-.164a2.882,2.882,0,0,1,1.382.819l.293,1.372C359.991,363.924,359,362.208,359.352,361.833Z" transform="translate(-316.384 -332.68)"/><path class="b" d="M309.927,312.3v.164H293.168a9.814,9.814,0,1,0-14.9,0H261.512V328.91a9.814,9.814,0,1,1,0,15.186v16.615h42.42a6,6,0,0,0,5.995-6Z" transform="translate(-261.512 -296.266)"/><path class="b" d="M391.238,323.864s.94-2.643-.707-4.405c-2.608-2.79-6.17.848-4.571,2.041A24.12,24.12,0,0,0,391.238,323.864Z" transform="translate(-331.13 -308.704)"/><path class="b" d="M386.469,323.271s.459,6.608,4.064,4.842c1.99-1.211.83-2.774.83-2.774,1.236-.536.078-2.681-1.11-1.261l-.858-1.665A4.938,4.938,0,0,1,386.469,323.271Z" transform="translate(-331.639 -310.94)"/><path class="b" d="M394.454,329.081l2.063,2.217-2.414,2.217-2.125-3.262Z" transform="translate(-334.732 -314.682)"/><path class="b" d="M416.49,372.381s1.368,2.336-2.359,11.2c-1.569,4.664-4.448,18.419-4.448,18.419l-1.564-.289s-1.667-16.971,1.535-28.565Z" transform="translate(-343.546 -338.983)"/><path class="b" d="M398.227,332.913a5.1,5.1,0,0,1,4.189,1c2.342,1.728,7.028,6.081,10.567,15.11,3.307,8.419-7.617,7.316-13.23-2.2s-4.009-11.526-2.806-12.929A2.732,2.732,0,0,1,398.227,332.913Z" transform="translate(-336.862 -316.76)"/><path class="b" d="M427.429,369.782s1.924,1.9.611,11.425c-.311,4.911.459,18.942.459,18.942h-1.571s-5.512-14.933-5.412-26.96Z" transform="translate(-351.307 -337.524)"/><path class="b" d="M367.384,353.834s7.015.5,11.025-1.4,7.116-6.014,7.416-9.922-4.009-4.61-5.813-.8-2.506,9.521-12.628,10.724Z" transform="translate(-320.929 -320.354)"/><path class="b" d="M405.341,438.99s-.067.666-1.831,1.065a1.089,1.089,0,0,0-.832.832h4.228s.533-.474-.1-1.619Z" transform="translate(-340.736 -376.365)"/><path class="b" d="M431.447,437.972s.237.93-.992,1.163a.821.821,0,0,0-.74.949h2.195l1.937-1.2s.2-.684-.939-1.322Z" transform="translate(-355.904 -375.56)"/><path class="b" d="M358.962,368.047c.351-.374,1.286.28,2.433.07-.186-.257-1.334-.3-1.334-.538s.584-.257,1.286-.164a2.885,2.885,0,0,1,1.382.819l.293,1.372C359.6,370.138,358.611,368.421,358.962,368.047Z" transform="translate(-316.165 -336.167)"/><path class="b" d="M414.253,382.939s-3.763,15.319-4.416,20.029h-2.828s-1.372-21.653,2.116-28.853C418.5,378.678,414.253,382.939,414.253,382.939Z" transform="translate(-343.017 -339.956)"/><path class="b" d="M421.383,365.395c2.461,2.462,2.491,8.852,1.873,13.914s.543,17.582.543,17.582a15.215,15.215,0,0,0-2.332.8,43.674,43.674,0,0,1-4.4-14.42c-1.4-11.077-4.9-14.046-4.9-14.046Z" transform="translate(-346.064 -335.062)"/><path class="b" d="M397.927,344.517l-5.948-3.349s.914-7.165,4.118-8.217S402.352,339.434,397.927,344.517Z" transform="translate(-334.732 -316.799)"/><g transform="translate(61.942 63.163)"><path class="b" d="M404.887,440.214l.182.412,1.982-.094a1.007,1.007,0,0,1-.145,1.043h-4.228C402.875,440.54,403.894,440.879,404.887,440.214Z" transform="translate(-402.678 -440.214)"/></g><g transform="translate(73.802 62.275)"><path class="b" d="M433.322,438.191l-1.676,1.213-.432-.271a1.394,1.394,0,0,1-.758.358.82.82,0,0,0-.739.949h2.195l1.937-1.2S433.993,438.734,433.322,438.191Z" transform="translate(-429.707 -438.191)"/></g></g><g transform="translate(81.343 71.183)"><path class="b" d="M194.073,193.713s-2.742,8.624-8.921,12.376c-1.85,1.123-1.848,5.967,2.373,4.56,3.2-1.066,7.589-11.886,7.437-16.935Z" transform="translate(-172.621 -145.336)"/><path class="b" d="M209.238,188.128c-.481-.015-.667,1.039-1.567,1.661-.048-.294.683-1.087.528-1.242s-.559.217-.962.745a2.707,2.707,0,0,0-.374,1.461l.716,1.1C210.2,189.939,209.718,188.143,209.238,188.128Z" transform="translate(-185.467 -142.202)"/><path class="b" d="M316,158.186s-5.676,5.2-4.54,8.906,3.148,12.319,3.148,12.319l-1.452.493s-7.344-10.565-6.533-16.605,5.972-13.485,5.972-13.485S318.906,152.885,316,158.186Z" transform="translate(-241.419 -120.699)"/><path class="b" d="M319.344,217.484s.237.93-.992,1.163a.821.821,0,0,0-.74.949h2.195l1.937-1.2s.2-.685-.94-1.322Z" transform="translate(-247.616 -158.444)"/><path class="b" d="M301.564,116.893c-2.018-1.976-4.453.531-5.919,4.376s-5.929,5.7-10.1,2.848l-.57.938a9.284,9.284,0,0,0,7.115,3.048C298.46,128.174,304.02,119.3,301.564,116.893Z" transform="translate(-229.304 -101.836)"/><path class="b" d="M310.942,147.742s-6.577,12.638-5.359,18.7l5.318,12.714,3.589-.908s-3.114-9.812-3.114-13.584l4.736-9.041Z" transform="translate(-240.786 -119.537)"/><path class="b" d="M277.9,131.318c.433-.275,1.176.591,2.34.671-.116-.3-1.217-.625-1.159-.852s.63-.1,1.286.16a2.88,2.88,0,0,1,1.136,1.136l-.056,1.4C278,133.5,277.464,131.593,277.9,131.318Z" transform="translate(-225.261 -110.151)"/><path class="b" d="M159.072,126.6a9.827,9.827,0,0,0,17.2.976l5.364,15.725,15.724-5.364a9.814,9.814,0,1,1,14.373-4.9l15.724-5.364-13.7-40.148a6,6,0,0,0-7.609-3.738l-40.149,13.7,5.364,15.724A9.826,9.826,0,0,0,159.072,126.6Z" transform="translate(-158.103 -83.462)"/><path class="b" d="M301.815,100.741s-1.193.078-1.375-1.636c-.163-1.538,2.193-3.828,5.269-2.192.556-1.272,2.585-1,3.239,1.763a4.5,4.5,0,0,1-2.454,5.143Z" transform="translate(-237.98 -90.601)"/><path class="b" d="M302.614,102.721s.459,6.608,4.064,4.842c1.99-1.211.83-2.774.83-2.774,1.236-.536.078-2.681-1.11-1.261l-.858-1.665A4.938,4.938,0,0,1,302.614,102.721Z" transform="translate(-239.205 -93.789)"/><path class="b" d="M310.6,108.531l1.643,2.782-1.993,1.652-2.125-3.262Z" transform="translate(-242.297 -97.531)"/><path class="b" d="M316.492,135.123s-7.168-16.288-4.292-19.3,6.652,1.568,8.49,8.3l1.626,5.948Z" transform="translate(-244.202 -101.09)"/><path class="b" d="M322.916,147.013c-1.086,8.913,3.53,24.228,6.22,30.168l1.465.279s-1.619-14.932-1.441-23.719c.146-7.2-1.152-9.021-1.152-9.021Z" transform="translate(-250.507 -117.841)"/><path class="b" d="M333.892,218.5s-.067.666-1.831,1.065a1.088,1.088,0,0,0-.832.832h4.228a1.814,1.814,0,0,0-.1-1.619Z" transform="translate(-255.264 -159.249)"/><path class="b" d="M279.717,140.1c.351-.374,1.286.28,2.433.07-.185-.257-1.334-.3-1.334-.538s.585-.257,1.286-.164a2.882,2.882,0,0,1,1.383.819l.293,1.372C280.356,142.2,279.366,140.479,279.717,140.1Z" transform="translate(-226.317 -114.867)"/><path class="b" d="M317.6,144.738l7.275-2.348s1.637,1.772,2.343,8.837,1.211,24.647,1.211,24.647l-3.226-.136Z" transform="translate(-247.617 -116.533)"/><g transform="translate(56.826 14.103)"><path class="b" d="M314.3,115.955c-1.942-1.124-3.435.563-4.2,3.352l4.645,2.8C315.74,119.391,315.7,116.763,314.3,115.955Z" transform="translate(-300.233 -115.603)"/><path class="b" d="M297.479,124.045a15.637,15.637,0,0,0-.447,2.354c-.467,4.089-4.331,6.992-9.081,5.263l-.341,1.118c2.682,2.036,11.142,3.294,14.514-5.935Z" transform="translate(-287.61 -120.341)"/></g><g transform="translate(69.987 58.836)"><path class="b" d="M318.257,218.943l.075.249h1.349l1.253-.789a.621.621,0,0,1,.2-.854c.77.569.612,1.111.612,1.111l-1.937,1.2h-2.195A.808.808,0,0,1,318.257,218.943Z" transform="translate(-317.604 -217.549)"/></g><g transform="translate(75.965 59.802)"><path class="b" d="M332.312,220.206l.086.243h2.453a1.1,1.1,0,0,1,.633-.7,1.389,1.389,0,0,1-.027,1.35h-4.228C331.364,220.39,331.965,220.3,332.312,220.206Z" transform="translate(-331.229 -219.751)"/></g><path class="b" d="M186.54,252.951h-4.573s-3.468,2.51-.39,13.078c2.724,9.348-2.011,20.106-2.011,20.106l1.362.737S190.663,272.983,186.54,252.951Z" transform="translate(-170.148 -178.581)"/><path class="b" d="M188.725,207.571s2.222,6.241-1.788,6.064c-2.308-.314-1.87-2.211-1.87-2.211-1.347,0-1.143-2.426.513-1.6l.12-1.868A4.94,4.94,0,0,0,188.725,207.571Z" transform="translate(-172.738 -153.113)"/><path class="b" d="M185.02,216.922,184.1,221.3l2.74-.5.6-3.8Z" transform="translate(-172.691 -158.361)"/><path class="b" d="M183.935,239.923s-3.5-14.161,0-16.437,6.114,3.054,6.358,10.025l.216,6.162Z" transform="translate(-171.727 -161.746)"/><path class="b" d="M199.784,195.22s-2.883,9.067-9.4,12.651a3.736,3.736,0,0,0-1.607,1.817c-.852,2.024,1.16,3.909,2.759,3.058,2.975-1.584,9.322-12.477,9.169-17.526Z" transform="translate(-175.206 -146.182)"/><path class="b" d="M192.369,252.951h-5.8s-1.935,3.184.875,13.948c3.38,12.943,2.945,19.973,2.945,19.973h1.372S195.128,265.061,192.369,252.951Z" transform="translate(-173.717 -178.581)"/><path class="b" d="M197.131,329.038s.067.666,1.831,1.065a1.089,1.089,0,0,1,.832.832h-4.228s-.478-.594.154-1.738Z" transform="translate(-179.031 -221.282)"/><path class="b" d="M180.527,328.019s-.237.929.992,1.162a.821.821,0,0,1,.739.949h-2.195l-1.937-1.2s-.2-.684.94-1.322Z" transform="translate(-169.333 -220.477)"/><path class="b" d="M216.486,189.464c-.481-.015-.667,1.039-1.568,1.661-.048-.294.684-1.087.528-1.242s-.559.217-.962.745a2.7,2.7,0,0,0-.374,1.46l.716,1.105C217.449,191.275,216.966,189.48,216.486,189.464Z" transform="translate(-189.535 -142.951)"/><path class="b" d="M182.162,252.951s-2.338,3.161-1.2,9.87a75,75,0,0,0,2,9.365H190.5s1.023-12.91-1.086-19.235Z" transform="translate(-170.756 -178.581)"/><path class="b" d="M180.48,205.72a2.633,2.633,0,0,1,3.079,1.4c.59,1.578-3.522,1.305-3.522,1.305s.948,2.578-.591,4.3.842,3.691-.466,6.087a2.911,2.911,0,0,1-5.442-1.647c-.072-3.581,1.862-5.3,3.365-7.3,1.061-1.412,1.426-3.481,3.318-4.065C180.305,205.761,180.392,205.739,180.48,205.72Z" transform="translate(-166.764 -152.036)"/><g transform="translate(8.781 107.338)"><path class="b" d="M181.616,329.479l-.075.249h-1.349l-1.253-.789a.621.621,0,0,0-.2-.853c-.77.569-.612,1.111-.612,1.111l1.937,1.2h2.195A.808.808,0,0,0,181.616,329.479Z" transform="translate(-178.115 -328.085)"/></g><g transform="translate(16.363 108.303)"><path class="b" d="M198.963,330.8c-.089-.02-.17-.041-.251-.063l-.086.243h-2.453a1.1,1.1,0,0,0-.633-.7,1.39,1.39,0,0,0,.027,1.35H199.8A1.089,1.089,0,0,0,198.963,330.8Z" transform="translate(-195.395 -330.286)"/></g></g></g></svg>