<svg xmlns="http://www.w3.org/2000/svg" width="149.611" height="134.212" viewBox="0 0 149.611 134.212"><defs><style>.a{opacity:0.15;}.b{fill:#e5e5e5;}.c{opacity:0.17;}.d{opacity:0.07;}</style></defs><g transform="translate(0.031)"><g class="a" transform="translate(-0.023 22.559)"><path class="b" d="M22.742,307.153a.212.212,0,0,0-.4-.042l-2.258,4.645-.02-.017c-1.727-1.425-3.477-2.752-5.071-4.34a40.288,40.288,0,0,1-4.535-5.4,46.018,46.018,0,0,1-6.107-12.366c-3.387-10.515-3.1-21.933-.542-32.592a.6.6,0,0,0-1.146-.316C-.4,267.613-1.11,279.3,2.051,290.266A48.34,48.34,0,0,0,8.1,303.378a37.121,37.121,0,0,0,9.99,10.6l-3.547,2.368a.212.212,0,0,0,.09.387l10.484,1.445a.212.212,0,0,0,.234-.26Z" transform="translate(0.001 -206.529)"/><path class="b" d="M439.037,103.749a48.256,48.256,0,0,0-8.283-11.827,36.86,36.86,0,0,0-11.729-8.658l3.07-2.96a.212.212,0,0,0-.158-.364l-10.569.443a.209.209,0,0,0-.183.282L415.659,90.8a.212.212,0,0,0,.4-.028l1.394-4.975.023.017c1.953,1.095,3.914,2.1,5.763,3.37a40.471,40.471,0,0,1,5.427,4.515,46.061,46.061,0,0,1,8.218,11.1c5.218,9.745,6.954,21.033,6.333,31.977a.594.594,0,0,0,1.182.107C445.474,125.6,444.094,113.968,439.037,103.749Z" transform="translate(-295.136 -79.939)"/></g><g class="c" transform="translate(19.88 0.477)"><path class="b" d="M152.609,41.2l-4.408-1.9a2.715,2.715,0,0,1-.658-4.583l3.694-3.065a.121.121,0,0,0,.031-.141l-5.593-12.251a.119.119,0,0,0-.127-.068l-4.738.785a2.735,2.735,0,0,1-2.636-1.078,2.687,2.687,0,0,1-.4-2.421l1.456-4.575a.121.121,0,0,0-.048-.135L127.857,4.481a.119.119,0,0,0-.144,0L124.148,7.7a2.715,2.715,0,0,1-4.442-1.3l-1.256-4.623a.116.116,0,0,0-.113-.087h-13.47a.116.116,0,0,0-.113.087L103.5,6.411A2.715,2.715,0,0,1,99.057,7.7L95.493,4.492a.119.119,0,0,0-.144,0L84.018,11.773a.116.116,0,0,0-.048.135l1.451,4.575a2.7,2.7,0,0,1-.4,2.421,2.726,2.726,0,0,1-2.636,1.078l-4.733-.8a.121.121,0,0,0-.127.068L71.937,31.505a.121.121,0,0,0,.031.141l3.694,3.065A2.715,2.715,0,0,1,75,39.294L70.6,41.2a.113.113,0,0,0-.071.124l1.916,13.332a.116.116,0,0,0,.1.1l4.767.584a2.715,2.715,0,0,1,1.922,4.211l-2.681,3.982a.119.119,0,0,0,0,.144L85.37,73.851a.119.119,0,0,0,.141.028l4.338-2.086a2.667,2.667,0,0,1,1.18-.282,2.743,2.743,0,0,1,1.947.824,2.689,2.689,0,0,1,.768,1.95l-.1,4.8a.116.116,0,0,0,.085.116l12.922,3.8a.116.116,0,0,0,.133-.054l2.509-4.092a2.718,2.718,0,0,1,4.631,0l2.509,4.092a.116.116,0,0,0,.1.056h.031l12.922-3.8a.116.116,0,0,0,.085-.116l-.1-4.8a2.689,2.689,0,0,1,.768-1.95,2.74,2.74,0,0,1,1.947-.824,2.667,2.667,0,0,1,1.18.282l4.323,2.086a.121.121,0,0,0,.141-.028l8.819-10.179a.116.116,0,0,0,0-.144l-2.678-3.982a2.715,2.715,0,0,1,1.922-4.211l4.767-.584a.116.116,0,0,0,.1-.1l1.916-13.332a.113.113,0,0,0-.065-.127ZM111.6,61.767A19.419,19.419,0,1,1,131.02,42.348,19.419,19.419,0,0,1,111.6,61.767Z" transform="translate(-70.524 -1.69)"/></g><path class="b" d="M145.063,39.509l-4.408-1.9a2.712,2.712,0,0,1-.66-4.589l3.7-3.059a.116.116,0,0,0,.031-.141l-5.6-12.251A.113.113,0,0,0,138,17.5l-4.747.782a2.723,2.723,0,0,1-2.627-1.07,2.692,2.692,0,0,1-.4-2.419l1.451-4.577a.116.116,0,0,0-.048-.135L120.3,2.794a.119.119,0,0,0-.141,0L116.6,6.025a2.661,2.661,0,0,1-1.812.7,2.7,2.7,0,0,1-2.63-2.006L110.9.087A.119.119,0,0,0,110.789,0H97.322a.121.121,0,0,0-.116.087L95.953,4.721A2.7,2.7,0,0,1,93.32,6.728a2.658,2.658,0,0,1-1.809-.7L87.95,2.805a.124.124,0,0,0-.144,0l-11.328,7.27a.121.121,0,0,0-.051.135l1.451,4.577a2.675,2.675,0,0,1-.4,2.419,2.718,2.718,0,0,1-2.647,1.078L70.112,17.5a.113.113,0,0,0-.127.065L64.394,29.818a.118.118,0,0,0,.034.141l3.686,3.059a2.712,2.712,0,0,1-.658,4.58l-4.408,1.911a.119.119,0,0,0-.071.124l1.916,13.332a.124.124,0,0,0,.1.1l4.758.581a2.715,2.715,0,0,1,1.93,4.2l-2.681,3.982a.119.119,0,0,0,0,.144l8.819,10.179a.121.121,0,0,0,.141.028L82.289,70.1a2.706,2.706,0,0,1,1.18-.282,2.752,2.752,0,0,1,1.947.824,2.7,2.7,0,0,1,.768,1.953l-.1,4.8a.121.121,0,0,0,.085.119l12.939,3.807a.121.121,0,0,0,.135-.051l2.509-4.092a2.712,2.712,0,0,1,4.628,0l2.509,4.092a.121.121,0,0,0,.1.056h.034l12.922-3.793a.124.124,0,0,0,.085-.119l-.1-4.8a2.692,2.692,0,0,1,.765-1.953,2.757,2.757,0,0,1,1.95-.824,2.715,2.715,0,0,1,1.18.282l4.326,2.071a.121.121,0,0,0,.141-.028l8.819-10.179a.124.124,0,0,0,0-.144l-2.684-3.988a2.715,2.715,0,0,1,1.922-4.211l4.766-.587a.116.116,0,0,0,.1-.1l1.916-13.332a.116.116,0,0,0-.068-.113Zm-41.008,20.57a19.419,19.419,0,1,1,19.416-19.418,19.419,19.419,0,0,1-19.416,19.418Z" transform="translate(-45.226)"/><path class="b" d="M319.2,286.694l-2.619-2.836a2.181,2.181,0,0,1,1.024-3.576l3.717-1.033a.1.1,0,0,0,.068-.093l-.071-10.82a.093.093,0,0,0-.071-.09l-3.742-.991a2.2,2.2,0,0,1-1.578-1.659,2.156,2.156,0,0,1,.505-1.9l2.568-2.876a.093.093,0,0,0,0-.116l-5.909-9.065a.093.093,0,0,0-.11-.037l-3.669,1.188a2.179,2.179,0,0,1-2.822-2.416l.6-3.81a.09.09,0,0,0-.054-.1l-9.877-4.431a.1.1,0,0,0-.113.028l-2.444,2.983a2.181,2.181,0,0,1-3.686-.505L289.375,241a.093.093,0,0,0-.1-.056l-10.7,1.611a.09.09,0,0,0-.079.085l-.443,3.83a2.162,2.162,0,0,1-1.087,1.645,2.193,2.193,0,0,1-2.286-.076l-3.214-2.133a.1.1,0,0,0-.116,0l-8.13,7.14a.1.1,0,0,0-.023.113l1.693,3.463a2.184,2.184,0,0,1-1.99,3.144l-3.858-.056a.093.093,0,0,0-.09.068L255.99,270.19a.093.093,0,0,0,.042.107l3.3,2a2.184,2.184,0,0,1,.042,3.719L256.1,278.05a.09.09,0,0,0-.039.107l3.1,10.363a.1.1,0,0,0,.1.068l3.855-.107a2.145,2.145,0,0,1,.954.189,2.2,2.2,0,0,1,1.157,1.245,2.153,2.153,0,0,1-.079,1.693l-1.654,3.485a.1.1,0,0,0,.025.113l8.224,7.03a.1.1,0,0,0,.116,0l3.186-2.176a2.181,2.181,0,0,1,3.387,1.521l.494,3.827a.09.09,0,0,0,.056.073h.025l10.724,1.467a.093.093,0,0,0,.1-.056l1.5-3.55a2.159,2.159,0,0,1,1.205-1.18,2.2,2.2,0,0,1,1.693.037,2.153,2.153,0,0,1,.776.587l2.483,2.952a.09.09,0,0,0,.11.025l9.815-4.56a.1.1,0,0,0,.054-.1l-.658-3.8a2.184,2.184,0,0,1,2.8-2.435l3.669,1.129a.093.093,0,0,0,.11-.04l5.816-9.144A.1.1,0,0,0,319.2,286.694Zm-36.828,1.592a31.029,31.029,0,1,0-.011,0Z" transform="translate(-183.767 -172.95)"/><path class="b" d="M138.661,322.578l-1.668-1.82a1.4,1.4,0,0,1,.655-2.289l2.379-.66a.062.062,0,0,0,.042-.059l-.045-6.925a.056.056,0,0,0-.045-.056l-2.387-.629a1.411,1.411,0,0,1-1.01-1.061,1.383,1.383,0,0,1,.325-1.219l1.642-1.84a.059.059,0,0,0,0-.076l-3.782-5.8a.056.056,0,0,0-.068-.023l-2.348.759a1.394,1.394,0,0,1-1.809-1.546l.387-2.438a.065.065,0,0,0-.037-.065l-6.319-2.822a.056.056,0,0,0-.071.017l-1.563,1.91a1.388,1.388,0,0,1-1.657.387,1.363,1.363,0,0,1-.7-.711l-.991-2.258a.062.062,0,0,0-.065-.034l-6.849,1.03a.062.062,0,0,0-.051.054l-.282,2.452a1.383,1.383,0,0,1-.694,1.053,1.411,1.411,0,0,1-1.465-.051l-2.057-1.363a.059.059,0,0,0-.073,0l-5.2,4.552a.054.054,0,0,0-.014.071l1.087,2.218a1.394,1.394,0,0,1-1.273,2.009l-2.469-.037a.065.065,0,0,0-.059.045l-1.9,6.657a.059.059,0,0,0,.025.068l2.114,1.276a1.4,1.4,0,0,1,0,2.382l-2.094,1.3a.059.059,0,0,0-.025.068l2,6.632a.059.059,0,0,0,.059.042l2.466-.068a1.395,1.395,0,0,1,1.3,1.992l-1.058,2.229a.065.065,0,0,0,0,.073l5.263,4.5a.065.065,0,0,0,.076,0l2.038-1.391a1.394,1.394,0,0,1,2.17.974l.316,2.447a.059.059,0,0,0,.037.048h.017l6.86.94a.059.059,0,0,0,.062-.037l.962-2.275a1.411,1.411,0,0,1,.77-.754,1.38,1.38,0,0,1,1.583.4l1.589,1.888a.065.065,0,0,0,.073.017l6.279-2.918a.062.062,0,0,0,.034-.068l-.389-2.427a1.4,1.4,0,0,1,1.786-1.572l2.359.731a.059.059,0,0,0,.068-.028l3.705-5.847A.062.062,0,0,0,138.661,322.578Zm-23.57,1.01a9.985,9.985,0,1,1,13.2-5.023A9.985,9.985,0,0,1,115.091,323.588Z" transform="translate(-70.525 -210.541)"/><g class="d" transform="translate(17.75 25.292)"><path class="b" d="M95.138,122.238a19.472,19.472,0,0,1-8.994-9.742l-.031-.034C79.377,105.009,72.8,97.412,66.457,89.62l-2.069,4.515a.118.118,0,0,0,.034.141l3.691,3.07a2.712,2.712,0,0,1-.658,4.58l-4.408,1.911a.119.119,0,0,0-.071.124l1.916,13.332a.124.124,0,0,0,.1.1l4.758.581a2.715,2.715,0,0,1,1.93,4.2l-2.681,3.982a.119.119,0,0,0,0,.144l8.819,10.179a.121.121,0,0,0,.141.028l4.323-2.086a2.706,2.706,0,0,1,1.18-.282,2.751,2.751,0,0,1,1.947.824,2.7,2.7,0,0,1,.768,1.953l-.1,4.8a.121.121,0,0,0,.085.119l12.939,3.807a.121.121,0,0,0,.135-.051l2.509-4.092a2.712,2.712,0,0,1,4.628,0l2.509,4.092a.121.121,0,0,0,.1.056h.034l6.491-1.908C108.752,136.54,101.894,129.437,95.138,122.238Z" transform="translate(-62.976 -89.62)"/><path class="b" d="M287.6,337.357a15.615,15.615,0,0,1-14.435-16.326q-6.084-6.815-12.256-13.546l-1.846-.025a.093.093,0,0,0-.09.068l-2.98,10.405a.1.1,0,0,0,.042.11l3.3,1.992a2.184,2.184,0,0,1,.042,3.72l-3.276,2.038a.09.09,0,0,0-.04.107l3.1,10.363a.1.1,0,0,0,.1.068l3.855-.107a2.146,2.146,0,0,1,.954.189,2.2,2.2,0,0,1,1.157,1.245,2.153,2.153,0,0,1-.079,1.693l-1.654,3.485a.1.1,0,0,0,.025.113l8.224,7.03a.1.1,0,0,0,.116,0l3.186-2.176a2.181,2.181,0,0,1,3.387,1.521l.494,3.827a.09.09,0,0,0,.056.073h.025l10.724,1.467a.093.093,0,0,0,.1-.056l1.5-3.55a2.159,2.159,0,0,1,1.205-1.18,2.2,2.2,0,0,1,1.693.037,2.153,2.153,0,0,1,.776.587l2.483,2.952a.09.09,0,0,0,.11.025l2.977-1.374Q294.089,344.754,287.6,337.357Z" transform="translate(-201.518 -245.984)"/><path class="b" d="M124.136,339.7a9.985,9.985,0,0,1-12.767-14.87q-3.57-4.216-7.1-8.466l-1.394,1.225a.054.054,0,0,0-.014.071l1.087,2.218a1.394,1.394,0,0,1-1.273,2.009l-2.469-.037a.065.065,0,0,0-.059.045l-1.9,6.657a.059.059,0,0,0,.025.068l2.114,1.276a1.4,1.4,0,0,1,0,2.382l-2.094,1.3a.059.059,0,0,0-.025.068l2,6.632a.059.059,0,0,0,.059.042l2.466-.068a1.395,1.395,0,0,1,1.3,1.992l-1.058,2.229a.065.065,0,0,0,0,.073l5.263,4.5a.065.065,0,0,0,.076,0l2.038-1.391a1.394,1.394,0,0,1,2.17.974l.316,2.447a.059.059,0,0,0,.037.048h.017l6.86.94a.059.059,0,0,0,.062-.037l.962-2.275a1.411,1.411,0,0,1,.77-.754,1.38,1.38,0,0,1,1.583.4l1.589,1.888a.065.065,0,0,0,.073.017l6.279-2.918a.062.062,0,0,0,.034-.068l-.119-.7Q127.587,343.675,124.136,339.7Z" transform="translate(-88.289 -252.372)"/></g><path class="b" d="M22.721,298.655a.212.212,0,0,0-.4-.042l-2.258,4.648-.02-.017c-1.724-1.428-3.477-2.76-5.08-4.343a40.284,40.284,0,0,1-4.535-5.4,46,46,0,0,1-6.107-12.364c-3.387-10.518-3.1-21.933-.542-32.592a.6.6,0,0,0-1.146-.316c-3.065,10.89-3.779,22.577-.618,33.543a48.3,48.3,0,0,0,6.056,13.12,36.985,36.985,0,0,0,9.99,10.605l-3.547,2.368a.212.212,0,0,0,.09.384l10.484,1.445a.212.212,0,0,0,.234-.26Z" transform="translate(0 -177.87)"/><path class="b" d="M439.051,95.286a48.3,48.3,0,0,0-8.283-11.827A36.9,36.9,0,0,0,419.04,74.8l3.07-2.958a.212.212,0,0,0-.158-.364l-10.557.429a.212.212,0,0,0-.183.3l4.473,10.143a.212.212,0,0,0,.4-.028l1.394-4.975h.023c1.953,1.1,3.914,2.1,5.763,3.37a40.283,40.283,0,0,1,5.427,4.515A46,46,0,0,1,436.9,96.311c5.218,9.745,6.954,21.033,6.333,31.988a.594.594,0,0,0,1.182.107C445.489,117.143,444.109,105.505,439.051,95.286Z" transform="translate(-295.173 -51.307)"/></g></svg>