<svg xmlns="http://www.w3.org/2000/svg" width="40.778" height="34.055" viewBox="0 0 40.778 34.055"><defs><style>.a{fill:#3b3b3b;}</style></defs><path class="a" d="M6.928,23.292a10.8,10.8,0,0,1,2.986-.436,9.383,9.383,0,0,1,3.744.767c-.941-3.445-3.2-9.389-7.705-10.059a1.07,1.07,0,0,1-.873-.77L4.1,9.274A1.07,1.07,0,0,1,4.98,7.926a7.476,7.476,0,0,1,1.007-.068c5.405,0,10.759,5.642,13.018,13.72,1.326,4.739,1.715,11.865-1.551,16.35a9.751,9.751,0,0,1-7.926,3.984H9.485A9.487,9.487,0,0,1,6.928,23.292Z" transform="translate(20.799 -7.858)"/><path class="a" d="M49.85,27.772a9.509,9.509,0,0,1,5.7-4.48,10.8,10.8,0,0,1,2.985-.436,9.385,9.385,0,0,1,3.744.767c-.941-3.445-3.2-9.389-7.705-10.059a1.071,1.071,0,0,1-.873-.77l-.984-3.52a1.07,1.07,0,0,1,.885-1.347,7.466,7.466,0,0,1,1.007-.068c5.405,0,10.759,5.642,13.018,13.72,1.326,4.739,1.714,11.865-1.552,16.351a9.75,9.75,0,0,1-7.925,3.983H58.11a9.487,9.487,0,0,1-8.26-14.141Z" transform="translate(-48.626 -7.858)"/></svg>