<svg xmlns="http://www.w3.org/2000/svg" width="326.532" height="522.185" viewBox="0 0 326.532 522.185"><defs><style>.a{fill:#ececec;fill-rule:evenodd;}</style></defs><path class="a" d="M326.532,522.185H104.966C47.06,522.027.156,474.515,0,415.858H0c.148-58.663,47.054-106.183,104.966-106.342h0c24.481-.079,44.306-20.167,44.376-44.966h0c-.07-24.8-19.906-44.888-44.39-44.951H99.689c-25.439-.079-46.046-20.941-46.14-46.709h0c.055-25.8,20.673-46.7,46.14-46.781h16.2a18.153,18.153,0,0,0,17.978-18.2h0A18.153,18.153,0,0,0,115.889,89.7h-11.9a12.512,12.512,0,0,1-12.4-12.549h0a12.527,12.527,0,0,1,12.4-12.563h80.047a19.67,19.67,0,0,0,19.486-19.738h0a19.685,19.685,0,0,0-19.486-19.738H160.094a12.512,12.512,0,0,1-12.388-12.549h0A12.513,12.513,0,0,1,160.094,0H326.5" transform="translate(0 0)"/><path class="a" d="M52.916,70.8A12.986,12.986,0,1,0,39.93,57.816,12.986,12.986,0,0,0,52.916,70.8Z" transform="translate(16.643 25.614)"/></svg>