<svg xmlns="http://www.w3.org/2000/svg" width="58.04" height="57.918" viewBox="0 0 58.04 57.918"><defs><style>.a{fill:#373c41;}.b{fill:#748488;}.c{fill:#55696e;}.d{fill:#4a20aa;}.e{fill:#ba6746;}.f,.h{fill:#fff;}.g{fill:#a56941;}.h{stroke:#000;}.i{fill:#c8462d;}</style></defs><g transform="translate(0 -0.539)"><g transform="translate(4.805 31.297)"><circle class="a" cx="0.919" cy="0.919" r="0.919" transform="translate(2.876 16.81)"/><circle class="a" cx="0.919" cy="0.919" r="0.919" transform="translate(0 16.81)"/><path class="a" d="M68.426,272.086h1.7v5.494h-1.7Z" transform="translate(-65.481 -272.086)"/></g><path class="b" d="M105.314,298.143a1.79,1.79,0,0,1-1.79-1.785l-.043-14.308a1.79,1.79,0,0,1,1.785-1.8h.006a1.79,1.79,0,0,1,1.79,1.785l.043,14.309a1.791,1.791,0,0,1-1.785,1.8Z" transform="translate(-91.759 -248.032)"/><path class="c" d="M144.717,284.693a1.79,1.79,0,0,1-1.791-1.79V266.876a1.79,1.79,0,0,1,3.581,0V282.9A1.791,1.791,0,0,1,144.717,284.693Z" transform="translate(-126.736 -234.581)"/><path class="d" d="M111.529,186.187h-8.05V174.445a2.1,2.1,0,0,1,2.1-2.1h3.848a2.1,2.1,0,0,1,2.1,2.1v11.742Z" transform="translate(-91.758 -152.345)"/><circle class="e" cx="3.343" cy="3.343" r="3.343" transform="translate(13.098 12.276)"/><path class="d" d="M0,436.72v8.512H24.655v-5.8H25.9a.726.726,0,0,0,.726-.726v-1.257a.726.726,0,0,0-.726-.726Z" transform="translate(0 -386.775)"/><path class="d" d="M39.363.539H0v3.4H1.482V8.362a.85.85,0,0,0,.85.85H6.624a.85.85,0,0,0,.85-.85V3.937H39.363a1.7,1.7,0,1,0,0-3.4ZM5.775,7.512H3.181V3.937H5.775V7.512Z" transform="translate(0 0)"/><circle cx="4.478" cy="4.478" r="4.478" transform="translate(0 6.173)"/><path class="f" d="M35.987,64.115H34.214a.68.68,0,0,1-.68-.68V60.746a.68.68,0,1,1,1.359,0v2.01h1.094a.68.68,0,1,1,0,1.359Z" transform="translate(-29.736 -52.784)"/><path class="g" d="M38.98,317.48H35.062a1.389,1.389,0,0,1-1.389-1.389V305.17a1.389,1.389,0,0,1,1.389-1.389H38.98a1.389,1.389,0,0,1,1.389,1.389v10.921A1.389,1.389,0,0,1,38.98,317.48Z" transform="translate(-29.859 -268.894)"/><path class="e" d="M64.256,211.052a1.531,1.531,0,0,1-.938-1.951l1.91-5.452a1.532,1.532,0,0,1,.428-.638l2.117-1.88,2.115.2-.111,2.118-1.791,1.591-1.779,5.077A1.531,1.531,0,0,1,64.256,211.052Z" transform="translate(-56.069 -177.871)"/><path class="f" d="M108.073,177.933a1.531,1.531,0,0,0-2.161-.128l-2.589,2.3,2,2.312h0l2.615-2.323A1.531,1.531,0,0,0,108.073,177.933Z" transform="translate(-91.62 -156.845)"/><path class="d" d="M287.541,169.418a5.158,5.158,0,0,1-5.158,5.158h-18a5.158,5.158,0,0,1-5.158-5.158V151.768a5.158,5.158,0,0,1,5.158-5.158h18a5.158,5.158,0,0,1,5.158,5.158v17.651Z" transform="translate(-229.863 -129.525)"/><path class="h" d="M308.414,197.888H289.941a1.626,1.626,0,0,1-1.626-1.626v-8.02a1.626,1.626,0,0,1,1.626-1.626h18.472a1.626,1.626,0,0,1,1.626,1.626v8.02A1.626,1.626,0,0,1,308.414,197.888Z" transform="translate(-255.657 -165)"/><circle class="f" cx="2.402" cy="2.402" r="2.402" transform="translate(32.658 37.288)"/><circle class="f" cx="2.402" cy="2.402" r="2.402" transform="translate(49.578 37.241)"/><path d="M281.053,418.63h4.01l-5.109-10.493h-4.01l.982,2.016H264.161l.982-2.016h-4.01l-5.109,10.493h4.01l.792-1.626h19.436Zm-19.131-3.88,1.141-2.344h14.96l1.141,2.344Z" transform="translate(-227.023 -361.429)"/><path d="M344.652,106.77h-8.487a1.352,1.352,0,1,1,0-2.7h8.487a1.352,1.352,0,0,1,0,2.7Z" transform="translate(-296.889 -91.8)"/><path class="i" d="M351.12,367.486H343.2a.775.775,0,0,1-.775-.775v-1.775a.775.775,0,0,1,.775-.775h7.917a.775.775,0,0,1,.775.775v1.775A.774.774,0,0,1,351.12,367.486Z" transform="translate(-303.641 -322.435)"/></g></svg>