<svg xmlns="http://www.w3.org/2000/svg" width="44.243" height="65.19" viewBox="0 0 44.243 65.19"><defs><style>.a{fill:#4a20aa;}.b{fill:#fff;}</style></defs><g transform="translate(-64.956 0)"><path class="a" d="M130.609,85.072a5.148,5.148,0,0,1-5.1,5.1H101.651a5.148,5.148,0,0,1-5.1-5.1V51.406a5.148,5.148,0,0,1,5.1-5.1h23.8a5.148,5.148,0,0,1,5.1,5.1V85.072Z" transform="translate(-26.505 -38.844)"/><path class="a" d="M100.684,85.137v-33.6a5.148,5.148,0,0,1,5.1-5.1h20.767a2.84,2.84,0,0,0-1.032-.129H101.651a5.148,5.148,0,0,0-5.1,5.1V85.072a5.148,5.148,0,0,0,5.1,5.1h3.031A5.19,5.19,0,0,1,100.684,85.137Z" transform="translate(-26.505 -38.844)"/><rect class="b" width="33.86" height="21.09" transform="translate(70.051 15.787)"/><g transform="translate(70.051 15.787)"><path class="b" d="M124.526,97.911,113.756,119h1.612l10.706-21.09Z" transform="translate(-110.983 -97.911)"/><path class="b" d="M148.126,97.911,137.355,119h1.612l10.706-21.09Z" transform="translate(-130.777 -97.911)"/><path class="b" d="M221.661,97.911,210.955,119H212.5l10.771-21.09Z" transform="translate(-192.51 -97.911)"/><rect class="b" width="4.128" height="21.09" transform="translate(0)"/></g><g transform="translate(74.114 39.521)"><circle class="b" cx="2.064" cy="2.064" r="2.064" transform="translate(0 0.129)"/><circle class="b" cx="2.064" cy="2.064" r="2.064" transform="translate(21.993)"/></g><g transform="translate(64.956 0)"><path d="M175.187,65.575h6.707a1.032,1.032,0,1,0,0-2.064h-6.707a1.032,1.032,0,1,0,0,2.064Z" transform="translate(-156.548 -53.271)"/><path d="M108.167,25.59a1.019,1.019,0,0,0,1.032-1.032V17.786a3.028,3.028,0,0,0-3.031-3.031h-1.032V12.562a6.166,6.166,0,0,0-6.127-6.127h-10l6.449-4.579A1.031,1.031,0,0,0,95.72.437,1.031,1.031,0,0,0,94.3.179l-8.126,5.8L78.048.179A1.031,1.031,0,0,0,76.63.437a1.031,1.031,0,0,0,.258,1.419l6.449,4.579H75.146a6.166,6.166,0,0,0-6.127,6.127v2.193H67.987a3.028,3.028,0,0,0-3.031,3.031v6.772a1.032,1.032,0,0,0,2.064,0V17.786a1.019,1.019,0,0,1,1.032-1.032h1.032V46.164a6.1,6.1,0,0,0,5.031,6L68.052,63.706a.986.986,0,0,0,.451,1.354,1.2,1.2,0,0,0,.451.129.973.973,0,0,0,.9-.58l2.193-4.257h29.732l2.193,4.257a1.092,1.092,0,0,0,.9.58,1.2,1.2,0,0,0,.451-.129,1,1,0,0,0,.451-1.354l-6-11.545a6.124,6.124,0,0,0,5.289-6.062V16.819H106.1a1.019,1.019,0,0,1,1.032,1.032v6.772A1.006,1.006,0,0,0,108.167,25.59Zm-5.1,10.255H71.083V16.819h31.989ZM75.146,8.434h23.8a4.046,4.046,0,0,1,4.063,4.063V14.69H71.083V12.5A4.13,4.13,0,0,1,75.146,8.434Zm-2,49.983,3.16-6.127H97.526l3.16,6.127Zm25.862-8.126H75.146a4.046,4.046,0,0,1-4.063-4.063V37.844h31.925v8.384A4.032,4.032,0,0,1,99.009,50.291Z" transform="translate(-64.956 0)"/><path d="M117.78,237.911A3.225,3.225,0,1,0,121,241.136,3.234,3.234,0,0,0,117.78,237.911Zm0,4.45a1.161,1.161,0,1,1,1.161-1.161A1.117,1.117,0,0,1,117.78,242.361Z" transform="translate(-106.558 -199.551)"/><path d="M254.181,237.911a3.225,3.225,0,1,0,3.225,3.225A3.234,3.234,0,0,0,254.181,237.911Zm0,4.45a1.161,1.161,0,1,1,1.161-1.161A1.117,1.117,0,0,1,254.181,242.361Z" transform="translate(-220.966 -199.551)"/><path d="M179.908,251.911h-6.32a1.032,1.032,0,0,0,0,2.064h6.32a1.019,1.019,0,0,0,1.032-1.032A1.061,1.061,0,0,0,179.908,251.911Z" transform="translate(-155.207 -211.294)"/></g></g></svg>