<svg xmlns="http://www.w3.org/2000/svg" width="37.228" height="57.946" viewBox="0 0 37.228 57.946"><defs><style>.a{fill:#fff9f5;}.b{fill:#4a20aa;}.c,.d,.e{fill:#f60;}.c{stroke:#010101;}.e{stroke:#000;}.f{fill:#fff;}</style></defs><g transform="translate(0.285 0.5)"><g transform="translate(3.039 14.126)"><path class="a" d="M59.539,141.246H27.52V113.283a4.056,4.056,0,0,1,4.057-4.056H55.483a4.056,4.056,0,0,1,4.056,4.056Zm0,0" transform="translate(-26.578 -108.285)"/><path class="a" d="M53.653,136.3H21.634a.942.942,0,0,1-.942-.942V107.4a5,5,0,0,1,5-5H49.6a5,5,0,0,1,5,5v27.963a.942.942,0,0,1-.942.942Zm-31.077-1.883H52.711V107.4a3.118,3.118,0,0,0-3.115-3.114H25.69a3.117,3.117,0,0,0-3.115,3.114Zm0,0" transform="translate(-20.692 -102.398)"/><path class="a" d="M59.539,341.332H27.52v1.694a3.956,3.956,0,0,0,3.956,3.956H55.583a3.956,3.956,0,0,0,3.956-3.956v-1.694Zm0,0" transform="translate(-26.578 -308.371)"/><path class="a" d="M49.7,342.042H25.589a4.9,4.9,0,0,1-4.9-4.9v-1.694a.942.942,0,0,1,.942-.941H53.652a.941.941,0,0,1,.942.941v1.694a4.9,4.9,0,0,1-4.9,4.9Zm-27.121-5.651v.752a3.018,3.018,0,0,0,3.014,3.014H49.7a3.018,3.018,0,0,0,3.014-3.014v-.752Zm0,0" transform="translate(-20.691 -302.488)"/></g><path class="b" d="M39.058,141.246H7.039V113.283a4.057,4.057,0,0,1,4.057-4.056H35a4.057,4.057,0,0,1,4.057,4.056Zm0,0" transform="translate(-5.883 -94.159)"/><path class="c" d="M33.176,136.3H1.156a.942.942,0,0,1-.941-.942V107.4a5,5,0,0,1,5-5H29.12a5,5,0,0,1,5,5v27.963a.942.942,0,0,1-.941.942ZM2.1,134.418H32.234V107.4a3.118,3.118,0,0,0-3.115-3.114H5.213A3.117,3.117,0,0,0,2.1,107.4Zm0,0" transform="translate(0 -88.272)"/><path class="a" d="M44.939,384.176a1.884,1.884,0,1,1-1.883-1.883A1.884,1.884,0,0,1,44.939,384.176Zm0,0" transform="translate(-35.307 -329.555)"/><path class="d" d="M37.173,381.116A2.825,2.825,0,1,1,40,378.29,2.828,2.828,0,0,1,37.173,381.116Zm0-3.767a.942.942,0,1,0,.941.941A.943.943,0,0,0,37.173,377.349Zm0,0" transform="translate(-29.424 -323.669)"/><path class="a" d="M188.3,384.176a1.883,1.883,0,1,1-1.883-1.883A1.884,1.884,0,0,1,188.3,384.176Zm0,0" transform="translate(-158.894 -329.555)"/><path class="d" d="M180.533,381.116a2.825,2.825,0,1,1,2.825-2.825A2.828,2.828,0,0,1,180.533,381.116Zm0-3.767a.942.942,0,1,0,.941.941A.943.943,0,0,0,180.533,377.349Zm0,0" transform="translate(-153.008 -323.669)"/><path class="e" d="M93.434,16.01H83.075a.942.942,0,0,1-.942-.942V5.651A5.657,5.657,0,0,1,87.784,0h.942a5.656,5.656,0,0,1,5.65,5.651v9.417a.942.942,0,0,1-.941.942Zm-9.418-1.884h8.476V5.651a3.771,3.771,0,0,0-3.767-3.767h-.942a3.772,3.772,0,0,0-3.767,3.767Zm0,0" transform="translate(-70.618)"/><path class="d" d="M88.961,143.359H99.32v3.767H88.961Zm0,0" transform="translate(-76.504 -123.582)"/><path class="f" d="M93.434,142.185H83.075a.942.942,0,0,1-.942-.941v-3.767a.942.942,0,0,1,.942-.941H93.434a.941.941,0,0,1,.941.941v3.767A.941.941,0,0,1,93.434,142.185ZM84.016,140.3h8.476v-1.883H84.016Zm0,0" transform="translate(-70.618 -117.7)"/><path class="f" d="M39.058,341.332H7.039v1.694A3.956,3.956,0,0,0,11,346.983H35.1a3.956,3.956,0,0,0,3.956-3.956Zm0,0" transform="translate(-5.883 -294.245)"/><path class="e" d="M29.219,342.042H5.113a4.9,4.9,0,0,1-4.9-4.9v-1.694a.941.941,0,0,1,.941-.941H33.176a.941.941,0,0,1,.941.941v1.694a4.9,4.9,0,0,1-4.9,4.9ZM2.1,336.391v.752a3.018,3.018,0,0,0,3.014,3.014H29.22a3.018,3.018,0,0,0,3.014-3.014v-.752Zm0,0" transform="translate(0 -288.362)"/><path class="f" d="M226.434,203.624a.942.942,0,0,1-.942-.942v-3.767a.942.942,0,0,1,1.884,0v3.767A.942.942,0,0,1,226.434,203.624Zm0,0" transform="translate(-194.2 -170.662)"/><path class="f" d="M216.549,213.509h-3.767a.942.942,0,1,1,0-1.884h3.767a.942.942,0,1,1,0,1.884Zm0,0" transform="translate(-182.432 -182.431)"/><path class="f" d="M21.633,128.191a.942.942,0,0,1-.942-.941v-.616a3.059,3.059,0,0,1,3.055-3.055h3.537a.942.942,0,0,1,0,1.884H23.747a1.173,1.173,0,0,0-1.171,1.171v.616a.942.942,0,0,1-.942.941Zm0,0" transform="translate(-17.652 -106.531)"/></g></svg>